M48
; DRILL file {KiCad 9.0.0} date 2025-05-15T12:52:28+0200
; FORMAT={-:-/ absolute / metric / decimal}
; #@! TF.CreationDate,2025-05-15T12:52:28+02:00
; #@! TF.GenerationSoftware,Kicad,Pcbnew,9.0.0
; #@! TF.FileFunction,Plated,1,2,PTH
FMAT,2
METRIC
; #@! TA.AperFunction,Plated,PTH,ViaDrill
T1C0.300
; #@! TA.AperFunction,Plated,PTH,ComponentDrill
T2C0.500
; #@! TA.AperFunction,Plated,PTH,ComponentDrill
T3C0.600
; #@! TA.AperFunction,Plated,PTH,ComponentDrill
T4C0.759
; #@! TA.AperFunction,Plated,PTH,ComponentDrill
T5C0.800
; #@! TA.AperFunction,Plated,PTH,ComponentDrill
T6C0.900
; #@! TA.AperFunction,Plated,PTH,ComponentDrill
T7C0.950
; #@! TA.AperFunction,Plated,PTH,ComponentDrill
T8C1.000
; #@! TA.AperFunction,Plated,PTH,ComponentDrill
T9C1.020
; #@! TA.AperFunction,Plated,PTH,ComponentDrill
T10C1.100
; #@! TA.AperFunction,Plated,PTH,ComponentDrill
T11C2.500
; #@! TA.AperFunction,Plated,PTH,ComponentDrill
T12C3.200
%
G90
G05
T1
X16.891Y-21.844
X17.513Y-22.847
X17.653Y-25.654
X18.178Y-22.225
X18.798Y-25.131
X18.831Y-21.463
X21.065Y-15.223
X21.082Y-34.417
X21.463Y-12.954
X21.59Y-59.055
X23.421Y-12.245
X24.613Y-19.507
X25.146Y-20.574
X25.908Y-13.589
X26.56Y-14.254
X26.695Y-19.236
X27.791Y-12.297
X29.21Y-28.685
X29.718Y-19.939
X39.116Y-76.454
X39.624Y-36.83
X42.164Y-76.454
X45.212Y-91.186
X47.498Y-90.932
X47.752Y-76.2
X48.006Y-78.486
X49.784Y-90.678
X50.292Y-78.74
X53.34Y-79.756
X58.166Y-81.026
X58.166Y-88.57
X58.166Y-89.37
X58.166Y-90.17
X69.469Y-92.456
X71.577Y-82.296
X72.898Y-75.343
X72.898Y-91.694
X75.184Y-90.932
X77.216Y-90.17
X79.883Y-89.535
X82.677Y-88.9
X88.392Y-76.962
X88.392Y-78.232
X88.392Y-79.756
X88.392Y-81.026
X89.662Y-28.448
X93.472Y-31.369
X93.472Y-35.306
X94.996Y-30.48
X95.504Y-1.27
X95.758Y-15.24
X96.012Y-8.636
X97.028Y-14.478
X97.028Y-38.354
X98.806Y-27.432
X105.664Y-53.721
X105.89Y-122.682
X106.68Y-11.684
X107.95Y-55.118
X108.712Y-122.682
X109.22Y-76.2
X112.014Y-122.682
X113.157Y-74.676
X115.57Y-122.428
X120.396Y-71.12
X128.778Y-120.65
X132.334Y-139.954
X132.842Y-126.492
X134.366Y-140.462
X135.89Y-134.62
X137.668Y-134.112
X138.684Y-132.588
X138.938Y-119.634
X140.462Y-119.634
X158.461Y-15.663
X159.512Y-9.144
X159.512Y-14.986
X163.068Y-28.194
X165.862Y-42.926
X168.41Y-10.922
X169.164Y-9.906
X185.563Y-31.182
X186.69Y-31.242
X200.66Y-31.496
X201.168Y-21.59
X203.708Y-21.59
X212.344Y-20.828
T2
X91.216Y-49.93
X93.756Y-49.93
T4
X193.104Y-35.306
X193.104Y-37.846
X193.104Y-40.386
X193.104Y-42.926
X200.914Y-35.306
X200.914Y-37.846
X200.914Y-40.386
X200.914Y-42.926
T5
X11.51Y-8.636
X14.01Y-5.436
X16.51Y-8.636
X36.83Y-8.255
X39.37Y-8.255
X41.91Y-8.255
X89.702Y-21.846
X92.202Y-25.046
X94.702Y-21.846
X153.964Y-21.336
X156.464Y-24.536
X158.964Y-21.336
T6
X15.868Y-62.103
X18.368Y-67.103
X20.868Y-62.103
X24.424Y-62.056
X26.924Y-67.056
X29.424Y-62.056
X61.254Y-82.336
X61.254Y-87.336
X66.254Y-84.836
T7
X117.602Y-130.048
X117.602Y-145.288
X120.142Y-130.048
X120.142Y-145.288
X122.682Y-130.048
X122.682Y-145.288
X125.222Y-130.048
X125.222Y-145.288
X127.762Y-130.048
X127.762Y-145.288
X130.302Y-130.048
X130.302Y-145.288
T8
X16.51Y-35.56
X16.51Y-38.1
X16.51Y-40.64
X16.51Y-43.18
X16.51Y-45.72
X16.51Y-48.26
X16.51Y-50.8
X16.51Y-53.34
X23.368Y-77.153
X23.573Y-83.45
X23.573Y-85.99
X23.573Y-88.53
X25.4Y-43.643
X25.4Y-50.038
X25.407Y-36.785
X25.908Y-77.153
X27.94Y-43.643
X27.94Y-50.038
X27.947Y-36.785
X28.448Y-77.153
X30.48Y-43.643
X30.48Y-50.038
X30.487Y-36.785
X33.02Y-43.643
X33.02Y-50.038
X33.027Y-36.785
X34.29Y-12.954
X35.56Y-19.812
X35.56Y-22.352
X35.56Y-24.892
X35.56Y-27.432
X35.56Y-29.972
X35.56Y-43.643
X35.56Y-50.038
X35.567Y-36.785
X36.83Y-12.954
X38.1Y-19.812
X38.1Y-22.352
X38.1Y-24.892
X38.1Y-27.432
X38.1Y-29.972
X39.116Y-60.745
X39.116Y-65.745
X39.37Y-12.954
X40.132Y-83.82
X40.132Y-86.36
X42.672Y-83.82
X42.672Y-86.36
X45.212Y-83.82
X45.212Y-86.36
X45.466Y-4.318
X45.466Y-6.858
X45.466Y-9.398
X45.466Y-11.938
X45.466Y-14.478
X45.466Y-17.018
X45.466Y-19.558
X45.466Y-22.098
X45.466Y-24.638
X45.466Y-27.178
X45.466Y-29.718
X45.466Y-32.258
X45.466Y-34.798
X45.466Y-37.338
X45.466Y-39.878
X45.466Y-42.418
X45.466Y-44.958
X45.466Y-47.498
X45.466Y-50.038
X45.466Y-52.578
X47.752Y-83.82
X47.752Y-86.36
X48.006Y-4.318
X48.006Y-6.858
X48.006Y-9.398
X48.006Y-11.938
X48.006Y-14.478
X48.006Y-17.018
X48.006Y-19.558
X48.006Y-22.098
X48.006Y-24.638
X48.006Y-27.178
X48.006Y-29.718
X48.006Y-32.258
X48.006Y-34.798
X48.006Y-37.338
X48.006Y-39.878
X48.006Y-42.418
X48.006Y-44.958
X48.006Y-47.498
X48.006Y-50.038
X48.006Y-52.578
X48.26Y-63.03
X50.292Y-83.82
X50.292Y-86.36
X50.8Y-63.03
X52.832Y-83.82
X52.832Y-86.36
X53.34Y-63.03
X55.372Y-83.82
X55.372Y-86.36
X55.626Y-4.318
X55.626Y-6.858
X55.626Y-9.398
X55.626Y-11.938
X55.626Y-14.478
X55.626Y-17.018
X55.626Y-19.558
X55.626Y-22.098
X55.626Y-24.638
X55.626Y-27.178
X55.626Y-29.718
X55.626Y-32.258
X55.626Y-34.798
X55.626Y-37.338
X55.626Y-39.878
X55.626Y-42.418
X55.626Y-44.958
X55.626Y-47.498
X55.626Y-50.038
X55.626Y-52.578
X55.88Y-63.03
X58.42Y-63.03
X60.96Y-63.03
X63.5Y-63.03
X66.04Y-63.03
X72.644Y-4.318
X72.644Y-6.858
X72.644Y-9.398
X72.644Y-11.938
X72.644Y-14.478
X72.644Y-17.018
X72.644Y-19.558
X72.644Y-22.098
X72.644Y-24.638
X72.644Y-27.178
X72.644Y-29.718
X72.644Y-32.258
X72.644Y-34.798
X72.644Y-37.338
X72.644Y-39.878
X72.644Y-42.418
X72.644Y-44.958
X72.644Y-47.498
X72.644Y-50.038
X72.644Y-52.578
X79.34Y-68.828
X81.88Y-68.828
X82.296Y-4.318
X82.296Y-6.858
X82.296Y-9.398
X82.296Y-11.938
X82.296Y-14.478
X82.296Y-17.018
X82.296Y-19.558
X82.296Y-22.098
X82.296Y-24.638
X82.296Y-27.178
X82.296Y-29.718
X82.296Y-32.258
X82.296Y-34.798
X82.296Y-37.338
X82.296Y-39.878
X82.296Y-42.418
X82.296Y-44.958
X82.296Y-47.498
X82.296Y-50.038
X82.296Y-52.578
X84.42Y-68.828
X84.836Y-4.318
X84.836Y-6.858
X84.836Y-9.398
X84.836Y-11.938
X84.836Y-14.478
X84.836Y-17.018
X84.836Y-19.558
X84.836Y-22.098
X84.836Y-24.638
X84.836Y-27.178
X84.836Y-29.718
X84.836Y-32.258
X84.836Y-34.798
X84.836Y-37.338
X84.836Y-39.878
X84.836Y-42.418
X84.836Y-44.958
X84.836Y-47.498
X84.836Y-50.038
X84.836Y-52.578
X86.96Y-68.828
X87.376Y-4.318
X87.376Y-9.398
X87.376Y-14.478
X89.5Y-68.828
X92.04Y-68.828
X94.58Y-68.828
X95.504Y-54.361
X95.504Y-56.901
X97.12Y-68.828
X98.343Y-111.652
X98.343Y-114.192
X98.343Y-116.732
X98.343Y-119.272
X98.343Y-121.812
X98.343Y-124.352
X99.66Y-68.828
X100.584Y-40.64
X100.584Y-43.18
X100.584Y-45.72
X102.2Y-68.828
X103.124Y-30.734
X103.124Y-33.274
X103.124Y-40.64
X103.124Y-43.18
X103.124Y-45.72
X104.74Y-68.828
X107.28Y-68.828
X108.082Y-112.268
X109.82Y-68.828
X110.622Y-112.268
X110.998Y-3.81
X110.998Y-6.35
X110.998Y-8.89
X110.998Y-11.43
X110.998Y-13.97
X110.998Y-16.51
X110.998Y-19.05
X110.998Y-21.59
X110.998Y-24.13
X110.998Y-26.67
X110.998Y-29.21
X110.998Y-31.75
X110.998Y-34.29
X110.998Y-36.83
X110.998Y-39.37
X110.998Y-41.91
X110.998Y-44.45
X110.998Y-46.99
X110.998Y-49.53
X110.998Y-52.07
X112.36Y-68.828
X113.162Y-112.268
X113.538Y-3.81
X113.538Y-6.35
X113.538Y-8.89
X113.538Y-11.43
X113.538Y-13.97
X113.538Y-16.51
X113.538Y-19.05
X113.538Y-21.59
X113.538Y-24.13
X113.538Y-26.67
X113.538Y-29.21
X113.538Y-31.75
X113.538Y-34.29
X113.538Y-36.83
X113.538Y-39.37
X113.538Y-41.91
X113.538Y-44.45
X113.538Y-46.99
X113.538Y-49.53
X113.538Y-52.07
X114.9Y-68.828
X115.702Y-112.268
X117.44Y-68.828
X121.158Y-3.81
X121.158Y-6.35
X121.158Y-8.89
X121.158Y-11.43
X121.158Y-13.97
X121.158Y-16.51
X121.158Y-19.05
X121.158Y-21.59
X121.158Y-24.13
X121.158Y-26.67
X121.158Y-29.21
X121.158Y-31.75
X121.158Y-34.29
X121.158Y-36.83
X121.158Y-39.37
X121.158Y-41.91
X121.158Y-44.45
X121.158Y-46.99
X121.158Y-49.53
X121.158Y-52.07
X124.206Y-112.268
X126.746Y-112.268
X129.286Y-112.268
X131.826Y-112.268
X134.366Y-112.268
X136.906Y-112.268
X138.684Y-3.81
X138.684Y-6.35
X138.684Y-8.89
X138.684Y-11.43
X138.684Y-13.97
X138.684Y-16.51
X138.684Y-19.05
X138.684Y-21.59
X138.684Y-24.13
X138.684Y-26.67
X138.684Y-29.21
X138.684Y-31.75
X138.684Y-34.29
X138.684Y-36.83
X138.684Y-39.37
X138.684Y-41.91
X138.684Y-44.45
X138.684Y-46.99
X138.684Y-49.53
X138.684Y-52.07
X139.446Y-112.268
X141.986Y-112.268
X146.558Y-3.81
X146.558Y-6.35
X146.558Y-8.89
X146.558Y-11.43
X146.558Y-13.97
X146.558Y-16.51
X146.558Y-19.05
X146.558Y-21.59
X146.558Y-24.13
X146.558Y-26.67
X146.558Y-29.21
X146.558Y-31.75
X146.558Y-34.29
X146.558Y-36.83
X146.558Y-39.37
X146.558Y-41.91
X146.558Y-44.45
X146.558Y-46.99
X146.558Y-49.53
X146.558Y-52.07
X149.098Y-3.81
X149.098Y-6.35
X149.098Y-8.89
X149.098Y-11.43
X149.098Y-13.97
X149.098Y-16.51
X149.098Y-19.05
X149.098Y-21.59
X149.098Y-24.13
X149.098Y-26.67
X149.098Y-29.21
X149.098Y-31.75
X149.098Y-34.29
X149.098Y-36.83
X149.098Y-39.37
X149.098Y-41.91
X149.098Y-44.45
X149.098Y-46.99
X149.098Y-49.53
X149.098Y-52.07
X151.638Y-3.81
X151.638Y-8.89
X151.638Y-13.946
X158.836Y-35.306
X158.836Y-37.846
X158.836Y-40.386
X158.836Y-42.926
X171.282Y-35.306
X171.282Y-37.846
X171.282Y-40.386
X171.282Y-42.926
X172.974Y-4.318
X172.974Y-6.858
X172.974Y-9.398
X172.974Y-11.938
X172.974Y-14.478
X172.974Y-17.018
X172.974Y-19.558
X172.974Y-22.098
X172.974Y-24.638
X172.974Y-27.178
X179.324Y-4.318
X179.324Y-6.858
X179.324Y-9.398
X179.324Y-11.938
X179.324Y-14.478
X179.324Y-17.018
X179.324Y-19.558
X179.324Y-22.098
X179.324Y-24.638
X179.324Y-27.178
X185.928Y-4.318
X185.928Y-6.858
X185.928Y-9.398
X185.928Y-11.938
X185.928Y-14.478
X185.928Y-17.018
X185.928Y-19.558
X185.928Y-22.098
X185.928Y-24.638
X185.928Y-27.178
X190.087Y-35.306
X190.087Y-37.846
X190.087Y-40.386
X190.087Y-42.926
X194.818Y-23.622
X197.358Y-23.622
X199.898Y-23.622
X202.438Y-23.622
X203.962Y-35.306
X203.962Y-37.846
X203.962Y-40.386
X203.962Y-42.926
X204.978Y-23.622
X207.518Y-23.622
X210.058Y-23.622
X233.34Y-60.706
X233.34Y-65.786
X238.34Y-47.246
X240.88Y-47.246
X243.42Y-47.246
X245.96Y-47.246
X248.5Y-47.246
X251.04Y-47.246
X253.58Y-47.246
X256.12Y-47.246
X258.66Y-47.246
X261.2Y-47.246
X263.74Y-47.246
X266.28Y-47.246
X268.82Y-47.246
X271.36Y-47.246
X273.9Y-47.246
X276.44Y-47.246
X307.34Y-60.706
X307.34Y-65.786
T9
X233.934Y12.7
X233.934Y10.16
X233.934Y7.62
X233.934Y5.08
X233.934Y2.54
X233.934Y0.0
X233.934Y-2.54
X233.934Y-5.08
X233.934Y-7.62
X233.934Y-10.16
X233.934Y-12.7
X233.934Y-15.24
X233.934Y-17.78
X233.934Y-20.32
X233.934Y-22.86
X233.934Y-25.4
X233.934Y-27.94
X233.934Y-30.48
X233.934Y-33.02
X233.934Y-35.56
X240.284Y-35.33
X242.824Y-35.33
X245.364Y-35.33
X251.714Y12.7
X251.714Y10.16
X251.714Y7.62
X251.714Y5.08
X251.714Y2.54
X251.714Y0.0
X251.714Y-2.54
X251.714Y-5.08
X251.714Y-7.62
X251.714Y-10.16
X251.714Y-12.7
X251.714Y-15.24
X251.714Y-17.78
X251.714Y-20.32
X251.714Y-22.86
X251.714Y-25.4
X251.714Y-27.94
X251.714Y-30.48
X251.714Y-33.02
X251.714Y-35.56
X267.208Y12.954
X267.208Y10.414
X267.208Y7.874
X267.208Y5.334
X267.208Y2.794
X267.208Y0.254
X267.208Y-2.286
X267.208Y-4.826
X267.208Y-7.366
X267.208Y-9.906
X267.208Y-12.446
X267.208Y-14.986
X267.208Y-17.526
X267.208Y-20.066
X267.208Y-22.606
X267.208Y-25.146
X267.208Y-27.686
X267.208Y-30.226
X267.208Y-32.766
X267.208Y-35.306
X273.558Y-35.076
X276.098Y-35.076
X278.638Y-35.076
X284.988Y12.954
X284.988Y10.414
X284.988Y7.874
X284.988Y5.334
X284.988Y2.794
X284.988Y0.254
X284.988Y-2.286
X284.988Y-4.826
X284.988Y-7.366
X284.988Y-9.906
X284.988Y-12.446
X284.988Y-14.986
X284.988Y-17.526
X284.988Y-20.066
X284.988Y-22.606
X284.988Y-25.146
X284.988Y-27.686
X284.988Y-30.226
X284.988Y-32.766
X284.988Y-35.306
T10
X3.66Y-15.856
X3.66Y-20.356
X3.66Y-23.912
X3.66Y-28.412
X3.66Y-32.04
X3.66Y-36.54
X3.66Y-40.168
X3.66Y-44.668
X3.66Y-48.296
X3.66Y-52.796
X3.66Y-56.424
X3.66Y-60.924
X3.66Y-64.552
X3.66Y-69.052
X3.66Y-72.68
X3.66Y-77.18
X10.16Y-15.856
X10.16Y-20.356
X10.16Y-23.912
X10.16Y-28.412
X10.16Y-32.04
X10.16Y-36.54
X10.16Y-40.168
X10.16Y-44.668
X10.16Y-48.296
X10.16Y-52.796
X10.16Y-56.424
X10.16Y-60.924
X10.16Y-64.552
X10.16Y-69.052
X10.16Y-72.68
X10.16Y-77.18
X98.878Y-6.2
X98.878Y-12.7
X103.378Y-6.2
X103.378Y-12.7
X161.834Y-6.148
X161.834Y-12.648
X166.334Y-6.148
X166.334Y-12.648
T11
X232.84Y-47.746
X232.84Y-78.746
X307.84Y-47.746
X307.84Y-78.746
T12
X3.81Y-146.05
X4.572Y-4.572
X215.9Y-146.05
X216.0Y-4.0
T3
G00X21.516Y-5.687
M15
G01X21.516Y-5.087
M16
G05
G00X21.516Y-10.117
M15
G01X21.516Y-9.017
M16
G05
G00X30.156Y-5.687
M15
G01X30.156Y-5.087
M16
G05
G00X30.156Y-10.117
M15
G01X30.156Y-9.017
M16
G05
M30
