M48
; DRILL file {KiCad 9.0.2} date 2025-06-16T17:13:35+0200
; FORMAT={-:-/ absolute / metric / decimal}
; #@! TF.CreationDate,2025-06-16T17:13:35+02:00
; #@! TF.GenerationSoftware,Kicad,Pcbnew,9.0.2
; #@! TF.FileFunction,Plated,1,2,PTH
FMAT,2
METRIC
; #@! TA.AperFunction,Plated,PTH,ViaDrill
T1C0.300
; #@! TA.AperFunction,Plated,PTH,ComponentDrill
T2C0.500
; #@! TA.AperFunction,Plated,PTH,ComponentDrill
T3C0.600
; #@! TA.AperFunction,Plated,PTH,ComponentDrill
T4C0.800
; #@! TA.AperFunction,Plated,PTH,ComponentDrill
T5C0.900
; #@! TA.AperFunction,Plated,PTH,ComponentDrill
T6C0.950
; #@! TA.AperFunction,Plated,PTH,ComponentDrill
T7C1.000
; #@! TA.AperFunction,Plated,PTH,ComponentDrill
T8C1.100
; #@! TA.AperFunction,Plated,PTH,ComponentDrill
T9C3.200
%
G90
G05
T1
X1.5Y-24.0
X1.5Y-40.0
X1.5Y-56.0
X1.5Y-73.25
X2.5Y-13.0
X15.55Y-20.6
X16.75Y-25.75
X18.5Y-16.75
X20.5Y-17.0
X20.5Y-18.75
X21.0Y-10.0
X21.0Y-11.5
X21.75Y-15.5
X23.0Y-18.75
X23.5Y-10.0
X24.892Y-136.144
X25.0Y-5.25
X25.75Y-5.95
X26.0Y-18.25
X26.3Y-5.25
X27.0Y-5.95
X28.0Y-10.0
X32.45Y-19.2
X33.0Y-68.0
X34.05Y-4.75
X36.322Y-90.0
X37.846Y-114.046
X39.624Y-36.83
X41.0Y-46.25
X42.5Y-74.75
X45.0Y-91.0
X47.5Y-91.0
X48.0Y-76.25
X48.0Y-78.5
X50.25Y-90.0
X50.292Y-78.5
X53.25Y-79.75
X55.0Y-90.0
X57.0Y-89.0
X58.0Y-81.0
X58.5Y-85.0
X58.75Y-47.25
X63.25Y-47.25
X64.0Y-5.75
X66.25Y-54.5
X66.25Y-58.0
X67.75Y-8.0
X69.469Y-92.456
X71.5Y-82.0
X72.898Y-75.343
X72.898Y-91.694
X75.184Y-90.932
X77.216Y-90.17
X79.883Y-89.535
X80.15Y-59.55
X82.25Y-111.0
X84.0Y-120.5
X86.868Y-95.123
X87.0Y-59.55
X88.25Y-77.25
X88.392Y-78.232
X88.392Y-79.756
X88.392Y-81.026
X89.662Y-28.448
X90.297Y-52.197
X90.75Y-23.75
X91.313Y-102.997
X93.472Y-31.369
X93.472Y-35.306
X94.25Y-102.5
X94.996Y-30.48
X95.25Y-1.5
X95.758Y-15.24
X96.25Y-52.75
X96.75Y-44.75
X97.028Y-38.354
X98.15Y-51.0
X98.806Y-27.432
X101.75Y-48.5
X102.0Y-122.75
X102.25Y-54.0
X104.5Y-52.25
X106.0Y-54.0
X106.25Y-60.75
X108.75Y-122.75
X109.22Y-76.2
X112.0Y-122.75
X115.75Y-122.75
X120.396Y-71.12
X129.3Y-120.9
X132.24Y-142.5
X132.25Y-139.0
X132.842Y-126.492
X136.0Y-134.5
X137.25Y-136.0
X138.938Y-119.634
X140.462Y-119.634
X141.0Y-134.5
X163.068Y-28.194
X163.83Y-23.368
X166.437Y-31.563
X176.2Y-31.9
X188.25Y-30.2
X188.722Y-25.4
X191.25Y-6.75
X191.25Y-16.75
X200.75Y-31.75
X201.168Y-21.59
X212.25Y-21.0
X212.5Y-7.25
X214.884Y-56.134
X214.884Y-78.486
X214.884Y-104.14
X214.884Y-129.54
X216.0Y-33.5
T2
X91.216Y-49.93
X93.756Y-49.93
T4
X11.5Y-8.5
X14.0Y-5.3
X16.5Y-8.5
X34.0Y-7.0
X36.54Y-7.0
X39.08Y-7.0
X89.75Y-22.0
X92.25Y-25.2
X94.75Y-22.0
X154.0Y-22.0
X156.5Y-25.2
X159.0Y-22.0
X163.0Y-39.0
X163.0Y-41.54
X163.0Y-44.08
X163.0Y-46.62
X170.62Y-39.0
X170.62Y-41.54
X170.62Y-44.08
X170.62Y-46.62
X197.25Y-39.0
X197.25Y-41.54
X197.25Y-44.08
X197.25Y-46.62
X204.87Y-39.0
X204.87Y-41.54
X204.87Y-44.08
X204.87Y-46.62
T5
X16.0Y-62.0
X18.5Y-67.0
X21.0Y-62.0
X25.0Y-62.0
X27.5Y-67.0
X30.0Y-62.0
X61.25Y-82.5
X61.25Y-87.5
X66.25Y-85.0
T6
X117.75Y-130.01
X117.75Y-145.25
X120.29Y-130.01
X120.29Y-145.25
X122.83Y-130.01
X122.83Y-145.25
X125.37Y-130.01
X125.37Y-145.25
X127.91Y-130.01
X127.91Y-145.25
X130.45Y-130.01
X130.45Y-145.25
T7
X16.0Y-35.0
X16.0Y-37.54
X16.0Y-40.08
X16.0Y-42.62
X16.0Y-45.16
X16.0Y-47.7
X16.0Y-50.24
X16.0Y-52.78
X20.92Y-77.0
X20.92Y-81.0
X23.46Y-77.0
X23.46Y-81.0
X25.5Y-36.75
X25.5Y-43.5
X25.5Y-50.0
X26.0Y-77.0
X26.0Y-81.0
X28.04Y-36.75
X28.04Y-43.5
X28.04Y-50.0
X30.58Y-36.75
X30.58Y-43.5
X30.58Y-50.0
X33.12Y-36.75
X33.12Y-43.5
X33.12Y-50.0
X33.21Y-22.42
X33.21Y-24.96
X33.21Y-27.5
X33.21Y-30.04
X33.21Y-32.58
X34.17Y-11.534
X35.66Y-36.75
X35.66Y-43.5
X35.66Y-50.0
X35.75Y-22.42
X35.75Y-24.96
X35.75Y-27.5
X35.75Y-30.04
X35.75Y-32.58
X36.71Y-11.534
X39.0Y-60.75
X39.0Y-65.75
X39.25Y-11.534
X40.0Y-83.71
X40.0Y-86.25
X42.54Y-83.71
X42.54Y-86.25
X45.08Y-83.71
X45.08Y-86.25
X45.5Y-3.0
X45.5Y-5.54
X45.5Y-8.08
X45.5Y-10.62
X45.5Y-13.16
X45.5Y-15.7
X45.5Y-18.24
X45.5Y-20.78
X45.5Y-23.32
X45.5Y-25.86
X45.5Y-28.4
X45.5Y-30.94
X45.5Y-33.48
X45.5Y-36.02
X45.5Y-38.56
X45.5Y-41.1
X45.5Y-43.64
X45.5Y-46.18
X45.5Y-48.72
X45.5Y-51.26
X47.62Y-83.71
X47.62Y-86.25
X48.04Y-3.0
X48.04Y-5.54
X48.04Y-8.08
X48.04Y-10.62
X48.04Y-13.16
X48.04Y-15.7
X48.04Y-18.24
X48.04Y-20.78
X48.04Y-23.32
X48.04Y-25.86
X48.04Y-28.4
X48.04Y-30.94
X48.04Y-33.48
X48.04Y-36.02
X48.04Y-38.56
X48.04Y-41.1
X48.04Y-43.64
X48.04Y-46.18
X48.04Y-48.72
X48.04Y-51.26
X48.22Y-63.0
X50.16Y-83.71
X50.16Y-86.25
X50.76Y-63.0
X52.7Y-83.71
X52.7Y-86.25
X53.3Y-63.0
X55.24Y-83.71
X55.24Y-86.25
X55.5Y-3.0
X55.5Y-5.54
X55.5Y-8.08
X55.5Y-10.62
X55.5Y-13.16
X55.5Y-15.7
X55.5Y-18.24
X55.5Y-20.78
X55.5Y-23.32
X55.5Y-25.86
X55.5Y-28.4
X55.5Y-30.94
X55.5Y-33.48
X55.5Y-36.02
X55.5Y-38.56
X55.5Y-41.1
X55.5Y-43.64
X55.5Y-46.18
X55.5Y-48.72
X55.5Y-51.26
X55.84Y-63.0
X58.38Y-63.0
X60.92Y-63.0
X63.46Y-63.0
X66.0Y-63.0
X73.28Y-3.0
X73.28Y-5.54
X73.28Y-8.08
X73.28Y-10.62
X73.28Y-13.16
X73.28Y-15.7
X73.28Y-18.24
X73.28Y-20.78
X73.28Y-23.32
X73.28Y-25.86
X73.28Y-28.4
X73.28Y-30.94
X73.28Y-33.48
X73.28Y-36.02
X73.28Y-38.56
X73.28Y-41.1
X73.28Y-43.64
X73.28Y-46.18
X73.28Y-48.72
X73.28Y-51.26
X79.25Y-68.75
X81.79Y-68.75
X82.25Y-3.0
X82.25Y-5.54
X82.25Y-8.08
X82.25Y-10.62
X82.25Y-13.16
X82.25Y-15.7
X82.25Y-18.24
X82.25Y-20.78
X82.25Y-23.32
X82.25Y-25.86
X82.25Y-28.4
X82.25Y-30.94
X82.25Y-33.48
X82.25Y-36.02
X82.25Y-38.56
X82.25Y-41.1
X82.25Y-43.64
X82.25Y-46.18
X82.25Y-48.72
X82.25Y-51.26
X84.33Y-68.75
X84.75Y-5.54
X84.79Y-3.0
X84.79Y-8.08
X84.79Y-10.62
X84.79Y-13.16
X84.79Y-15.7
X84.79Y-18.24
X84.79Y-20.78
X84.79Y-23.32
X84.79Y-25.86
X84.79Y-28.4
X84.79Y-30.94
X84.79Y-33.48
X84.79Y-36.02
X84.79Y-38.56
X84.79Y-41.1
X84.79Y-43.64
X84.79Y-46.18
X84.79Y-48.72
X84.79Y-51.26
X86.75Y-131.71
X86.75Y-134.25
X86.87Y-68.75
X87.29Y-5.54
X87.29Y-13.16
X89.41Y-68.75
X90.0Y-62.5
X91.95Y-68.75
X92.5Y-54.485
X92.5Y-57.025
X92.54Y-62.5
X94.49Y-68.75
X97.03Y-68.75
X98.5Y-109.25
X98.5Y-111.79
X98.5Y-114.33
X98.5Y-116.87
X98.5Y-119.41
X98.5Y-121.95
X98.5Y-124.49
X99.57Y-68.75
X100.584Y-40.64
X100.584Y-43.18
X100.584Y-45.72
X102.11Y-68.75
X103.0Y-30.71
X103.0Y-33.25
X103.124Y-40.64
X103.124Y-43.18
X103.124Y-45.72
X104.65Y-68.75
X107.19Y-68.75
X108.0Y-112.25
X109.73Y-68.75
X110.54Y-112.25
X111.0Y-3.0
X111.0Y-5.54
X111.0Y-8.08
X111.0Y-10.62
X111.0Y-13.16
X111.0Y-15.7
X111.0Y-18.24
X111.0Y-20.78
X111.0Y-23.32
X111.0Y-25.86
X111.0Y-28.4
X111.0Y-30.94
X111.0Y-33.48
X111.0Y-36.02
X111.0Y-38.56
X111.0Y-41.1
X111.0Y-43.64
X111.0Y-46.18
X111.0Y-48.72
X111.0Y-51.26
X112.27Y-68.75
X113.08Y-112.25
X113.54Y-3.0
X113.54Y-5.54
X113.54Y-8.08
X113.54Y-10.62
X113.54Y-13.16
X113.54Y-15.7
X113.54Y-18.24
X113.54Y-20.78
X113.54Y-23.32
X113.54Y-25.86
X113.54Y-28.4
X113.54Y-30.94
X113.54Y-33.48
X113.54Y-36.02
X113.54Y-38.56
X113.54Y-41.1
X113.54Y-43.64
X113.54Y-46.18
X113.54Y-48.72
X113.54Y-51.26
X114.81Y-68.75
X115.62Y-112.25
X117.35Y-68.75
X121.0Y-3.0
X121.0Y-5.54
X121.0Y-8.08
X121.0Y-10.62
X121.0Y-13.16
X121.0Y-15.7
X121.0Y-18.24
X121.0Y-20.78
X121.0Y-23.32
X121.0Y-25.86
X121.0Y-28.4
X121.0Y-30.94
X121.0Y-33.48
X121.0Y-36.02
X121.0Y-38.56
X121.0Y-41.1
X121.0Y-43.64
X121.0Y-46.18
X121.0Y-48.72
X121.0Y-51.26
X124.22Y-112.25
X126.76Y-112.25
X129.3Y-112.25
X131.84Y-112.25
X134.38Y-112.25
X136.92Y-112.25
X138.78Y-3.0
X138.78Y-5.54
X138.78Y-8.08
X138.78Y-10.62
X138.78Y-13.16
X138.78Y-15.7
X138.78Y-18.24
X138.78Y-20.78
X138.78Y-23.32
X138.78Y-25.86
X138.78Y-28.4
X138.78Y-30.94
X138.78Y-33.48
X138.78Y-36.02
X138.78Y-38.56
X138.78Y-41.1
X138.78Y-43.64
X138.78Y-46.18
X138.78Y-48.72
X138.78Y-51.26
X139.46Y-112.25
X142.0Y-112.25
X146.5Y-3.0
X146.5Y-5.54
X146.5Y-8.08
X146.5Y-10.62
X146.5Y-13.16
X146.5Y-15.7
X146.5Y-18.24
X146.5Y-20.78
X146.5Y-23.32
X146.5Y-25.86
X146.5Y-28.4
X146.5Y-30.94
X146.5Y-33.48
X146.5Y-36.02
X146.5Y-38.56
X146.5Y-41.1
X146.5Y-43.64
X146.5Y-46.18
X146.5Y-48.72
X146.5Y-51.26
X149.04Y-3.0
X149.04Y-5.54
X149.04Y-8.08
X149.04Y-10.62
X149.04Y-13.16
X149.04Y-15.7
X149.04Y-18.24
X149.04Y-20.78
X149.04Y-23.32
X149.04Y-25.86
X149.04Y-28.4
X149.04Y-30.94
X149.04Y-33.48
X149.04Y-36.02
X149.04Y-38.56
X149.04Y-41.1
X149.04Y-43.64
X149.04Y-46.18
X149.04Y-48.72
X149.04Y-51.26
X151.58Y-5.54
X151.58Y-13.16
X158.0Y-39.0
X158.0Y-41.54
X158.0Y-44.08
X158.0Y-46.62
X172.974Y-4.318
X172.974Y-6.858
X172.974Y-9.398
X172.974Y-11.938
X172.974Y-14.478
X172.974Y-17.018
X172.974Y-19.558
X172.974Y-22.098
X172.974Y-24.638
X172.974Y-27.178
X175.75Y-39.0
X175.75Y-41.54
X175.75Y-44.08
X175.75Y-46.62
X179.324Y-4.318
X179.324Y-6.858
X179.324Y-9.398
X179.324Y-11.938
X179.324Y-14.478
X179.324Y-17.018
X179.324Y-19.558
X179.324Y-22.098
X179.324Y-24.638
X179.324Y-27.178
X185.928Y-4.318
X185.928Y-6.858
X185.928Y-9.398
X185.928Y-11.938
X185.928Y-14.478
X185.928Y-17.018
X185.928Y-19.558
X185.928Y-22.098
X185.928Y-24.638
X185.928Y-27.178
X192.25Y-39.0
X192.25Y-41.54
X192.25Y-44.08
X192.25Y-46.62
X195.0Y-23.5
X197.54Y-23.5
X200.08Y-23.5
X202.62Y-23.5
X205.16Y-23.5
X207.7Y-23.5
X210.0Y-39.0
X210.0Y-41.54
X210.0Y-44.08
X210.0Y-46.62
X210.24Y-23.5
T8
X3.5Y-15.5
X3.5Y-20.0
X3.5Y-23.5
X3.5Y-28.0
X3.5Y-31.5
X3.5Y-36.0
X3.5Y-39.5
X3.5Y-44.0
X3.5Y-47.5
X3.5Y-52.0
X3.5Y-55.5
X3.5Y-60.0
X3.5Y-63.5
X3.5Y-68.0
X3.5Y-71.5
X3.5Y-76.0
X10.0Y-15.5
X10.0Y-20.0
X10.0Y-23.5
X10.0Y-28.0
X10.0Y-31.5
X10.0Y-36.0
X10.0Y-39.5
X10.0Y-44.0
X10.0Y-47.5
X10.0Y-52.0
X10.0Y-55.5
X10.0Y-60.0
X10.0Y-63.5
X10.0Y-68.0
X10.0Y-71.5
X10.0Y-76.0
X98.75Y-6.25
X98.75Y-12.75
X103.25Y-6.25
X103.25Y-12.75
X162.0Y-6.25
X162.0Y-12.75
X166.5Y-6.25
X166.5Y-12.75
T9
X4.0Y-4.0
X4.0Y-146.0
X216.0Y-4.0
X216.0Y-146.0
T3
X21.68Y-3.0G85X21.68Y-2.4
G05
X21.68Y-7.43G85X21.68Y-6.33
G05
X30.32Y-3.0G85X30.32Y-2.4
G05
X30.32Y-7.43G85X30.32Y-6.33
G05
M30
