%TF.GenerationSoftware,KiCad,Pcbnew,9.0.0*%
%TF.CreationDate,2025-05-15T12:50:59+02:00*%
%TF.ProjectId,board,626f6172-642e-46b6-9963-61645f706362,rev?*%
%TF.SameCoordinates,Original*%
%TF.FileFunction,Copper,L2,Bot*%
%TF.FilePolarity,Positive*%
%FSLAX46Y46*%
G04 Gerber Fmt 4.6, Leading zero omitted, Abs format (unit mm)*
G04 Created by KiCad (PCBNEW 9.0.0) date 2025-05-15 12:50:59*
%MOMM*%
%LPD*%
G01*
G04 APERTURE LIST*
%TA.AperFunction,ComponentPad*%
%ADD10R,1.500000X1.500000*%
%TD*%
%TA.AperFunction,ComponentPad*%
%ADD11C,1.500000*%
%TD*%
%TA.AperFunction,ComponentPad*%
%ADD12O,1.700000X1.700000*%
%TD*%
%TA.AperFunction,ComponentPad*%
%ADD13R,1.700000X1.700000*%
%TD*%
%TA.AperFunction,ComponentPad*%
%ADD14C,5.000000*%
%TD*%
%TA.AperFunction,ComponentPad*%
%ADD15C,3.600000*%
%TD*%
%TA.AperFunction,ConnectorPad*%
%ADD16C,5.600000*%
%TD*%
%TA.AperFunction,ComponentPad*%
%ADD17R,1.159000X1.159000*%
%TD*%
%TA.AperFunction,ComponentPad*%
%ADD18C,1.159000*%
%TD*%
%TA.AperFunction,ComponentPad*%
%ADD19C,2.000000*%
%TD*%
%TA.AperFunction,ComponentPad*%
%ADD20R,1.300000X1.300000*%
%TD*%
%TA.AperFunction,ComponentPad*%
%ADD21C,1.300000*%
%TD*%
%TA.AperFunction,ComponentPad*%
%ADD22C,1.000000*%
%TD*%
%TA.AperFunction,ComponentPad*%
%ADD23C,1.400000*%
%TD*%
%TA.AperFunction,HeatsinkPad*%
%ADD24O,1.000000X2.100000*%
%TD*%
%TA.AperFunction,HeatsinkPad*%
%ADD25O,1.000000X1.600000*%
%TD*%
%TA.AperFunction,ComponentPad*%
%ADD26R,1.425000X1.425000*%
%TD*%
%TA.AperFunction,ComponentPad*%
%ADD27C,1.425000*%
%TD*%
%TA.AperFunction,ComponentPad*%
%ADD28R,1.400000X1.400000*%
%TD*%
%TA.AperFunction,WasherPad*%
%ADD29C,1.200000*%
%TD*%
%TA.AperFunction,ViaPad*%
%ADD30C,0.600000*%
%TD*%
%TA.AperFunction,Conductor*%
%ADD31C,0.508000*%
%TD*%
%TA.AperFunction,Conductor*%
%ADD32C,0.304800*%
%TD*%
%TA.AperFunction,Conductor*%
%ADD33C,0.254000*%
%TD*%
G04 APERTURE END LIST*
D10*
%TO.P,IC3,1,GND*%
%TO.N,GND*%
X36830000Y-8255000D03*
D11*
%TO.P,IC3,2,DQ*%
%TO.N,Net-(IC3-DQ)*%
X39370000Y-8255000D03*
%TO.P,IC3,3,VDD*%
%TO.N,+3.3V*%
X41910000Y-8255000D03*
%TD*%
D12*
%TO.P,U4,1,GPIO0*%
%TO.N,unconnected-(U4-GPIO0-Pad1)_1*%
X267208000Y12954000D03*
%TO.P,U4,2,GPIO1*%
%TO.N,unconnected-(U4-GPIO1-Pad2)_1*%
X267208000Y10414000D03*
D13*
%TO.P,U4,3,GND*%
%TO.N,unconnected-(U4-GND-Pad3)_1*%
X267208000Y7874000D03*
D12*
%TO.P,U4,4,GPIO2*%
%TO.N,unconnected-(U4-GPIO2-Pad4)_1*%
X267208000Y5334000D03*
%TO.P,U4,5,GPIO3*%
%TO.N,unconnected-(U4-GPIO3-Pad5)*%
X267208000Y2794000D03*
%TO.P,U4,6,GPIO4*%
%TO.N,unconnected-(U4-GPIO4-Pad6)_1*%
X267208000Y254000D03*
%TO.P,U4,7,GPIO5*%
%TO.N,unconnected-(U4-GPIO5-Pad7)_1*%
X267208000Y-2286000D03*
D13*
%TO.P,U4,8,GND*%
%TO.N,unconnected-(U4-GND-Pad8)_1*%
X267208000Y-4826000D03*
D12*
%TO.P,U4,9,GPIO6*%
%TO.N,unconnected-(U4-GPIO6-Pad9)*%
X267208000Y-7366000D03*
%TO.P,U4,10,GPIO7*%
%TO.N,unconnected-(U4-GPIO7-Pad10)*%
X267208000Y-9906000D03*
%TO.P,U4,11,GPIO8*%
%TO.N,unconnected-(U4-GPIO8-Pad11)_1*%
X267208000Y-12446000D03*
%TO.P,U4,12,GPIO9*%
%TO.N,unconnected-(U4-GPIO9-Pad12)_1*%
X267208000Y-14986000D03*
D13*
%TO.P,U4,13,GND*%
%TO.N,unconnected-(U4-GND-Pad13)*%
X267208000Y-17526000D03*
D12*
%TO.P,U4,14,GPIO10*%
%TO.N,unconnected-(U4-GPIO10-Pad14)*%
X267208000Y-20066000D03*
%TO.P,U4,15,GPIO11*%
%TO.N,unconnected-(U4-GPIO11-Pad15)_1*%
X267208000Y-22606000D03*
%TO.P,U4,16,GPIO12*%
%TO.N,unconnected-(U4-GPIO12-Pad16)*%
X267208000Y-25146000D03*
%TO.P,U4,17,GPIO13*%
%TO.N,unconnected-(U4-GPIO13-Pad17)*%
X267208000Y-27686000D03*
D13*
%TO.P,U4,18,GND*%
%TO.N,unconnected-(U4-GND-Pad18)*%
X267208000Y-30226000D03*
D12*
%TO.P,U4,19,GPIO14*%
%TO.N,unconnected-(U4-GPIO14-Pad19)*%
X267208000Y-32766000D03*
%TO.P,U4,20,GPIO15*%
%TO.N,unconnected-(U4-GPIO15-Pad20)_1*%
X267208000Y-35306000D03*
%TO.P,U4,21,GPIO16*%
%TO.N,unconnected-(U4-GPIO16-Pad21)_1*%
X284988000Y-35306000D03*
%TO.P,U4,22,GPIO17*%
%TO.N,unconnected-(U4-GPIO17-Pad22)_1*%
X284988000Y-32766000D03*
D13*
%TO.P,U4,23,GND*%
%TO.N,unconnected-(U4-GND-Pad23)*%
X284988000Y-30226000D03*
D12*
%TO.P,U4,24,GPIO18*%
%TO.N,unconnected-(U4-GPIO18-Pad24)*%
X284988000Y-27686000D03*
%TO.P,U4,25,GPIO19*%
%TO.N,unconnected-(U4-GPIO19-Pad25)*%
X284988000Y-25146000D03*
%TO.P,U4,26,GPIO20*%
%TO.N,unconnected-(U4-GPIO20-Pad26)*%
X284988000Y-22606000D03*
%TO.P,U4,27,GPIO21*%
%TO.N,unconnected-(U4-GPIO21-Pad27)*%
X284988000Y-20066000D03*
D13*
%TO.P,U4,28,GND*%
%TO.N,unconnected-(U4-GND-Pad28)_1*%
X284988000Y-17526000D03*
D12*
%TO.P,U4,29,GPIO22*%
%TO.N,unconnected-(U4-GPIO22-Pad29)_1*%
X284988000Y-14986000D03*
%TO.P,U4,30,RUN*%
%TO.N,unconnected-(U4-RUN-Pad30)_1*%
X284988000Y-12446000D03*
%TO.P,U4,31,GPIO26_ADC0*%
%TO.N,unconnected-(U4-GPIO26_ADC0-Pad31)_1*%
X284988000Y-9906000D03*
%TO.P,U4,32,GPIO27_ADC1*%
%TO.N,unconnected-(U4-GPIO27_ADC1-Pad32)_1*%
X284988000Y-7366000D03*
D13*
%TO.P,U4,33,AGND*%
%TO.N,unconnected-(U4-AGND-Pad33)*%
X284988000Y-4826000D03*
D12*
%TO.P,U4,34,GPIO28_ADC2*%
%TO.N,unconnected-(U4-GPIO28_ADC2-Pad34)*%
X284988000Y-2286000D03*
%TO.P,U4,35,ADC_VREF*%
%TO.N,unconnected-(U4-ADC_VREF-Pad35)_1*%
X284988000Y254000D03*
%TO.P,U4,36,3V3*%
%TO.N,unconnected-(U4-3V3-Pad36)_1*%
X284988000Y2794000D03*
%TO.P,U4,37,3V3_EN*%
%TO.N,unconnected-(U4-3V3_EN-Pad37)_1*%
X284988000Y5334000D03*
D13*
%TO.P,U4,38,GND*%
%TO.N,unconnected-(U4-GND-Pad38)*%
X284988000Y7874000D03*
D12*
%TO.P,U4,39,VSYS*%
%TO.N,unconnected-(U4-VSYS-Pad39)_1*%
X284988000Y10414000D03*
%TO.P,U4,40,VBUS*%
%TO.N,unconnected-(U4-VBUS-Pad40)_1*%
X284988000Y12954000D03*
%TO.P,U4,41,SWCLK*%
%TO.N,unconnected-(U4-SWCLK-Pad41)*%
X273558000Y-35076000D03*
D13*
%TO.P,U4,42,GND*%
%TO.N,unconnected-(U4-GND-Pad42)_1*%
X276098000Y-35076000D03*
D12*
%TO.P,U4,43,SWDIO*%
%TO.N,unconnected-(U4-SWDIO-Pad43)*%
X278638000Y-35076000D03*
%TD*%
D13*
%TO.P,J24,1,Pin_1*%
%TO.N,Net-(J24-Pin_1)*%
X141986000Y-112268000D03*
D12*
%TO.P,J24,2,Pin_2*%
%TO.N,Net-(J24-Pin_2)*%
X139446000Y-112268000D03*
%TO.P,J24,3,Pin_3*%
%TO.N,Net-(J24-Pin_3)*%
X136906000Y-112268000D03*
%TO.P,J24,4,Pin_4*%
%TO.N,Net-(J24-Pin_4)*%
X134366000Y-112268000D03*
%TO.P,J24,5,Pin_5*%
%TO.N,Net-(J24-Pin_5)*%
X131826000Y-112268000D03*
%TO.P,J24,6,Pin_6*%
%TO.N,Net-(J24-Pin_6)*%
X129286000Y-112268000D03*
%TO.P,J24,7,Pin_7*%
%TO.N,Net-(J24-Pin_7)*%
X126746000Y-112268000D03*
%TO.P,J24,8,Pin_8*%
%TO.N,Net-(J24-Pin_8)*%
X124206000Y-112268000D03*
%TD*%
D10*
%TO.P,DS4,1,VSS*%
%TO.N,unconnected-(DS4-VSS-Pad1)*%
X238340000Y-47246000D03*
D11*
%TO.P,DS4,2,VDD*%
%TO.N,unconnected-(DS4-VDD-Pad2)*%
X240880000Y-47246000D03*
%TO.P,DS4,3,VO*%
%TO.N,unconnected-(DS4-VO-Pad3)*%
X243420000Y-47246000D03*
%TO.P,DS4,4,RS*%
%TO.N,unconnected-(DS4-RS-Pad4)*%
X245960000Y-47246000D03*
%TO.P,DS4,5,R/~{W}*%
%TO.N,unconnected-(DS4-R{slash}~{W}-Pad5)*%
X248500000Y-47246000D03*
%TO.P,DS4,6,E*%
%TO.N,unconnected-(DS4-E-Pad6)*%
X251040000Y-47246000D03*
%TO.P,DS4,7,DB0*%
%TO.N,unconnected-(DS4-DB0-Pad7)*%
X253580000Y-47246000D03*
%TO.P,DS4,8,DB1*%
%TO.N,unconnected-(DS4-DB1-Pad8)*%
X256120000Y-47246000D03*
%TO.P,DS4,9,DB2*%
%TO.N,unconnected-(DS4-DB2-Pad9)*%
X258660000Y-47246000D03*
%TO.P,DS4,10,DB3*%
%TO.N,unconnected-(DS4-DB3-Pad10)*%
X261200000Y-47246000D03*
%TO.P,DS4,11,DB4*%
%TO.N,unconnected-(DS4-DB4-Pad11)*%
X263740000Y-47246000D03*
%TO.P,DS4,12,DB5*%
%TO.N,unconnected-(DS4-DB5-Pad12)*%
X266280000Y-47246000D03*
%TO.P,DS4,13,DB6*%
%TO.N,unconnected-(DS4-DB6-Pad13)*%
X268820000Y-47246000D03*
%TO.P,DS4,14,DB7*%
%TO.N,unconnected-(DS4-DB7-Pad14)*%
X271360000Y-47246000D03*
%TO.P,DS4,15,A_1*%
%TO.N,unconnected-(DS4-A_1-Pad15)*%
X273900000Y-47246000D03*
%TO.P,DS4,16,K_1*%
%TO.N,unconnected-(DS4-K_1-Pad16)*%
X276440000Y-47246000D03*
%TO.P,DS4,A1,A_2*%
%TO.N,unconnected-(DS4-A_2-PadA1)*%
X233340000Y-65786000D03*
%TO.P,DS4,A2,A_3*%
%TO.N,unconnected-(DS4-A_3-PadA2)*%
X307340000Y-60706000D03*
%TO.P,DS4,K1,K_2*%
%TO.N,unconnected-(DS4-K_2-PadK1)*%
X233340000Y-60706000D03*
%TO.P,DS4,K2,K_3*%
%TO.N,unconnected-(DS4-K_3-PadK2)*%
X307340000Y-65786000D03*
D14*
%TO.P,DS4,MH1,MH1*%
%TO.N,unconnected-(DS4-PadMH1)*%
X232840000Y-47746000D03*
%TO.P,DS4,MH2,MH2*%
%TO.N,unconnected-(DS4-PadMH2)*%
X307840000Y-47746000D03*
%TO.P,DS4,MH3,MH3*%
%TO.N,unconnected-(DS4-PadMH3)*%
X307840000Y-78746000D03*
%TO.P,DS4,MH4,MH4*%
%TO.N,unconnected-(DS4-PadMH4)*%
X232840000Y-78746000D03*
%TD*%
D13*
%TO.P,J16,1,Pin_1*%
%TO.N,+3.3V*%
X25400000Y-43643000D03*
D12*
%TO.P,J16,2,Pin_2*%
X27940000Y-43643000D03*
%TO.P,J16,3,Pin_3*%
X30480000Y-43643000D03*
%TO.P,J16,4,Pin_4*%
X33020000Y-43643000D03*
%TO.P,J16,5,Pin_5*%
X35560000Y-43643000D03*
%TD*%
D13*
%TO.P,J27,1,Pin_1*%
%TO.N,/c1*%
X121158000Y-3810000D03*
D12*
%TO.P,J27,2,Pin_2*%
%TO.N,/c2*%
X121158000Y-6350000D03*
%TO.P,J27,3,Pin_3*%
%TO.N,/c3*%
X121158000Y-8890000D03*
%TO.P,J27,4,Pin_4*%
%TO.N,/c4*%
X121158000Y-11430000D03*
%TO.P,J27,5,Pin_5*%
%TO.N,/c5*%
X121158000Y-13970000D03*
%TO.P,J27,6,Pin_6*%
%TO.N,/c6*%
X121158000Y-16510000D03*
%TO.P,J27,7,Pin_7*%
%TO.N,/c7*%
X121158000Y-19050000D03*
%TO.P,J27,8,Pin_8*%
%TO.N,/c8*%
X121158000Y-21590000D03*
%TO.P,J27,9,Pin_9*%
%TO.N,/c9*%
X121158000Y-24130000D03*
%TO.P,J27,10,Pin_10*%
%TO.N,/c10*%
X121158000Y-26670000D03*
%TO.P,J27,11,Pin_11*%
%TO.N,/c11*%
X121158000Y-29210000D03*
%TO.P,J27,12,Pin_12*%
%TO.N,/c12*%
X121158000Y-31750000D03*
%TO.P,J27,13,Pin_13*%
%TO.N,/c13*%
X121158000Y-34290000D03*
%TO.P,J27,14,Pin_14*%
%TO.N,/c14*%
X121158000Y-36830000D03*
%TO.P,J27,15,Pin_15*%
%TO.N,/c15*%
X121158000Y-39370000D03*
%TO.P,J27,16,Pin_16*%
%TO.N,/c16*%
X121158000Y-41910000D03*
%TO.P,J27,17,Pin_17*%
%TO.N,/c17*%
X121158000Y-44450000D03*
%TO.P,J27,18,Pin_18*%
%TO.N,/c18*%
X121158000Y-46990000D03*
%TO.P,J27,19,Pin_19*%
%TO.N,/c19*%
X121158000Y-49530000D03*
%TO.P,J27,20,Pin_20*%
%TO.N,/c20*%
X121158000Y-52070000D03*
%TD*%
D15*
%TO.P,H2,1,1*%
%TO.N,GND*%
X4572000Y-4572000D03*
D16*
X4572000Y-4572000D03*
%TD*%
D13*
%TO.P,J15,1,Pin_3*%
%TO.N,Net-(J15-Pin_3)*%
X23573000Y-83450000D03*
D12*
%TO.P,J15,2,Pin_2*%
%TO.N,Net-(J15-Pin_2)*%
X23573000Y-85990000D03*
%TO.P,J15,3,Pin_1*%
%TO.N,Net-(J15-Pin_1)*%
X23573000Y-88530000D03*
%TD*%
D13*
%TO.P,J2,1,Pin_1*%
%TO.N,GND*%
X185928000Y-27178000D03*
D12*
%TO.P,J2,2,Pin_2*%
X185928000Y-24638000D03*
%TO.P,J2,3,Pin_3*%
X185928000Y-22098000D03*
%TO.P,J2,4,Pin_4*%
X185928000Y-19558000D03*
%TO.P,J2,5,Pin_5*%
X185928000Y-17018000D03*
%TO.P,J2,6,Pin_6*%
X185928000Y-14478000D03*
%TO.P,J2,7,Pin_7*%
X185928000Y-11938000D03*
%TO.P,J2,8,Pin_8*%
X185928000Y-9398000D03*
%TO.P,J2,9,Pin_9*%
X185928000Y-6858000D03*
%TO.P,J2,10,Pin_10*%
X185928000Y-4318000D03*
%TD*%
D13*
%TO.P,J1,1,Pin_1*%
%TO.N,GND*%
X25400000Y-50038000D03*
D12*
%TO.P,J1,2,Pin_2*%
X27940000Y-50038000D03*
%TO.P,J1,3,Pin_3*%
X30480000Y-50038000D03*
%TO.P,J1,4,Pin_4*%
X33020000Y-50038000D03*
%TO.P,J1,5,Pin_5*%
X35560000Y-50038000D03*
%TD*%
D15*
%TO.P,H3,1,1*%
%TO.N,GND*%
X215900000Y-146050000D03*
D16*
X215900000Y-146050000D03*
%TD*%
D13*
%TO.P,J36,1,Pin_1*%
%TO.N,/d20*%
X138684000Y-52070000D03*
D12*
%TO.P,J36,2,Pin_2*%
%TO.N,/d19*%
X138684000Y-49530000D03*
%TO.P,J36,3,Pin_3*%
%TO.N,/d18*%
X138684000Y-46990000D03*
%TO.P,J36,4,Pin_4*%
%TO.N,/d17*%
X138684000Y-44450000D03*
%TO.P,J36,5,Pin_5*%
%TO.N,/d16*%
X138684000Y-41910000D03*
%TO.P,J36,6,Pin_6*%
%TO.N,/d15*%
X138684000Y-39370000D03*
%TO.P,J36,7,Pin_7*%
%TO.N,/d14*%
X138684000Y-36830000D03*
%TO.P,J36,8,Pin_8*%
%TO.N,/d13*%
X138684000Y-34290000D03*
%TO.P,J36,9,Pin_9*%
%TO.N,/d12*%
X138684000Y-31750000D03*
%TO.P,J36,10,Pin_10*%
%TO.N,/d11*%
X138684000Y-29210000D03*
%TO.P,J36,11,Pin_11*%
%TO.N,/d10*%
X138684000Y-26670000D03*
%TO.P,J36,12,Pin_12*%
%TO.N,/d9*%
X138684000Y-24130000D03*
%TO.P,J36,13,Pin_13*%
%TO.N,/d8*%
X138684000Y-21590000D03*
%TO.P,J36,14,Pin_14*%
%TO.N,/d7*%
X138684000Y-19050000D03*
%TO.P,J36,15,Pin_15*%
%TO.N,/d6*%
X138684000Y-16510000D03*
%TO.P,J36,16,Pin_16*%
%TO.N,/d5*%
X138684000Y-13970000D03*
%TO.P,J36,17,Pin_17*%
%TO.N,/d4*%
X138684000Y-11430000D03*
%TO.P,J36,18,Pin_18*%
%TO.N,/d3*%
X138684000Y-8890000D03*
%TO.P,J36,19,Pin_19*%
%TO.N,VSYS*%
X138684000Y-6350000D03*
%TO.P,J36,20,Pin_20*%
%TO.N,/d1*%
X138684000Y-3810000D03*
%TD*%
D17*
%TO.P,IC6,1,VDD*%
%TO.N,Net-(IC6-VDD)*%
X193104000Y-35306000D03*
D18*
%TO.P,IC6,2,~{CS}*%
%TO.N,Net-(IC6-~{CS})*%
X193104000Y-37846000D03*
%TO.P,IC6,3,SCK*%
%TO.N,Net-(IC6-SCK)*%
X193104000Y-40386000D03*
%TO.P,IC6,4,SDI*%
%TO.N,Net-(IC6-SDI)*%
X193104000Y-42926000D03*
%TO.P,IC6,5,~{LDAC}*%
%TO.N,Net-(IC6-~{LDAC})*%
X200914000Y-42926000D03*
%TO.P,IC6,6,VREF*%
%TO.N,Net-(IC6-VREF)*%
X200914000Y-40386000D03*
%TO.P,IC6,7,VSS*%
%TO.N,Net-(IC6-VSS)*%
X200914000Y-37846000D03*
%TO.P,IC6,8,VOUT*%
%TO.N,Net-(IC6-VOUT)*%
X200914000Y-35306000D03*
%TD*%
D13*
%TO.P,J42,1,Pin_1*%
%TO.N,+5V*%
X87376000Y-4318000D03*
%TD*%
%TO.P,J18,1,Pin_1*%
%TO.N,/a1*%
X45466000Y-4318000D03*
D12*
%TO.P,J18,2,Pin_2*%
X48006000Y-4318000D03*
%TO.P,J18,3,Pin_3*%
%TO.N,/a2*%
X45466000Y-6858000D03*
%TO.P,J18,4,Pin_4*%
X48006000Y-6858000D03*
%TO.P,J18,5,Pin_5*%
%TO.N,/a3*%
X45466000Y-9398000D03*
%TO.P,J18,6,Pin_6*%
X48006000Y-9398000D03*
%TO.P,J18,7,Pin_7*%
%TO.N,/a4*%
X45466000Y-11938000D03*
%TO.P,J18,8,Pin_8*%
X48006000Y-11938000D03*
%TO.P,J18,9,Pin_9*%
%TO.N,/a5*%
X45466000Y-14478000D03*
%TO.P,J18,10,Pin_10*%
X48006000Y-14478000D03*
%TO.P,J18,11,Pin_11*%
%TO.N,/a6*%
X45466000Y-17018000D03*
%TO.P,J18,12,Pin_12*%
X48006000Y-17018000D03*
%TO.P,J18,13,Pin_13*%
%TO.N,/a7*%
X45466000Y-19558000D03*
%TO.P,J18,14,Pin_14*%
X48006000Y-19558000D03*
%TO.P,J18,15,Pin_15*%
%TO.N,/a8*%
X45466000Y-22098000D03*
%TO.P,J18,16,Pin_16*%
X48006000Y-22098000D03*
%TO.P,J18,17,Pin_17*%
%TO.N,/a9*%
X45466000Y-24638000D03*
%TO.P,J18,18,Pin_18*%
X48006000Y-24638000D03*
%TO.P,J18,19,Pin_19*%
%TO.N,/a10*%
X45466000Y-27178000D03*
%TO.P,J18,20,Pin_20*%
X48006000Y-27178000D03*
%TO.P,J18,21,Pin_21*%
%TO.N,/a11*%
X45466000Y-29718000D03*
%TO.P,J18,22,Pin_22*%
X48006000Y-29718000D03*
%TO.P,J18,23,Pin_23*%
%TO.N,/a12*%
X45466000Y-32258000D03*
%TO.P,J18,24,Pin_24*%
X48006000Y-32258000D03*
%TO.P,J18,25,Pin_25*%
%TO.N,/a13*%
X45466000Y-34798000D03*
%TO.P,J18,26,Pin_26*%
X48006000Y-34798000D03*
%TO.P,J18,27,Pin_27*%
%TO.N,/a14*%
X45466000Y-37338000D03*
%TO.P,J18,28,Pin_28*%
X48006000Y-37338000D03*
%TO.P,J18,29,Pin_29*%
%TO.N,/a15*%
X45466000Y-39878000D03*
%TO.P,J18,30,Pin_30*%
X48006000Y-39878000D03*
%TO.P,J18,31,Pin_31*%
%TO.N,/a16*%
X45466000Y-42418000D03*
%TO.P,J18,32,Pin_32*%
X48006000Y-42418000D03*
%TO.P,J18,33,Pin_33*%
%TO.N,/a17*%
X45466000Y-44958000D03*
%TO.P,J18,34,Pin_34*%
X48006000Y-44958000D03*
%TO.P,J18,35,Pin_35*%
%TO.N,/a18*%
X45466000Y-47498000D03*
%TO.P,J18,36,Pin_36*%
X48006000Y-47498000D03*
%TO.P,J18,37,Pin_37*%
%TO.N,/a19*%
X45466000Y-50038000D03*
%TO.P,J18,38,Pin_38*%
X48006000Y-50038000D03*
%TO.P,J18,39,Pin_39*%
%TO.N,/a20*%
X45466000Y-52578000D03*
%TO.P,J18,40,Pin_40*%
X48006000Y-52578000D03*
%TD*%
D13*
%TO.P,J6,1,Pin_1*%
%TO.N,Net-(IC2-SDA)*%
X103124000Y-40640000D03*
D12*
%TO.P,J6,2,Pin_2*%
%TO.N,Net-(IC2-SCL)*%
X100584000Y-40640000D03*
%TD*%
D13*
%TO.P,J5,1,Pin_1*%
%TO.N,Net-(J5-Pin_1)*%
X16510000Y-35560000D03*
D12*
%TO.P,J5,2,Pin_2*%
%TO.N,Net-(J5-Pin_2)*%
X16510000Y-38100000D03*
%TO.P,J5,3,Pin_3*%
%TO.N,Net-(J5-Pin_3)*%
X16510000Y-40640000D03*
%TO.P,J5,4,Pin_4*%
%TO.N,Net-(J5-Pin_4)*%
X16510000Y-43180000D03*
%TO.P,J5,5,Pin_5*%
%TO.N,Net-(J5-Pin_5)*%
X16510000Y-45720000D03*
%TO.P,J5,6,Pin_6*%
%TO.N,Net-(J5-Pin_6)*%
X16510000Y-48260000D03*
%TO.P,J5,7,Pin_7*%
%TO.N,Net-(J5-Pin_7)*%
X16510000Y-50800000D03*
%TO.P,J5,8,Pin_8*%
%TO.N,Net-(J5-Pin_8)*%
X16510000Y-53340000D03*
%TD*%
D13*
%TO.P,J17,1,Pin_1*%
%TO.N,VSYS*%
X25407000Y-36785000D03*
D12*
%TO.P,J17,2,Pin_2*%
X27947000Y-36785000D03*
%TO.P,J17,3,Pin_3*%
X30487000Y-36785000D03*
%TO.P,J17,4,Pin_4*%
X33027000Y-36785000D03*
%TO.P,J17,5,Pin_5*%
X35567000Y-36785000D03*
%TD*%
D13*
%TO.P,J8,1,Pin_1*%
%TO.N,Net-(IC6-VOUT)*%
X203962000Y-35306000D03*
D12*
%TO.P,J8,2,Pin_2*%
%TO.N,Net-(IC6-VSS)*%
X203962000Y-37846000D03*
%TO.P,J8,3,Pin_3*%
%TO.N,Net-(IC6-VREF)*%
X203962000Y-40386000D03*
%TO.P,J8,4,Pin_4*%
%TO.N,Net-(IC6-~{LDAC})*%
X203962000Y-42926000D03*
%TD*%
D13*
%TO.P,J28,1,Pin_1*%
%TO.N,Net-(IC6-SDI)*%
X190087000Y-42926000D03*
D12*
%TO.P,J28,2,Pin_2*%
%TO.N,Net-(IC6-SCK)*%
X190087000Y-40386000D03*
%TO.P,J28,3,Pin_3*%
%TO.N,Net-(IC6-~{CS})*%
X190087000Y-37846000D03*
%TO.P,J28,4,Pin_4*%
%TO.N,Net-(IC6-VDD)*%
X190087000Y-35306000D03*
%TD*%
D19*
%TO.P,S3,1,1*%
%TO.N,Net-(J5-Pin_1)*%
X10160000Y-20356000D03*
X3660000Y-20356000D03*
%TO.P,S3,2,2*%
%TO.N,GND*%
X10160000Y-15856000D03*
X3660000Y-15856000D03*
%TD*%
D13*
%TO.P,J7,1,Pin_1*%
%TO.N,GND*%
X79340000Y-68828000D03*
D12*
%TO.P,J7,2,Pin_2*%
%TO.N,+3.3V*%
X81880000Y-68828000D03*
%TO.P,J7,3,Pin_3*%
%TO.N,Net-(J7-Pin_3)*%
X84420000Y-68828000D03*
%TO.P,J7,4,Pin_4*%
%TO.N,/Wy\u015Bwietlacz LCD/RS*%
X86960000Y-68828000D03*
%TO.P,J7,5,Pin_5*%
%TO.N,/Wy\u015Bwietlacz LCD/R{slash}W*%
X89500000Y-68828000D03*
%TO.P,J7,6,Pin_6*%
%TO.N,/Wy\u015Bwietlacz LCD/E*%
X92040000Y-68828000D03*
%TO.P,J7,7,Pin_7*%
%TO.N,/Wy\u015Bwietlacz LCD/D0*%
X94580000Y-68828000D03*
%TO.P,J7,8,Pin_8*%
%TO.N,/Wy\u015Bwietlacz LCD/D1*%
X97120000Y-68828000D03*
%TO.P,J7,9,Pin_9*%
%TO.N,/Wy\u015Bwietlacz LCD/D2*%
X99660000Y-68828000D03*
%TO.P,J7,10,Pin_10*%
%TO.N,/Wy\u015Bwietlacz LCD/D3*%
X102200000Y-68828000D03*
%TO.P,J7,11,Pin_11*%
%TO.N,/Wy\u015Bwietlacz LCD/D4*%
X104740000Y-68828000D03*
%TO.P,J7,12,Pin_12*%
%TO.N,/Wy\u015Bwietlacz LCD/D5*%
X107280000Y-68828000D03*
%TO.P,J7,13,Pin_13*%
%TO.N,/Wy\u015Bwietlacz LCD/D6*%
X109820000Y-68828000D03*
%TO.P,J7,14,Pin_14*%
%TO.N,/Wy\u015Bwietlacz LCD/D7*%
X112360000Y-68828000D03*
%TO.P,J7,15,Pin_15*%
%TO.N,Net-(J7-Pin_15)*%
X114900000Y-68828000D03*
%TO.P,J7,16,Pin_16*%
%TO.N,+3.3V*%
X117440000Y-68828000D03*
%TD*%
D13*
%TO.P,J4,1,Pin_1*%
%TO.N,Net-(IC5-VDD{slash}VREF)*%
X158836000Y-42926000D03*
D12*
%TO.P,J4,2,Pin_2*%
%TO.N,Net-(IC5-CLK)*%
X158836000Y-40386000D03*
%TO.P,J4,3,Pin_3*%
%TO.N,Net-(IC5-DOUT)*%
X158836000Y-37846000D03*
%TO.P,J4,4,Pin_4*%
%TO.N,Net-(IC5-DIN)*%
X158836000Y-35306000D03*
%TD*%
D13*
%TO.P,J41,1,Pin_1*%
%TO.N,Net-(D5-A)*%
X151638000Y-13946000D03*
%TD*%
D20*
%TO.P,S11,1,A*%
%TO.N,unconnected-(S11-A-Pad1)*%
X94702000Y-21846000D03*
D21*
%TO.P,S11,2,B*%
%TO.N,/b4*%
X92202000Y-25046000D03*
%TO.P,S11,3,C*%
%TO.N,GND*%
X89702000Y-21846000D03*
%TD*%
D13*
%TO.P,J46,1,Pin_1*%
%TO.N,GND*%
X151638000Y-8890000D03*
%TD*%
D20*
%TO.P,S14,1,A*%
%TO.N,unconnected-(S14-A-Pad1)*%
X158964000Y-21336000D03*
D21*
%TO.P,S14,2,B*%
%TO.N,/d4*%
X156464000Y-24536000D03*
%TO.P,S14,3,C*%
%TO.N,GND*%
X153964000Y-21336000D03*
%TD*%
D13*
%TO.P,J32,1,Pin_1*%
%TO.N,/Port USB/C3*%
X35560000Y-19812000D03*
D12*
%TO.P,J32,2,Pin_2*%
%TO.N,/Port USB/C4*%
X38100000Y-19812000D03*
%TO.P,J32,3,Pin_3*%
%TO.N,/Port USB/CTS*%
X35560000Y-22352000D03*
%TO.P,J32,4,Pin_4*%
%TO.N,/Port USB/DCD*%
X38100000Y-22352000D03*
%TO.P,J32,5,Pin_5*%
%TO.N,/Port USB/DSR*%
X35560000Y-24892000D03*
%TO.P,J32,6,Pin_6*%
%TO.N,/Port USB/RI*%
X38100000Y-24892000D03*
%TO.P,J32,7,Pin_7*%
%TO.N,/Port USB/RXD*%
X35560000Y-27432000D03*
%TO.P,J32,8,Pin_8*%
%TO.N,/Port USB/RTS*%
X38100000Y-27432000D03*
%TO.P,J32,9,Pin_9*%
%TO.N,/Port USB/DTR*%
X35560000Y-29972000D03*
%TO.P,J32,10,Pin_10*%
%TO.N,/Port USB/TXD*%
X38100000Y-29972000D03*
%TD*%
D13*
%TO.P,J14,1,Pin_1*%
%TO.N,/Gniazdo kart micro SD/m1*%
X194818000Y-23622000D03*
D12*
%TO.P,J14,2,Pin_2*%
%TO.N,/Gniazdo kart micro SD/m2*%
X197358000Y-23622000D03*
%TO.P,J14,3,Pin_3*%
%TO.N,/Gniazdo kart micro SD/m3*%
X199898000Y-23622000D03*
%TO.P,J14,4,Pin_4*%
%TO.N,/Gniazdo kart micro SD/m4*%
X202438000Y-23622000D03*
%TO.P,J14,5,Pin_5*%
%TO.N,/Gniazdo kart micro SD/m5*%
X204978000Y-23622000D03*
%TO.P,J14,6,Pin_6*%
%TO.N,/Gniazdo kart micro SD/m6*%
X207518000Y-23622000D03*
%TO.P,J14,7,Pin_7*%
%TO.N,/Gniazdo kart micro SD/m7*%
X210058000Y-23622000D03*
%TD*%
D19*
%TO.P,S12,1,1*%
%TO.N,/d11*%
X161834000Y-12648000D03*
X161834000Y-6148000D03*
%TO.P,S12,2,2*%
%TO.N,GND*%
X166334000Y-12648000D03*
X166334000Y-6148000D03*
%TD*%
D22*
%TO.P,Y2,1,1*%
%TO.N,Net-(IC1-OSCI)*%
X93756000Y-49930000D03*
%TO.P,Y2,2,2*%
%TO.N,Net-(IC1-OSCO)*%
X91216000Y-49930000D03*
%TD*%
D13*
%TO.P,J40,1,Pin_1*%
%TO.N,Net-(D4-A)*%
X87376000Y-14478000D03*
%TD*%
D19*
%TO.P,S6,1,1*%
%TO.N,Net-(J5-Pin_4)*%
X10160000Y-44668000D03*
X3660000Y-44668000D03*
%TO.P,S6,2,2*%
%TO.N,GND*%
X10160000Y-40168000D03*
X3660000Y-40168000D03*
%TD*%
D10*
%TO.P,LS1,1,+*%
%TO.N,+3.3V*%
X39116000Y-60745000D03*
D23*
%TO.P,LS1,2,-*%
%TO.N,Net-(LS1--)*%
X39116000Y-65745000D03*
%TD*%
D20*
%TO.P,S13,1,A*%
%TO.N,unconnected-(S13-A-Pad1)*%
X11510000Y-8636000D03*
D21*
%TO.P,S13,2,B*%
%TO.N,Net-(S13-B)*%
X14010000Y-5436000D03*
%TO.P,S13,3,C*%
%TO.N,Net-(D2-A)*%
X16510000Y-8636000D03*
%TD*%
D24*
%TO.P,J34,S1,SHIELD*%
%TO.N,GND*%
X30156000Y-9567000D03*
D25*
X30156000Y-5387000D03*
D24*
X21516000Y-9567000D03*
D25*
X21516000Y-5387000D03*
%TD*%
D19*
%TO.P,S4,1,1*%
%TO.N,Net-(J5-Pin_2)*%
X10160000Y-28412000D03*
X3660000Y-28412000D03*
%TO.P,S4,2,2*%
%TO.N,GND*%
X10160000Y-23912000D03*
X3660000Y-23912000D03*
%TD*%
D15*
%TO.P,H4,1,1*%
%TO.N,GND*%
X3810000Y-146050000D03*
D16*
X3810000Y-146050000D03*
%TD*%
D13*
%TO.P,J30,1,Pin_1*%
%TO.N,+3.3V*%
X179324000Y-27178000D03*
D12*
%TO.P,J30,2,Pin_2*%
X179324000Y-24638000D03*
%TO.P,J30,3,Pin_3*%
X179324000Y-22098000D03*
%TO.P,J30,4,Pin_4*%
X179324000Y-19558000D03*
%TO.P,J30,5,Pin_5*%
X179324000Y-17018000D03*
%TO.P,J30,6,Pin_6*%
X179324000Y-14478000D03*
%TO.P,J30,7,Pin_7*%
X179324000Y-11938000D03*
%TO.P,J30,8,Pin_8*%
X179324000Y-9398000D03*
%TO.P,J30,9,Pin_9*%
X179324000Y-6858000D03*
%TO.P,J30,10,Pin_10*%
X179324000Y-4318000D03*
%TD*%
D19*
%TO.P,S9,1,1*%
%TO.N,Net-(J5-Pin_7)*%
X10160000Y-69052000D03*
X3660000Y-69052000D03*
%TO.P,S9,2,2*%
%TO.N,GND*%
X10160000Y-64552000D03*
X3660000Y-64552000D03*
%TD*%
D13*
%TO.P,J31,1,Pin_1*%
%TO.N,VSYS*%
X172974000Y-27178000D03*
D12*
%TO.P,J31,2,Pin_2*%
X172974000Y-24638000D03*
%TO.P,J31,3,Pin_3*%
X172974000Y-22098000D03*
%TO.P,J31,4,Pin_4*%
X172974000Y-19558000D03*
%TO.P,J31,5,Pin_5*%
X172974000Y-17018000D03*
%TO.P,J31,6,Pin_6*%
X172974000Y-14478000D03*
%TO.P,J31,7,Pin_7*%
X172974000Y-11938000D03*
%TO.P,J31,8,Pin_8*%
X172974000Y-9398000D03*
%TO.P,J31,9,Pin_9*%
X172974000Y-6858000D03*
%TO.P,J31,10,Pin_10*%
X172974000Y-4318000D03*
%TD*%
D13*
%TO.P,J44,1,Pin_1*%
%TO.N,+5V*%
X151638000Y-3810000D03*
%TD*%
D12*
%TO.P,U1,1,GPIO0*%
%TO.N,unconnected-(U1-GPIO0-Pad1)*%
X233934000Y12700000D03*
%TO.P,U1,2,GPIO1*%
%TO.N,unconnected-(U1-GPIO1-Pad2)_1*%
X233934000Y10160000D03*
D13*
%TO.P,U1,3,GND*%
%TO.N,unconnected-(U1-GND-Pad3)_1*%
X233934000Y7620000D03*
D12*
%TO.P,U1,4,GPIO2*%
%TO.N,unconnected-(U1-GPIO2-Pad4)*%
X233934000Y5080000D03*
%TO.P,U1,5,GPIO3*%
%TO.N,unconnected-(U1-GPIO3-Pad5)*%
X233934000Y2540000D03*
%TO.P,U1,6,GPIO4*%
%TO.N,unconnected-(U1-GPIO4-Pad6)*%
X233934000Y0D03*
%TO.P,U1,7,GPIO5*%
%TO.N,unconnected-(U1-GPIO5-Pad7)*%
X233934000Y-2540000D03*
D13*
%TO.P,U1,8,GND*%
%TO.N,unconnected-(U1-GND-Pad8)*%
X233934000Y-5080000D03*
D12*
%TO.P,U1,9,GPIO6*%
%TO.N,unconnected-(U1-GPIO6-Pad9)_1*%
X233934000Y-7620000D03*
%TO.P,U1,10,GPIO7*%
%TO.N,unconnected-(U1-GPIO7-Pad10)*%
X233934000Y-10160000D03*
%TO.P,U1,11,GPIO8*%
%TO.N,unconnected-(U1-GPIO8-Pad11)*%
X233934000Y-12700000D03*
%TO.P,U1,12,GPIO9*%
%TO.N,unconnected-(U1-GPIO9-Pad12)_1*%
X233934000Y-15240000D03*
D13*
%TO.P,U1,13,GND*%
%TO.N,unconnected-(U1-GND-Pad13)*%
X233934000Y-17780000D03*
D12*
%TO.P,U1,14,GPIO10*%
%TO.N,unconnected-(U1-GPIO10-Pad14)_1*%
X233934000Y-20320000D03*
%TO.P,U1,15,GPIO11*%
%TO.N,unconnected-(U1-GPIO11-Pad15)*%
X233934000Y-22860000D03*
%TO.P,U1,16,GPIO12*%
%TO.N,unconnected-(U1-GPIO12-Pad16)_1*%
X233934000Y-25400000D03*
%TO.P,U1,17,GPIO13*%
%TO.N,unconnected-(U1-GPIO13-Pad17)*%
X233934000Y-27940000D03*
D13*
%TO.P,U1,18,GND*%
%TO.N,unconnected-(U1-GND-Pad18)*%
X233934000Y-30480000D03*
D12*
%TO.P,U1,19,GPIO14*%
%TO.N,unconnected-(U1-GPIO14-Pad19)_1*%
X233934000Y-33020000D03*
%TO.P,U1,20,GPIO15*%
%TO.N,unconnected-(U1-GPIO15-Pad20)_1*%
X233934000Y-35560000D03*
%TO.P,U1,21,GPIO16*%
%TO.N,unconnected-(U1-GPIO16-Pad21)_1*%
X251714000Y-35560000D03*
%TO.P,U1,22,GPIO17*%
%TO.N,unconnected-(U1-GPIO17-Pad22)_1*%
X251714000Y-33020000D03*
D13*
%TO.P,U1,23,GND*%
%TO.N,unconnected-(U1-GND-Pad23)_1*%
X251714000Y-30480000D03*
D12*
%TO.P,U1,24,GPIO18*%
%TO.N,unconnected-(U1-GPIO18-Pad24)_1*%
X251714000Y-27940000D03*
%TO.P,U1,25,GPIO19*%
%TO.N,unconnected-(U1-GPIO19-Pad25)_1*%
X251714000Y-25400000D03*
%TO.P,U1,26,GPIO20*%
%TO.N,unconnected-(U1-GPIO20-Pad26)*%
X251714000Y-22860000D03*
%TO.P,U1,27,GPIO21*%
%TO.N,unconnected-(U1-GPIO21-Pad27)_1*%
X251714000Y-20320000D03*
D13*
%TO.P,U1,28,GND*%
%TO.N,unconnected-(U1-GND-Pad28)*%
X251714000Y-17780000D03*
D12*
%TO.P,U1,29,GPIO22*%
%TO.N,unconnected-(U1-GPIO22-Pad29)_1*%
X251714000Y-15240000D03*
%TO.P,U1,30,RUN*%
%TO.N,unconnected-(U1-RUN-Pad30)_1*%
X251714000Y-12700000D03*
%TO.P,U1,31,GPIO26_ADC0*%
%TO.N,unconnected-(U1-GPIO26_ADC0-Pad31)*%
X251714000Y-10160000D03*
%TO.P,U1,32,GPIO27_ADC1*%
%TO.N,unconnected-(U1-GPIO27_ADC1-Pad32)*%
X251714000Y-7620000D03*
D13*
%TO.P,U1,33,AGND*%
%TO.N,unconnected-(U1-AGND-Pad33)_1*%
X251714000Y-5080000D03*
D12*
%TO.P,U1,34,GPIO28_ADC2*%
%TO.N,unconnected-(U1-GPIO28_ADC2-Pad34)_1*%
X251714000Y-2540000D03*
%TO.P,U1,35,ADC_VREF*%
%TO.N,unconnected-(U1-ADC_VREF-Pad35)*%
X251714000Y0D03*
%TO.P,U1,36,3V3*%
%TO.N,unconnected-(U1-3V3-Pad36)*%
X251714000Y2540000D03*
%TO.P,U1,37,3V3_EN*%
%TO.N,unconnected-(U1-3V3_EN-Pad37)*%
X251714000Y5080000D03*
D13*
%TO.P,U1,38,GND*%
%TO.N,unconnected-(U1-GND-Pad38)*%
X251714000Y7620000D03*
D12*
%TO.P,U1,39,VSYS*%
%TO.N,unconnected-(U1-VSYS-Pad39)_1*%
X251714000Y10160000D03*
%TO.P,U1,40,VBUS*%
%TO.N,unconnected-(U1-VBUS-Pad40)*%
X251714000Y12700000D03*
%TO.P,U1,41,SWCLK*%
%TO.N,unconnected-(U1-SWCLK-Pad41)*%
X240284000Y-35330000D03*
D13*
%TO.P,U1,42,GND*%
%TO.N,unconnected-(U1-GND-Pad42)*%
X242824000Y-35330000D03*
D12*
%TO.P,U1,43,SWDIO*%
%TO.N,unconnected-(U1-SWDIO-Pad43)*%
X245364000Y-35330000D03*
%TD*%
D19*
%TO.P,S8,1,1*%
%TO.N,Net-(J5-Pin_6)*%
X10160000Y-60924000D03*
X3660000Y-60924000D03*
%TO.P,S8,2,2*%
%TO.N,GND*%
X10160000Y-56424000D03*
X3660000Y-56424000D03*
%TD*%
D26*
%TO.P,DS2,1,1*%
%TO.N,/Wy\u015Bwietlacz segmentowy/e*%
X117602000Y-145288000D03*
D27*
%TO.P,DS2,2,2*%
%TO.N,/Wy\u015Bwietlacz segmentowy/d*%
X120142000Y-145288000D03*
%TO.P,DS2,3,3*%
%TO.N,/Wy\u015Bwietlacz segmentowy/DP*%
X122682000Y-145288000D03*
%TO.P,DS2,4,4*%
%TO.N,/Wy\u015Bwietlacz segmentowy/c*%
X125222000Y-145288000D03*
%TO.P,DS2,5,5*%
%TO.N,/Wy\u015Bwietlacz segmentowy/g*%
X127762000Y-145288000D03*
%TO.P,DS2,6,6*%
%TO.N,/Wy\u015Bwietlacz segmentowy/DIG4*%
X130302000Y-145288000D03*
%TO.P,DS2,7,7*%
%TO.N,/Wy\u015Bwietlacz segmentowy/b*%
X130302000Y-130048000D03*
%TO.P,DS2,8,8*%
%TO.N,/Wy\u015Bwietlacz segmentowy/DIG3*%
X127762000Y-130048000D03*
%TO.P,DS2,9,9*%
%TO.N,/Wy\u015Bwietlacz segmentowy/DIG2*%
X125222000Y-130048000D03*
%TO.P,DS2,10,10*%
%TO.N,/Wy\u015Bwietlacz segmentowy/f*%
X122682000Y-130048000D03*
%TO.P,DS2,11,11*%
%TO.N,/Wy\u015Bwietlacz segmentowy/a*%
X120142000Y-130048000D03*
%TO.P,DS2,12,12*%
%TO.N,/Wy\u015Bwietlacz segmentowy/DIG1*%
X117602000Y-130048000D03*
%TD*%
D13*
%TO.P,J3,1,Pin_1*%
%TO.N,Net-(DS1-SDO)*%
X98343000Y-111652000D03*
D12*
%TO.P,J3,2,Pin_2*%
%TO.N,Net-(DS1-SDA)*%
X98343000Y-114192000D03*
%TO.P,J3,3,Pin_3*%
%TO.N,Net-(DS1-~{CSX})*%
X98343000Y-116732000D03*
%TO.P,J3,4,Pin_4*%
%TO.N,Net-(DS1-D{slash}C)*%
X98343000Y-119272000D03*
%TO.P,J3,5,Pin_5*%
%TO.N,Net-(DS1-SCL)*%
X98343000Y-121812000D03*
%TO.P,J3,6,Pin_6*%
%TO.N,Net-(DS1-~{RESET})*%
X98343000Y-124352000D03*
%TD*%
D13*
%TO.P,J21,1,Pin_1*%
%TO.N,/c1*%
X110998000Y-3810000D03*
D12*
%TO.P,J21,2,Pin_2*%
X113538000Y-3810000D03*
%TO.P,J21,3,Pin_3*%
%TO.N,/c2*%
X110998000Y-6350000D03*
%TO.P,J21,4,Pin_4*%
X113538000Y-6350000D03*
%TO.P,J21,5,Pin_5*%
%TO.N,/c3*%
X110998000Y-8890000D03*
%TO.P,J21,6,Pin_6*%
X113538000Y-8890000D03*
%TO.P,J21,7,Pin_7*%
%TO.N,/c4*%
X110998000Y-11430000D03*
%TO.P,J21,8,Pin_8*%
X113538000Y-11430000D03*
%TO.P,J21,9,Pin_9*%
%TO.N,/c5*%
X110998000Y-13970000D03*
%TO.P,J21,10,Pin_10*%
X113538000Y-13970000D03*
%TO.P,J21,11,Pin_11*%
%TO.N,/c6*%
X110998000Y-16510000D03*
%TO.P,J21,12,Pin_12*%
X113538000Y-16510000D03*
%TO.P,J21,13,Pin_13*%
%TO.N,/c7*%
X110998000Y-19050000D03*
%TO.P,J21,14,Pin_14*%
X113538000Y-19050000D03*
%TO.P,J21,15,Pin_15*%
%TO.N,/c8*%
X110998000Y-21590000D03*
%TO.P,J21,16,Pin_16*%
X113538000Y-21590000D03*
%TO.P,J21,17,Pin_17*%
%TO.N,/c9*%
X110998000Y-24130000D03*
%TO.P,J21,18,Pin_18*%
X113538000Y-24130000D03*
%TO.P,J21,19,Pin_19*%
%TO.N,/c10*%
X110998000Y-26670000D03*
%TO.P,J21,20,Pin_20*%
X113538000Y-26670000D03*
%TO.P,J21,21,Pin_21*%
%TO.N,/c11*%
X110998000Y-29210000D03*
%TO.P,J21,22,Pin_22*%
X113538000Y-29210000D03*
%TO.P,J21,23,Pin_23*%
%TO.N,/c12*%
X110998000Y-31750000D03*
%TO.P,J21,24,Pin_24*%
X113538000Y-31750000D03*
%TO.P,J21,25,Pin_25*%
%TO.N,/c13*%
X110998000Y-34290000D03*
%TO.P,J21,26,Pin_26*%
X113538000Y-34290000D03*
%TO.P,J21,27,Pin_27*%
%TO.N,/c14*%
X110998000Y-36830000D03*
%TO.P,J21,28,Pin_28*%
X113538000Y-36830000D03*
%TO.P,J21,29,Pin_29*%
%TO.N,/c15*%
X110998000Y-39370000D03*
%TO.P,J21,30,Pin_30*%
X113538000Y-39370000D03*
%TO.P,J21,31,Pin_31*%
%TO.N,/c16*%
X110998000Y-41910000D03*
%TO.P,J21,32,Pin_32*%
X113538000Y-41910000D03*
%TO.P,J21,33,Pin_33*%
%TO.N,/c17*%
X110998000Y-44450000D03*
%TO.P,J21,34,Pin_34*%
X113538000Y-44450000D03*
%TO.P,J21,35,Pin_35*%
%TO.N,/c18*%
X110998000Y-46990000D03*
%TO.P,J21,36,Pin_36*%
X113538000Y-46990000D03*
%TO.P,J21,37,Pin_37*%
%TO.N,/c19*%
X110998000Y-49530000D03*
%TO.P,J21,38,Pin_38*%
X113538000Y-49530000D03*
%TO.P,J21,39,Pin_39*%
%TO.N,/c20*%
X110998000Y-52070000D03*
%TO.P,J21,40,Pin_40*%
X113538000Y-52070000D03*
%TD*%
D13*
%TO.P,J25,1,Pin_1*%
%TO.N,Net-(J25-Pin_1)*%
X108082000Y-112268000D03*
D12*
%TO.P,J25,2,Pin_2*%
%TO.N,Net-(J25-Pin_2)*%
X110622000Y-112268000D03*
%TO.P,J25,3,Pin_3*%
%TO.N,Net-(J25-Pin_3)*%
X113162000Y-112268000D03*
%TO.P,J25,4,Pin_4*%
%TO.N,Net-(J25-Pin_4)*%
X115702000Y-112268000D03*
%TD*%
D13*
%TO.P,J22,1,Pin_1*%
%TO.N,/d1*%
X146558000Y-3810000D03*
D12*
%TO.P,J22,2,Pin_2*%
X149098000Y-3810000D03*
%TO.P,J22,3,Pin_3*%
%TO.N,VSYS*%
X146558000Y-6350000D03*
%TO.P,J22,4,Pin_4*%
X149098000Y-6350000D03*
%TO.P,J22,5,Pin_5*%
%TO.N,/d3*%
X146558000Y-8890000D03*
%TO.P,J22,6,Pin_6*%
X149098000Y-8890000D03*
%TO.P,J22,7,Pin_7*%
%TO.N,/d4*%
X146558000Y-11430000D03*
%TO.P,J22,8,Pin_8*%
X149098000Y-11430000D03*
%TO.P,J22,9,Pin_9*%
%TO.N,/d5*%
X146558000Y-13970000D03*
%TO.P,J22,10,Pin_10*%
X149098000Y-13970000D03*
%TO.P,J22,11,Pin_11*%
%TO.N,/d6*%
X146558000Y-16510000D03*
%TO.P,J22,12,Pin_12*%
X149098000Y-16510000D03*
%TO.P,J22,13,Pin_13*%
%TO.N,/d7*%
X146558000Y-19050000D03*
%TO.P,J22,14,Pin_14*%
X149098000Y-19050000D03*
%TO.P,J22,15,Pin_15*%
%TO.N,/d8*%
X146558000Y-21590000D03*
%TO.P,J22,16,Pin_16*%
X149098000Y-21590000D03*
%TO.P,J22,17,Pin_17*%
%TO.N,/d9*%
X146558000Y-24130000D03*
%TO.P,J22,18,Pin_18*%
X149098000Y-24130000D03*
%TO.P,J22,19,Pin_19*%
%TO.N,/d10*%
X146558000Y-26670000D03*
%TO.P,J22,20,Pin_20*%
X149098000Y-26670000D03*
%TO.P,J22,21,Pin_21*%
%TO.N,/d11*%
X146558000Y-29210000D03*
%TO.P,J22,22,Pin_22*%
X149098000Y-29210000D03*
%TO.P,J22,23,Pin_23*%
%TO.N,/d12*%
X146558000Y-31750000D03*
%TO.P,J22,24,Pin_24*%
X149098000Y-31750000D03*
%TO.P,J22,25,Pin_25*%
%TO.N,/d13*%
X146558000Y-34290000D03*
%TO.P,J22,26,Pin_26*%
X149098000Y-34290000D03*
%TO.P,J22,27,Pin_27*%
%TO.N,/d14*%
X146558000Y-36830000D03*
%TO.P,J22,28,Pin_28*%
X149098000Y-36830000D03*
%TO.P,J22,29,Pin_29*%
%TO.N,/d15*%
X146558000Y-39370000D03*
%TO.P,J22,30,Pin_30*%
X149098000Y-39370000D03*
%TO.P,J22,31,Pin_31*%
%TO.N,/d16*%
X146558000Y-41910000D03*
%TO.P,J22,32,Pin_32*%
X149098000Y-41910000D03*
%TO.P,J22,33,Pin_33*%
%TO.N,/d17*%
X146558000Y-44450000D03*
%TO.P,J22,34,Pin_34*%
X149098000Y-44450000D03*
%TO.P,J22,35,Pin_35*%
%TO.N,/d18*%
X146558000Y-46990000D03*
%TO.P,J22,36,Pin_36*%
X149098000Y-46990000D03*
%TO.P,J22,37,Pin_37*%
%TO.N,/d19*%
X146558000Y-49530000D03*
%TO.P,J22,38,Pin_38*%
X149098000Y-49530000D03*
%TO.P,J22,39,Pin_39*%
%TO.N,/d20*%
X146558000Y-52070000D03*
%TO.P,J22,40,Pin_40*%
X149098000Y-52070000D03*
%TD*%
D13*
%TO.P,J37,1,Pin_1*%
%TO.N,/b20*%
X72644000Y-52578000D03*
D12*
%TO.P,J37,2,Pin_2*%
%TO.N,/b19*%
X72644000Y-50038000D03*
%TO.P,J37,3,Pin_3*%
%TO.N,/b18*%
X72644000Y-47498000D03*
%TO.P,J37,4,Pin_4*%
%TO.N,/b17*%
X72644000Y-44958000D03*
%TO.P,J37,5,Pin_5*%
%TO.N,/b16*%
X72644000Y-42418000D03*
%TO.P,J37,6,Pin_6*%
%TO.N,/b15*%
X72644000Y-39878000D03*
%TO.P,J37,7,Pin_7*%
%TO.N,/b14*%
X72644000Y-37338000D03*
%TO.P,J37,8,Pin_8*%
%TO.N,/b13*%
X72644000Y-34798000D03*
%TO.P,J37,9,Pin_9*%
%TO.N,/b12*%
X72644000Y-32258000D03*
%TO.P,J37,10,Pin_10*%
%TO.N,/b11*%
X72644000Y-29718000D03*
%TO.P,J37,11,Pin_11*%
%TO.N,/b10*%
X72644000Y-27178000D03*
%TO.P,J37,12,Pin_12*%
%TO.N,/b9*%
X72644000Y-24638000D03*
%TO.P,J37,13,Pin_13*%
%TO.N,/b8*%
X72644000Y-22098000D03*
%TO.P,J37,14,Pin_14*%
%TO.N,/b7*%
X72644000Y-19558000D03*
%TO.P,J37,15,Pin_15*%
%TO.N,/b6*%
X72644000Y-17018000D03*
%TO.P,J37,16,Pin_16*%
%TO.N,/b5*%
X72644000Y-14478000D03*
%TO.P,J37,17,Pin_17*%
%TO.N,/b4*%
X72644000Y-11938000D03*
%TO.P,J37,18,Pin_18*%
%TO.N,/b3*%
X72644000Y-9398000D03*
%TO.P,J37,19,Pin_19*%
%TO.N,VSYS*%
X72644000Y-6858000D03*
%TO.P,J37,20,Pin_20*%
%TO.N,/b1*%
X72644000Y-4318000D03*
%TD*%
D19*
%TO.P,S5,1,1*%
%TO.N,Net-(J5-Pin_3)*%
X10160000Y-36540000D03*
X3660000Y-36540000D03*
%TO.P,S5,2,2*%
%TO.N,GND*%
X10160000Y-32040000D03*
X3660000Y-32040000D03*
%TD*%
D13*
%TO.P,J29,1,Pin_1*%
%TO.N,Net-(J29-Pin_1)*%
X66040000Y-63030000D03*
D12*
%TO.P,J29,2,Pin_2*%
%TO.N,Net-(J29-Pin_2)*%
X63500000Y-63030000D03*
%TO.P,J29,3,Pin_3*%
%TO.N,Net-(J29-Pin_3)*%
X60960000Y-63030000D03*
%TO.P,J29,4,Pin_4*%
%TO.N,Net-(J29-Pin_4)*%
X58420000Y-63030000D03*
%TO.P,J29,5,Pin_5*%
%TO.N,Net-(J29-Pin_5)*%
X55880000Y-63030000D03*
%TO.P,J29,6,Pin_6*%
%TO.N,Net-(J29-Pin_6)*%
X53340000Y-63030000D03*
%TO.P,J29,7,Pin_7*%
%TO.N,Net-(J29-Pin_7)*%
X50800000Y-63030000D03*
%TO.P,J29,8,Pin_8*%
%TO.N,Net-(J29-Pin_8)*%
X48260000Y-63030000D03*
%TD*%
D23*
%TO.P,RV1,1,1*%
%TO.N,+3.3V*%
X61254000Y-87336000D03*
%TO.P,RV1,2,2*%
%TO.N,Net-(J7-Pin_3)*%
X66254000Y-84836000D03*
D28*
%TO.P,RV1,3,3*%
%TO.N,GND*%
X61254000Y-82336000D03*
%TD*%
D13*
%TO.P,J13,1,Pin_1*%
%TO.N,Net-(J13-Pin_1)*%
X28448000Y-77153000D03*
D12*
%TO.P,J13,2,Pin_2*%
%TO.N,Net-(J13-Pin_2)*%
X25908000Y-77153000D03*
%TO.P,J13,3,Pin_3*%
%TO.N,Net-(J13-Pin_3)*%
X23368000Y-77153000D03*
%TD*%
D19*
%TO.P,S10,1,1*%
%TO.N,Net-(J5-Pin_8)*%
X10160000Y-77180000D03*
X3660000Y-77180000D03*
%TO.P,S10,2,2*%
%TO.N,GND*%
X10160000Y-72680000D03*
X3660000Y-72680000D03*
%TD*%
D13*
%TO.P,J11,1,Pin_1*%
%TO.N,+3.3V*%
X39370000Y-12954000D03*
D12*
%TO.P,J11,2,Pin_2*%
%TO.N,Net-(IC3-DQ)*%
X36830000Y-12954000D03*
%TO.P,J11,3,Pin_3*%
%TO.N,GND*%
X34290000Y-12954000D03*
%TD*%
D13*
%TO.P,J43,1,Pin_1*%
%TO.N,GND*%
X87376000Y-9398000D03*
%TD*%
D19*
%TO.P,S7,1,1*%
%TO.N,Net-(J5-Pin_5)*%
X10160000Y-52796000D03*
X3660000Y-52796000D03*
%TO.P,S7,2,2*%
%TO.N,GND*%
X10160000Y-48296000D03*
X3660000Y-48296000D03*
%TD*%
D29*
%TO.P,DS1,*%
%TO.N,*%
X2824000Y-94269000D03*
X2824000Y-140719000D03*
X68424000Y-94269000D03*
X68424000Y-140719000D03*
%TD*%
D23*
%TO.P,VR2,1,1*%
%TO.N,GND*%
X24424000Y-62056000D03*
%TO.P,VR2,2,2*%
%TO.N,Net-(R14-Pad2)*%
X26924000Y-67056000D03*
D28*
%TO.P,VR2,3,3*%
%TO.N,+3.3V*%
X29424000Y-62056000D03*
%TD*%
D13*
%TO.P,J26,1,Pin_1*%
%TO.N,/a1*%
X55626000Y-4318000D03*
D12*
%TO.P,J26,2,Pin_2*%
%TO.N,/a2*%
X55626000Y-6858000D03*
%TO.P,J26,3,Pin_3*%
%TO.N,/a3*%
X55626000Y-9398000D03*
%TO.P,J26,4,Pin_4*%
%TO.N,/a4*%
X55626000Y-11938000D03*
%TO.P,J26,5,Pin_5*%
%TO.N,/a5*%
X55626000Y-14478000D03*
%TO.P,J26,6,Pin_6*%
%TO.N,/a6*%
X55626000Y-17018000D03*
%TO.P,J26,7,Pin_7*%
%TO.N,/a7*%
X55626000Y-19558000D03*
%TO.P,J26,8,Pin_8*%
%TO.N,/a8*%
X55626000Y-22098000D03*
%TO.P,J26,9,Pin_9*%
%TO.N,/a9*%
X55626000Y-24638000D03*
%TO.P,J26,10,Pin_10*%
%TO.N,/a10*%
X55626000Y-27178000D03*
%TO.P,J26,11,Pin_11*%
%TO.N,/a11*%
X55626000Y-29718000D03*
%TO.P,J26,12,Pin_12*%
%TO.N,/a12*%
X55626000Y-32258000D03*
%TO.P,J26,13,Pin_13*%
%TO.N,/a13*%
X55626000Y-34798000D03*
%TO.P,J26,14,Pin_14*%
%TO.N,/a14*%
X55626000Y-37338000D03*
%TO.P,J26,15,Pin_15*%
%TO.N,/a15*%
X55626000Y-39878000D03*
%TO.P,J26,16,Pin_16*%
%TO.N,/a16*%
X55626000Y-42418000D03*
%TO.P,J26,17,Pin_17*%
%TO.N,/a17*%
X55626000Y-44958000D03*
%TO.P,J26,18,Pin_18*%
%TO.N,/a18*%
X55626000Y-47498000D03*
%TO.P,J26,19,Pin_19*%
%TO.N,/a19*%
X55626000Y-50038000D03*
%TO.P,J26,20,Pin_20*%
%TO.N,/a20*%
X55626000Y-52578000D03*
%TD*%
D13*
%TO.P,J33,1,Pin_1*%
%TO.N,Net-(IC2-E0)*%
X103124000Y-33274000D03*
D12*
%TO.P,J33,2,Pin_2*%
%TO.N,GND*%
X103124000Y-30734000D03*
%TD*%
D13*
%TO.P,J19,1,Pin_1*%
%TO.N,/Wy\u015Bwietlacz LCD/R{slash}W*%
X40132000Y-86360000D03*
D12*
%TO.P,J19,2,Pin_2*%
%TO.N,GND*%
X40132000Y-83820000D03*
%TO.P,J19,3,Pin_3*%
%TO.N,/Wy\u015Bwietlacz LCD/RS*%
X42672000Y-86360000D03*
%TO.P,J19,4,Pin_4*%
%TO.N,+3.3V*%
X42672000Y-83820000D03*
%TO.P,J19,5,Pin_5*%
%TO.N,/Wy\u015Bwietlacz LCD/E*%
X45212000Y-86360000D03*
%TO.P,J19,6,Pin_6*%
%TO.N,/Wy\u015Bwietlacz LCD/BL*%
X45212000Y-83820000D03*
%TO.P,J19,7,Pin_7*%
%TO.N,/Wy\u015Bwietlacz LCD/D4*%
X47752000Y-86360000D03*
%TO.P,J19,8,Pin_8*%
%TO.N,/Wy\u015Bwietlacz LCD/D0*%
X47752000Y-83820000D03*
%TO.P,J19,9,Pin_9*%
%TO.N,/Wy\u015Bwietlacz LCD/D5*%
X50292000Y-86360000D03*
%TO.P,J19,10,Pin_10*%
%TO.N,/Wy\u015Bwietlacz LCD/D1*%
X50292000Y-83820000D03*
%TO.P,J19,11,Pin_11*%
%TO.N,/Wy\u015Bwietlacz LCD/D6*%
X52832000Y-86360000D03*
%TO.P,J19,12,Pin_12*%
%TO.N,/Wy\u015Bwietlacz LCD/D2*%
X52832000Y-83820000D03*
%TO.P,J19,13,Pin_13*%
%TO.N,/Wy\u015Bwietlacz LCD/D7*%
X55372000Y-86360000D03*
%TO.P,J19,14,Pin_14*%
%TO.N,/Wy\u015Bwietlacz LCD/D3*%
X55372000Y-83820000D03*
%TD*%
D13*
%TO.P,J9,1,Pin_1*%
%TO.N,/Zegar czasu rzeczywistego RTC/CLKOUT*%
X95504000Y-56901000D03*
D12*
%TO.P,J9,2,Pin_2*%
%TO.N,/Zegar czasu rzeczywistego RTC/INT*%
X95504000Y-54361000D03*
%TD*%
D13*
%TO.P,J10,1,Pin_1*%
%TO.N,Net-(IC1-SCL)*%
X100584000Y-43180000D03*
D12*
%TO.P,J10,2,Pin_2*%
%TO.N,Net-(IC1-SDA)*%
X103124000Y-43180000D03*
%TO.P,J10,3,Pin_3*%
%TO.N,Net-(IC1-SCL)*%
X100584000Y-45720000D03*
%TO.P,J10,4,Pin_4*%
%TO.N,Net-(IC1-SDA)*%
X103124000Y-45720000D03*
%TD*%
D13*
%TO.P,J20,1,Pin_1*%
%TO.N,/b1*%
X82296000Y-4318000D03*
D12*
%TO.P,J20,2,Pin_2*%
X84836000Y-4318000D03*
%TO.P,J20,3,Pin_3*%
%TO.N,VSYS*%
X82296000Y-6858000D03*
%TO.P,J20,4,Pin_4*%
X84836000Y-6858000D03*
%TO.P,J20,5,Pin_5*%
%TO.N,/b3*%
X82296000Y-9398000D03*
%TO.P,J20,6,Pin_6*%
X84836000Y-9398000D03*
%TO.P,J20,7,Pin_7*%
%TO.N,/b4*%
X82296000Y-11938000D03*
%TO.P,J20,8,Pin_8*%
X84836000Y-11938000D03*
%TO.P,J20,9,Pin_9*%
%TO.N,/b5*%
X82296000Y-14478000D03*
%TO.P,J20,10,Pin_10*%
X84836000Y-14478000D03*
%TO.P,J20,11,Pin_11*%
%TO.N,/b6*%
X82296000Y-17018000D03*
%TO.P,J20,12,Pin_12*%
X84836000Y-17018000D03*
%TO.P,J20,13,Pin_13*%
%TO.N,/b7*%
X82296000Y-19558000D03*
%TO.P,J20,14,Pin_14*%
X84836000Y-19558000D03*
%TO.P,J20,15,Pin_15*%
%TO.N,/b8*%
X82296000Y-22098000D03*
%TO.P,J20,16,Pin_16*%
X84836000Y-22098000D03*
%TO.P,J20,17,Pin_17*%
%TO.N,/b9*%
X82296000Y-24638000D03*
%TO.P,J20,18,Pin_18*%
X84836000Y-24638000D03*
%TO.P,J20,19,Pin_19*%
%TO.N,/b10*%
X82296000Y-27178000D03*
%TO.P,J20,20,Pin_20*%
X84836000Y-27178000D03*
%TO.P,J20,21,Pin_21*%
%TO.N,/b11*%
X82296000Y-29718000D03*
%TO.P,J20,22,Pin_22*%
X84836000Y-29718000D03*
%TO.P,J20,23,Pin_23*%
%TO.N,/b12*%
X82296000Y-32258000D03*
%TO.P,J20,24,Pin_24*%
X84836000Y-32258000D03*
%TO.P,J20,25,Pin_25*%
%TO.N,/b13*%
X82296000Y-34798000D03*
%TO.P,J20,26,Pin_26*%
X84836000Y-34798000D03*
%TO.P,J20,27,Pin_27*%
%TO.N,/b14*%
X82296000Y-37338000D03*
%TO.P,J20,28,Pin_28*%
X84836000Y-37338000D03*
%TO.P,J20,29,Pin_29*%
%TO.N,/b15*%
X82296000Y-39878000D03*
%TO.P,J20,30,Pin_30*%
X84836000Y-39878000D03*
%TO.P,J20,31,Pin_31*%
%TO.N,/b16*%
X82296000Y-42418000D03*
%TO.P,J20,32,Pin_32*%
X84836000Y-42418000D03*
%TO.P,J20,33,Pin_33*%
%TO.N,/b17*%
X82296000Y-44958000D03*
%TO.P,J20,34,Pin_34*%
X84836000Y-44958000D03*
%TO.P,J20,35,Pin_35*%
%TO.N,/b18*%
X82296000Y-47498000D03*
%TO.P,J20,36,Pin_36*%
X84836000Y-47498000D03*
%TO.P,J20,37,Pin_37*%
%TO.N,/b19*%
X82296000Y-50038000D03*
%TO.P,J20,38,Pin_38*%
X84836000Y-50038000D03*
%TO.P,J20,39,Pin_39*%
%TO.N,/b20*%
X82296000Y-52578000D03*
%TO.P,J20,40,Pin_40*%
X84836000Y-52578000D03*
%TD*%
D19*
%TO.P,S1,1,1*%
%TO.N,/b11*%
X98878000Y-12700000D03*
X98878000Y-6200000D03*
%TO.P,S1,2,2*%
%TO.N,GND*%
X103378000Y-12700000D03*
X103378000Y-6200000D03*
%TD*%
D13*
%TO.P,J23,1,Pin_1*%
%TO.N,Net-(IC5-VSS)*%
X171282000Y-35306000D03*
D12*
%TO.P,J23,2,Pin_2*%
%TO.N,Net-(IC5-CH1)*%
X171282000Y-37846000D03*
%TO.P,J23,3,Pin_3*%
%TO.N,Net-(IC5-CH0)*%
X171282000Y-40386000D03*
%TO.P,J23,4,Pin_4*%
%TO.N,Net-(IC5-~{CS}{slash}SHDN)*%
X171282000Y-42926000D03*
%TD*%
D23*
%TO.P,VR1,1,1*%
%TO.N,GND*%
X15868000Y-62103000D03*
%TO.P,VR1,2,2*%
%TO.N,Net-(R2-Pad2)*%
X18368000Y-67103000D03*
D28*
%TO.P,VR1,3,3*%
%TO.N,+3.3V*%
X20868000Y-62103000D03*
%TD*%
D15*
%TO.P,H1,1,1*%
%TO.N,GND*%
X216000000Y-4000000D03*
D16*
X216000000Y-4000000D03*
%TD*%
D30*
%TO.N,+3.3V*%
X115570000Y-122428000D03*
X112014000Y-122682000D03*
X105890400Y-122682000D03*
X108712000Y-122682000D03*
%TO.N,GND*%
X163068000Y-28194000D03*
X71577200Y-82296000D03*
X120396000Y-71120000D03*
X113157000Y-74676000D03*
X21065183Y-15223183D03*
X17513000Y-22847000D03*
X200660000Y-31496000D03*
X17653000Y-25654000D03*
X21082000Y-34417000D03*
X72898000Y-75342500D03*
X16891000Y-21844000D03*
X165862000Y-42926000D03*
X186690000Y-31242000D03*
%TO.N,+3.3V*%
X96012000Y-8636000D03*
X39116000Y-76454000D03*
X21590000Y-59055000D03*
X212344000Y-20828000D03*
X159512000Y-9144000D03*
X185563440Y-31181759D03*
X42164000Y-76454000D03*
X203708000Y-21590000D03*
X97028000Y-38354000D03*
X89662000Y-28448000D03*
X168410000Y-10922000D03*
X82677000Y-88900000D03*
X106680000Y-11684000D03*
X58166000Y-88569994D03*
X98806000Y-27432000D03*
X107950000Y-55118000D03*
X105664000Y-53721000D03*
X93472000Y-35306000D03*
X201168000Y-21590000D03*
%TO.N,/d11*%
X158461067Y-15662748D03*
%TO.N,Net-(IC2-SCL)*%
X93472000Y-31369000D03*
%TO.N,Net-(IC2-SDA)*%
X94996000Y-30480000D03*
%TO.N,/b11*%
X95758000Y-15240000D03*
%TO.N,Net-(D4-A)*%
X97028000Y-14478000D03*
%TO.N,+5V*%
X29210000Y-28684600D03*
X25146000Y-20574000D03*
X18798172Y-25130772D03*
X29718000Y-19939000D03*
%TO.N,Net-(D5-A)*%
X159512000Y-14986000D03*
%TO.N,/Wy\u015Bwietlacz segmentowy/f*%
X128778000Y-120650000D03*
%TO.N,/Wy\u015Bwietlacz segmentowy/c*%
X138684000Y-132588000D03*
%TO.N,/Wy\u015Bwietlacz segmentowy/b*%
X138938000Y-119634000D03*
%TO.N,/Wy\u015Bwietlacz segmentowy/a*%
X132842000Y-126492000D03*
X140462000Y-119634000D03*
%TO.N,/Wy\u015Bwietlacz segmentowy/e*%
X135890000Y-134620000D03*
%TO.N,/Wy\u015Bwietlacz segmentowy/DP*%
X132334000Y-139954000D03*
%TO.N,/Wy\u015Bwietlacz segmentowy/d*%
X137668000Y-134112000D03*
%TO.N,/Wy\u015Bwietlacz segmentowy/g*%
X134366000Y-140462000D03*
%TO.N,/Wy\u015Bwietlacz LCD/D6*%
X77216000Y-90170000D03*
X58166000Y-90170000D03*
%TO.N,/Wy\u015Bwietlacz LCD/D7*%
X58166000Y-89369997D03*
X79883000Y-89535000D03*
%TO.N,/Wy\u015Bwietlacz LCD/D1*%
X88392000Y-78232000D03*
X50292000Y-78740000D03*
%TO.N,/Wy\u015Bwietlacz LCD/D5*%
X49784000Y-90678000D03*
X75184000Y-90932000D03*
%TO.N,/Wy\u015Bwietlacz LCD/D0*%
X88392000Y-76962000D03*
X48006000Y-78486000D03*
%TO.N,/Wy\u015Bwietlacz LCD/E*%
X45212000Y-91186000D03*
X69469000Y-92456000D03*
%TO.N,/Wy\u015Bwietlacz LCD/D2*%
X53340000Y-79756000D03*
X88392000Y-79756000D03*
%TO.N,/Wy\u015Bwietlacz LCD/D3*%
X88392000Y-81026000D03*
X58166000Y-81026000D03*
%TO.N,/Wy\u015Bwietlacz LCD/D4*%
X47498000Y-90932000D03*
X72898000Y-91694000D03*
%TO.N,/Wy\u015Bwietlacz LCD/BL*%
X109220000Y-76200000D03*
X47752000Y-76200000D03*
%TO.N,VSYS*%
X95504000Y-1270000D03*
X169164000Y-9906000D03*
X39624000Y-36830000D03*
%TO.N,Net-(IC4-USBDM)*%
X25908000Y-13589000D03*
X18178400Y-22225000D03*
%TO.N,Net-(IC4-USBDP)*%
X18830800Y-21463000D03*
X26560400Y-14254278D03*
%TO.N,Net-(IC4-CBUS1)*%
X24612841Y-19507159D03*
X26695159Y-19236000D03*
%TO.N,Net-(S13-B)*%
X27790996Y-12296996D03*
X21463000Y-12954000D03*
X23421000Y-12245000D03*
%TD*%
D31*
%TO.N,+3.3V*%
X115316000Y-122682000D02*
X112014000Y-122682000D01*
X115570000Y-122428000D02*
X115316000Y-122682000D01*
X112014000Y-122682000D02*
X108712000Y-122682000D01*
X105890400Y-122682000D02*
X108712000Y-122682000D01*
%TO.N,GND*%
X17653000Y-22987000D02*
X17653000Y-25654000D01*
X163068000Y-28194000D02*
X164338000Y-29464000D01*
X120396000Y-71120000D02*
X118872000Y-72644000D01*
X21065183Y-15256817D02*
X21065183Y-15223183D01*
X7493000Y-4572000D02*
X9144000Y-2921000D01*
X16891000Y-21844000D02*
X17571000Y-21164000D01*
X185674000Y-32766000D02*
X186944000Y-31496000D01*
X19050000Y-2921000D02*
X21516000Y-5387000D01*
X17571000Y-20955000D02*
X17571000Y-18751000D01*
X75787500Y-75342500D02*
X79340000Y-71790000D01*
X17571000Y-21164000D02*
X17571000Y-20955000D01*
X166370000Y-29464000D02*
X170180000Y-33274000D01*
X179070000Y-45720000D02*
X180848000Y-43942000D01*
D32*
X25400000Y-50038000D02*
X23495000Y-50038000D01*
X23495000Y-50038000D02*
X22098000Y-48641000D01*
D31*
X9144000Y-2921000D02*
X19050000Y-2921000D01*
X105537000Y-82296000D02*
X113157000Y-74676000D01*
X185166000Y-33274000D02*
X185674000Y-32766000D01*
X180848000Y-37592000D02*
X185674000Y-32766000D01*
D32*
X22098000Y-35433000D02*
X21082000Y-34417000D01*
D31*
X118872000Y-72644000D02*
X113919000Y-72644000D01*
X164338000Y-29464000D02*
X166370000Y-29464000D01*
X168656000Y-45720000D02*
X179070000Y-45720000D01*
X72898000Y-75342500D02*
X75787500Y-75342500D01*
X113157000Y-73406000D02*
X113157000Y-74676000D01*
X4572000Y-4572000D02*
X7493000Y-4572000D01*
X165862000Y-42926000D02*
X168656000Y-45720000D01*
X71577200Y-82296000D02*
X105537000Y-82296000D01*
X17513000Y-22847000D02*
X17653000Y-22987000D01*
X170180000Y-33274000D02*
X185166000Y-33274000D01*
X200660000Y-31496000D02*
X186944000Y-31496000D01*
X79340000Y-71790000D02*
X79340000Y-68828000D01*
X180848000Y-43942000D02*
X180848000Y-37592000D01*
X17571000Y-18751000D02*
X21065183Y-15256817D01*
X113919000Y-72644000D02*
X113157000Y-73406000D01*
X186944000Y-31496000D02*
X186690000Y-31242000D01*
D32*
X22098000Y-48641000D02*
X22098000Y-35433000D01*
D31*
%TO.N,+3.3V*%
X211582000Y-21590000D02*
X203708000Y-21590000D01*
X186690000Y-29972000D02*
X185563440Y-31098560D01*
X106680000Y-10414000D02*
X106680000Y-11684000D01*
X96012000Y-8636000D02*
X96520000Y-9144000D01*
D32*
X107061000Y-55118000D02*
X107950000Y-55118000D01*
D31*
X90678000Y-27432000D02*
X89662000Y-28448000D01*
X190754000Y-24384000D02*
X190754000Y-28702000D01*
X105410000Y-9144000D02*
X106680000Y-10414000D01*
X93980000Y-35306000D02*
X97028000Y-38354000D01*
X39116000Y-76454000D02*
X42164000Y-76454000D01*
X189484000Y-29972000D02*
X186690000Y-29972000D01*
X82677000Y-88900000D02*
X82391997Y-88614997D01*
X58166000Y-88614997D02*
X58166000Y-88569994D01*
X96520000Y-9144000D02*
X105410000Y-9144000D01*
X93472000Y-35306000D02*
X93980000Y-35306000D01*
X21590000Y-59055000D02*
X28448000Y-59055000D01*
X28448000Y-59055000D02*
X29424000Y-60031000D01*
X203708000Y-21590000D02*
X201168000Y-21590000D01*
X82391997Y-88614997D02*
X58166000Y-88614997D01*
X212344000Y-20828000D02*
X211582000Y-21590000D01*
X98806000Y-27432000D02*
X90678000Y-27432000D01*
X193548000Y-21590000D02*
X190754000Y-24384000D01*
D32*
X105664000Y-53721000D02*
X107061000Y-55118000D01*
D31*
X168410000Y-10922000D02*
X168410000Y-10422000D01*
X190754000Y-28702000D02*
X189484000Y-29972000D01*
X201168000Y-21590000D02*
X193548000Y-21590000D01*
X185563440Y-31098560D02*
X185563440Y-31181759D01*
X29424000Y-60031000D02*
X29424000Y-62056000D01*
X168410000Y-10422000D02*
X167132000Y-9144000D01*
X167132000Y-9144000D02*
X159512000Y-9144000D01*
%TO.N,/d11*%
X158461067Y-15662748D02*
X158461067Y-16290933D01*
X151130000Y-29210000D02*
X149098000Y-29210000D01*
X158461067Y-16290933D02*
X155194000Y-19558000D01*
X155194000Y-25146000D02*
X151130000Y-29210000D01*
X155194000Y-19558000D02*
X155194000Y-25146000D01*
%TO.N,Net-(IC2-SCL)*%
X93472000Y-31369000D02*
X93980000Y-31877000D01*
X97536000Y-37592000D02*
X100076000Y-37592000D01*
X100076000Y-37592000D02*
X100584000Y-38100000D01*
X93980000Y-34036000D02*
X97536000Y-37592000D01*
X100584000Y-38100000D02*
X100584000Y-40640000D01*
X93980000Y-31877000D02*
X93980000Y-34036000D01*
%TO.N,Net-(IC2-SDA)*%
X94996000Y-33782000D02*
X97790000Y-36576000D01*
X94996000Y-30480000D02*
X94996000Y-33782000D01*
X101092000Y-36576000D02*
X103124000Y-38608000D01*
X97790000Y-36576000D02*
X101092000Y-36576000D01*
X103124000Y-38608000D02*
X103124000Y-40640000D01*
%TO.N,/b11*%
X95758000Y-16256000D02*
X90807000Y-21207000D01*
X95758000Y-15240000D02*
X95758000Y-16256000D01*
X90807000Y-26033000D02*
X87122000Y-29718000D01*
X87122000Y-29718000D02*
X84836000Y-29718000D01*
X90807000Y-21207000D02*
X90807000Y-26033000D01*
%TO.N,Net-(D4-A)*%
X87376000Y-14478000D02*
X93472000Y-14478000D01*
X93472000Y-14478000D02*
X96774000Y-14478000D01*
X96774000Y-14478000D02*
X97028000Y-14478000D01*
%TO.N,+5V*%
X43180000Y-54610000D02*
X45085000Y-56515000D01*
X87376000Y-3683000D02*
X87376000Y-4318000D01*
X34417000Y-17399000D02*
X41783000Y-17399000D01*
X46101000Y-56515000D02*
X57531000Y-56515000D01*
X33655000Y-17399000D02*
X34417000Y-17399000D01*
D32*
X24765000Y-20955000D02*
X25146000Y-20574000D01*
D31*
X57531000Y-56515000D02*
X61087000Y-52959000D01*
X41783000Y-17399000D02*
X42799000Y-18415000D01*
X86233000Y-2540000D02*
X87376000Y-3683000D01*
D32*
X45085000Y-56515000D02*
X46101000Y-56515000D01*
X29210000Y-28684600D02*
X29354400Y-28684600D01*
D31*
X61087000Y-11430000D02*
X69977000Y-2540000D01*
X42799000Y-18415000D02*
X42799000Y-54229000D01*
D32*
X18796000Y-25128600D02*
X18796000Y-24130000D01*
X18796000Y-24130000D02*
X21971000Y-20955000D01*
D31*
X30480000Y-20574000D02*
X33655000Y-17399000D01*
D32*
X18798172Y-25130772D02*
X18796000Y-25128600D01*
X29354400Y-28684600D02*
X30480000Y-27559000D01*
X30480000Y-20574000D02*
X29845000Y-19939000D01*
X29845000Y-19939000D02*
X29718000Y-19939000D01*
X61087000Y-52959000D02*
X61087000Y-52705000D01*
D31*
X151638000Y-3810000D02*
X151638000Y-2921000D01*
D32*
X30480000Y-27559000D02*
X30480000Y-20574000D01*
D31*
X151638000Y-2921000D02*
X150876000Y-2159000D01*
D32*
X21971000Y-20955000D02*
X24765000Y-20955000D01*
D31*
X69977000Y-2540000D02*
X86233000Y-2540000D01*
X61087000Y-52705000D02*
X61087000Y-11430000D01*
X89535000Y-2159000D02*
X87376000Y-4318000D01*
X150876000Y-2159000D02*
X89535000Y-2159000D01*
D32*
X42799000Y-54229000D02*
X43180000Y-54610000D01*
D31*
%TO.N,Net-(D5-A)*%
X153802504Y-13946000D02*
X151638000Y-13946000D01*
X155272252Y-14907748D02*
X155194000Y-14986000D01*
X154764252Y-14907748D02*
X153802504Y-13946000D01*
X159433748Y-14907748D02*
X155272252Y-14907748D01*
X159512000Y-14986000D02*
X159433748Y-14907748D01*
X155272252Y-14907748D02*
X154764252Y-14907748D01*
%TO.N,/Wy\u015Bwietlacz segmentowy/f*%
X128778000Y-121412000D02*
X122682000Y-127508000D01*
X122682000Y-127508000D02*
X122682000Y-130048000D01*
X128778000Y-120650000D02*
X128778000Y-121412000D01*
%TO.N,/Wy\u015Bwietlacz segmentowy/c*%
X132080000Y-141478000D02*
X126238000Y-141478000D01*
X138684000Y-132588000D02*
X138684000Y-134874000D01*
X126238000Y-141478000D02*
X125222000Y-142494000D01*
X125222000Y-142494000D02*
X125222000Y-145288000D01*
X138684000Y-134874000D02*
X132080000Y-141478000D01*
%TO.N,/Wy\u015Bwietlacz segmentowy/b*%
X138938000Y-121412000D02*
X134874000Y-125476000D01*
X134874000Y-125476000D02*
X132080000Y-125476000D01*
X132080000Y-125476000D02*
X130302000Y-127254000D01*
X138938000Y-119634000D02*
X138938000Y-121412000D01*
X130302000Y-127254000D02*
X130302000Y-130048000D01*
%TO.N,/Wy\u015Bwietlacz segmentowy/a*%
X132842000Y-126492000D02*
X134874000Y-126492000D01*
X140462000Y-120904000D02*
X140462000Y-119634000D01*
X134874000Y-126492000D02*
X140462000Y-120904000D01*
%TO.N,/Wy\u015Bwietlacz segmentowy/e*%
X120904000Y-137668000D02*
X117602000Y-140970000D01*
X117602000Y-140970000D02*
X117602000Y-145288000D01*
X135890000Y-134620000D02*
X132842000Y-137668000D01*
X132842000Y-137668000D02*
X120904000Y-137668000D01*
%TO.N,/Wy\u015Bwietlacz segmentowy/DP*%
X124460000Y-140208000D02*
X122682000Y-141986000D01*
X132080000Y-140208000D02*
X124460000Y-140208000D01*
X132334000Y-139954000D02*
X132080000Y-140208000D01*
X122682000Y-141986000D02*
X122682000Y-145288000D01*
%TO.N,/Wy\u015Bwietlacz segmentowy/d*%
X122174000Y-138684000D02*
X133096000Y-138684000D01*
X120142000Y-145288000D02*
X120142000Y-140716000D01*
X120142000Y-140716000D02*
X122174000Y-138684000D01*
X133096000Y-138684000D02*
X137668000Y-134112000D01*
%TO.N,/Wy\u015Bwietlacz segmentowy/g*%
X129032000Y-142494000D02*
X127762000Y-143764000D01*
X127762000Y-143764000D02*
X127762000Y-145288000D01*
X134366000Y-140462000D02*
X134366000Y-140970000D01*
X134366000Y-140970000D02*
X132842000Y-142494000D01*
X132842000Y-142494000D02*
X129032000Y-142494000D01*
%TO.N,/Wy\u015Bwietlacz LCD/D6*%
X77216000Y-90170000D02*
X58166000Y-90170000D01*
%TO.N,/Wy\u015Bwietlacz LCD/D7*%
X58166000Y-89408000D02*
X58166000Y-89369997D01*
X79756000Y-89408000D02*
X58166000Y-89408000D01*
X79883000Y-89535000D02*
X79756000Y-89408000D01*
%TO.N,/Wy\u015Bwietlacz LCD/D1*%
X88392000Y-78232000D02*
X50800000Y-78232000D01*
X50800000Y-78232000D02*
X50292000Y-78740000D01*
%TO.N,/Wy\u015Bwietlacz LCD/D5*%
X75184000Y-90932000D02*
X50038000Y-90932000D01*
X50038000Y-90932000D02*
X49784000Y-90678000D01*
%TO.N,/Wy\u015Bwietlacz LCD/D0*%
X88392000Y-76962000D02*
X49530000Y-76962000D01*
X49530000Y-76962000D02*
X48006000Y-78486000D01*
%TO.N,/Wy\u015Bwietlacz LCD/E*%
X46482000Y-92456000D02*
X45212000Y-91186000D01*
X69469000Y-92456000D02*
X46482000Y-92456000D01*
%TO.N,/Wy\u015Bwietlacz LCD/D2*%
X53340000Y-79756000D02*
X88392000Y-79756000D01*
%TO.N,/Wy\u015Bwietlacz LCD/D3*%
X58166000Y-81026000D02*
X88392000Y-81026000D01*
%TO.N,/Wy\u015Bwietlacz LCD/D4*%
X48006000Y-91694000D02*
X47498000Y-91186000D01*
X72898000Y-91694000D02*
X48006000Y-91694000D01*
X47498000Y-91186000D02*
X47498000Y-90932000D01*
%TO.N,/Wy\u015Bwietlacz LCD/BL*%
X47752000Y-76200000D02*
X109220000Y-76200000D01*
%TO.N,VSYS*%
X62230000Y-11684000D02*
X67056000Y-6858000D01*
X169164000Y-9906000D02*
X167386000Y-8128000D01*
X41148000Y-54864000D02*
X44323000Y-58039000D01*
X62230000Y-53594000D02*
X62230000Y-11684000D01*
X154178000Y-6350000D02*
X149098000Y-6350000D01*
X41148000Y-38354000D02*
X41148000Y-54864000D01*
X39624000Y-36830000D02*
X41148000Y-38354000D01*
X44323000Y-58039000D02*
X57785000Y-58039000D01*
X57785000Y-58039000D02*
X62230000Y-53594000D01*
X67056000Y-6858000D02*
X72644000Y-6858000D01*
X151708000Y-1270000D02*
X153670000Y-3232000D01*
X167386000Y-8128000D02*
X155956000Y-8128000D01*
X155956000Y-8128000D02*
X154178000Y-6350000D01*
X153670000Y-5842000D02*
X154178000Y-6350000D01*
X153670000Y-3232000D02*
X153670000Y-5842000D01*
X95504000Y-1270000D02*
X151708000Y-1270000D01*
D32*
%TO.N,Net-(IC4-USBDM)*%
X21844000Y-15367000D02*
X25273000Y-15367000D01*
X25908000Y-14732000D02*
X25908000Y-13589000D01*
X18178400Y-22225000D02*
X18178400Y-19032600D01*
X18178400Y-19032600D02*
X21844000Y-15367000D01*
X25273000Y-15367000D02*
X25908000Y-14732000D01*
D33*
%TO.N,Net-(IC4-USBDP)*%
X26560400Y-14794909D02*
X25482509Y-15872800D01*
D32*
X25482509Y-15872800D02*
X22227200Y-15872800D01*
X22227200Y-15872800D02*
X18830800Y-19269200D01*
D33*
X26560400Y-14254278D02*
X26560400Y-14794909D01*
D32*
X18830800Y-19269200D02*
X18830800Y-21463000D01*
D33*
%TO.N,Net-(IC4-CBUS1)*%
X26644841Y-19507159D02*
X26695159Y-19456841D01*
X26695159Y-19456841D02*
X26695159Y-19236000D01*
X24612841Y-19507159D02*
X26644841Y-19507159D01*
D31*
%TO.N,Net-(S13-B)*%
X27790996Y-12296996D02*
X27334992Y-12753000D01*
X23728000Y-12954000D02*
X23929000Y-12753000D01*
X27334992Y-12753000D02*
X23929000Y-12753000D01*
X21463000Y-12954000D02*
X23728000Y-12954000D01*
X23929000Y-12753000D02*
X23421000Y-12245000D01*
%TD*%
M02*
