%TF.GenerationSoftware,KiCad,Pcbnew,9.0.0*%
%TF.CreationDate,2025-05-15T12:51:00+02:00*%
%TF.ProjectId,board,626f6172-642e-46b6-9963-61645f706362,rev?*%
%TF.SameCoordinates,Original*%
%TF.FileFunction,Soldermask,Bot*%
%TF.FilePolarity,Negative*%
%FSLAX46Y46*%
G04 Gerber Fmt 4.6, Leading zero omitted, Abs format (unit mm)*
G04 Created by KiCad (PCBNEW 9.0.0) date 2025-05-15 12:51:00*
%MOMM*%
%LPD*%
G01*
G04 APERTURE LIST*
%ADD10R,1.500000X1.500000*%
%ADD11C,1.500000*%
%ADD12O,1.800000X1.800000*%
%ADD13O,1.500000X1.500000*%
%ADD14O,1.700000X1.700000*%
%ADD15R,1.700000X1.700000*%
%ADD16C,5.000000*%
%ADD17C,3.600000*%
%ADD18C,5.600000*%
%ADD19R,1.159000X1.159000*%
%ADD20C,1.159000*%
%ADD21C,2.000000*%
%ADD22R,1.300000X1.300000*%
%ADD23C,1.300000*%
%ADD24C,1.000000*%
%ADD25C,1.400000*%
%ADD26C,0.650000*%
%ADD27O,1.000000X2.100000*%
%ADD28O,1.000000X1.600000*%
%ADD29R,1.425000X1.425000*%
%ADD30C,1.425000*%
%ADD31C,2.500000*%
%ADD32R,1.400000X1.400000*%
%ADD33C,1.200000*%
G04 APERTURE END LIST*
D10*
%TO.C,IC3*%
X36830000Y-8255000D03*
D11*
X39370000Y-8255000D03*
X41910000Y-8255000D03*
%TD*%
D12*
%TO.C,U4*%
X273373000Y12824000D03*
D13*
X273673000Y9794000D03*
X278523000Y9794000D03*
D12*
X278823000Y12824000D03*
D14*
X267208000Y12954000D03*
X267208000Y10414000D03*
D15*
X267208000Y7874000D03*
D14*
X267208000Y5334000D03*
X267208000Y2794000D03*
X267208000Y254000D03*
X267208000Y-2286000D03*
D15*
X267208000Y-4826000D03*
D14*
X267208000Y-7366000D03*
X267208000Y-9906000D03*
X267208000Y-12446000D03*
X267208000Y-14986000D03*
D15*
X267208000Y-17526000D03*
D14*
X267208000Y-20066000D03*
X267208000Y-22606000D03*
X267208000Y-25146000D03*
X267208000Y-27686000D03*
D15*
X267208000Y-30226000D03*
D14*
X267208000Y-32766000D03*
X267208000Y-35306000D03*
X284988000Y-35306000D03*
X284988000Y-32766000D03*
D15*
X284988000Y-30226000D03*
D14*
X284988000Y-27686000D03*
X284988000Y-25146000D03*
X284988000Y-22606000D03*
X284988000Y-20066000D03*
D15*
X284988000Y-17526000D03*
D14*
X284988000Y-14986000D03*
X284988000Y-12446000D03*
X284988000Y-9906000D03*
X284988000Y-7366000D03*
D15*
X284988000Y-4826000D03*
D14*
X284988000Y-2286000D03*
X284988000Y254000D03*
X284988000Y2794000D03*
X284988000Y5334000D03*
D15*
X284988000Y7874000D03*
D14*
X284988000Y10414000D03*
X284988000Y12954000D03*
X273558000Y-35076000D03*
D15*
X276098000Y-35076000D03*
D14*
X278638000Y-35076000D03*
%TD*%
D15*
%TO.C,J24*%
X141986000Y-112268000D03*
D14*
X139446000Y-112268000D03*
X136906000Y-112268000D03*
X134366000Y-112268000D03*
X131826000Y-112268000D03*
X129286000Y-112268000D03*
X126746000Y-112268000D03*
X124206000Y-112268000D03*
%TD*%
D10*
%TO.C,DS4*%
X238340000Y-47246000D03*
D11*
X240880000Y-47246000D03*
X243420000Y-47246000D03*
X245960000Y-47246000D03*
X248500000Y-47246000D03*
X251040000Y-47246000D03*
X253580000Y-47246000D03*
X256120000Y-47246000D03*
X258660000Y-47246000D03*
X261200000Y-47246000D03*
X263740000Y-47246000D03*
X266280000Y-47246000D03*
X268820000Y-47246000D03*
X271360000Y-47246000D03*
X273900000Y-47246000D03*
X276440000Y-47246000D03*
X233340000Y-65786000D03*
X307340000Y-60706000D03*
X233340000Y-60706000D03*
X307340000Y-65786000D03*
D16*
X232840000Y-47746000D03*
X307840000Y-47746000D03*
X307840000Y-78746000D03*
X232840000Y-78746000D03*
%TD*%
D15*
%TO.C,J16*%
X25400000Y-43643000D03*
D14*
X27940000Y-43643000D03*
X30480000Y-43643000D03*
X33020000Y-43643000D03*
X35560000Y-43643000D03*
%TD*%
D15*
%TO.C,J27*%
X121158000Y-3810000D03*
D14*
X121158000Y-6350000D03*
X121158000Y-8890000D03*
X121158000Y-11430000D03*
X121158000Y-13970000D03*
X121158000Y-16510000D03*
X121158000Y-19050000D03*
X121158000Y-21590000D03*
X121158000Y-24130000D03*
X121158000Y-26670000D03*
X121158000Y-29210000D03*
X121158000Y-31750000D03*
X121158000Y-34290000D03*
X121158000Y-36830000D03*
X121158000Y-39370000D03*
X121158000Y-41910000D03*
X121158000Y-44450000D03*
X121158000Y-46990000D03*
X121158000Y-49530000D03*
X121158000Y-52070000D03*
%TD*%
D17*
%TO.C,H2*%
X4572000Y-4572000D03*
D18*
X4572000Y-4572000D03*
%TD*%
D15*
%TO.C,J15*%
X23573000Y-83450000D03*
D14*
X23573000Y-85990000D03*
X23573000Y-88530000D03*
%TD*%
D15*
%TO.C,J2*%
X185928000Y-27178000D03*
D14*
X185928000Y-24638000D03*
X185928000Y-22098000D03*
X185928000Y-19558000D03*
X185928000Y-17018000D03*
X185928000Y-14478000D03*
X185928000Y-11938000D03*
X185928000Y-9398000D03*
X185928000Y-6858000D03*
X185928000Y-4318000D03*
%TD*%
D15*
%TO.C,J1*%
X25400000Y-50038000D03*
D14*
X27940000Y-50038000D03*
X30480000Y-50038000D03*
X33020000Y-50038000D03*
X35560000Y-50038000D03*
%TD*%
D17*
%TO.C,H3*%
X215900000Y-146050000D03*
D18*
X215900000Y-146050000D03*
%TD*%
D15*
%TO.C,J36*%
X138684000Y-52070000D03*
D14*
X138684000Y-49530000D03*
X138684000Y-46990000D03*
X138684000Y-44450000D03*
X138684000Y-41910000D03*
X138684000Y-39370000D03*
X138684000Y-36830000D03*
X138684000Y-34290000D03*
X138684000Y-31750000D03*
X138684000Y-29210000D03*
X138684000Y-26670000D03*
X138684000Y-24130000D03*
X138684000Y-21590000D03*
X138684000Y-19050000D03*
X138684000Y-16510000D03*
X138684000Y-13970000D03*
X138684000Y-11430000D03*
X138684000Y-8890000D03*
X138684000Y-6350000D03*
X138684000Y-3810000D03*
%TD*%
D19*
%TO.C,IC6*%
X193104000Y-35306000D03*
D20*
X193104000Y-37846000D03*
X193104000Y-40386000D03*
X193104000Y-42926000D03*
X200914000Y-42926000D03*
X200914000Y-40386000D03*
X200914000Y-37846000D03*
X200914000Y-35306000D03*
%TD*%
D15*
%TO.C,J42*%
X87376000Y-4318000D03*
%TD*%
%TO.C,J18*%
X45466000Y-4318000D03*
D14*
X48006000Y-4318000D03*
X45466000Y-6858000D03*
X48006000Y-6858000D03*
X45466000Y-9398000D03*
X48006000Y-9398000D03*
X45466000Y-11938000D03*
X48006000Y-11938000D03*
X45466000Y-14478000D03*
X48006000Y-14478000D03*
X45466000Y-17018000D03*
X48006000Y-17018000D03*
X45466000Y-19558000D03*
X48006000Y-19558000D03*
X45466000Y-22098000D03*
X48006000Y-22098000D03*
X45466000Y-24638000D03*
X48006000Y-24638000D03*
X45466000Y-27178000D03*
X48006000Y-27178000D03*
X45466000Y-29718000D03*
X48006000Y-29718000D03*
X45466000Y-32258000D03*
X48006000Y-32258000D03*
X45466000Y-34798000D03*
X48006000Y-34798000D03*
X45466000Y-37338000D03*
X48006000Y-37338000D03*
X45466000Y-39878000D03*
X48006000Y-39878000D03*
X45466000Y-42418000D03*
X48006000Y-42418000D03*
X45466000Y-44958000D03*
X48006000Y-44958000D03*
X45466000Y-47498000D03*
X48006000Y-47498000D03*
X45466000Y-50038000D03*
X48006000Y-50038000D03*
X45466000Y-52578000D03*
X48006000Y-52578000D03*
%TD*%
D15*
%TO.C,J6*%
X103124000Y-40640000D03*
D14*
X100584000Y-40640000D03*
%TD*%
D15*
%TO.C,J5*%
X16510000Y-35560000D03*
D14*
X16510000Y-38100000D03*
X16510000Y-40640000D03*
X16510000Y-43180000D03*
X16510000Y-45720000D03*
X16510000Y-48260000D03*
X16510000Y-50800000D03*
X16510000Y-53340000D03*
%TD*%
D15*
%TO.C,J17*%
X25407000Y-36785000D03*
D14*
X27947000Y-36785000D03*
X30487000Y-36785000D03*
X33027000Y-36785000D03*
X35567000Y-36785000D03*
%TD*%
D15*
%TO.C,J8*%
X203962000Y-35306000D03*
D14*
X203962000Y-37846000D03*
X203962000Y-40386000D03*
X203962000Y-42926000D03*
%TD*%
D15*
%TO.C,J28*%
X190087000Y-42926000D03*
D14*
X190087000Y-40386000D03*
X190087000Y-37846000D03*
X190087000Y-35306000D03*
%TD*%
D21*
%TO.C,S3*%
X10160000Y-20356000D03*
X3660000Y-20356000D03*
X10160000Y-15856000D03*
X3660000Y-15856000D03*
%TD*%
D15*
%TO.C,J7*%
X79340000Y-68828000D03*
D14*
X81880000Y-68828000D03*
X84420000Y-68828000D03*
X86960000Y-68828000D03*
X89500000Y-68828000D03*
X92040000Y-68828000D03*
X94580000Y-68828000D03*
X97120000Y-68828000D03*
X99660000Y-68828000D03*
X102200000Y-68828000D03*
X104740000Y-68828000D03*
X107280000Y-68828000D03*
X109820000Y-68828000D03*
X112360000Y-68828000D03*
X114900000Y-68828000D03*
X117440000Y-68828000D03*
%TD*%
D15*
%TO.C,J4*%
X158836000Y-42926000D03*
D14*
X158836000Y-40386000D03*
X158836000Y-37846000D03*
X158836000Y-35306000D03*
%TD*%
D15*
%TO.C,J41*%
X151638000Y-13946000D03*
%TD*%
D22*
%TO.C,S11*%
X94702000Y-21846000D03*
D23*
X92202000Y-25046000D03*
X89702000Y-21846000D03*
%TD*%
D15*
%TO.C,J46*%
X151638000Y-8890000D03*
%TD*%
D22*
%TO.C,S14*%
X158964000Y-21336000D03*
D23*
X156464000Y-24536000D03*
X153964000Y-21336000D03*
%TD*%
D15*
%TO.C,J32*%
X35560000Y-19812000D03*
D14*
X38100000Y-19812000D03*
X35560000Y-22352000D03*
X38100000Y-22352000D03*
X35560000Y-24892000D03*
X38100000Y-24892000D03*
X35560000Y-27432000D03*
X38100000Y-27432000D03*
X35560000Y-29972000D03*
X38100000Y-29972000D03*
%TD*%
D15*
%TO.C,J14*%
X194818000Y-23622000D03*
D14*
X197358000Y-23622000D03*
X199898000Y-23622000D03*
X202438000Y-23622000D03*
X204978000Y-23622000D03*
X207518000Y-23622000D03*
X210058000Y-23622000D03*
%TD*%
D21*
%TO.C,S12*%
X161834000Y-12648000D03*
X161834000Y-6148000D03*
X166334000Y-12648000D03*
X166334000Y-6148000D03*
%TD*%
D24*
%TO.C,Y2*%
X93756000Y-49930000D03*
X91216000Y-49930000D03*
%TD*%
D15*
%TO.C,J40*%
X87376000Y-14478000D03*
%TD*%
D21*
%TO.C,S6*%
X10160000Y-44668000D03*
X3660000Y-44668000D03*
X10160000Y-40168000D03*
X3660000Y-40168000D03*
%TD*%
D10*
%TO.C,LS1*%
X39116000Y-60745000D03*
D25*
X39116000Y-65745000D03*
%TD*%
D22*
%TO.C,S13*%
X11510000Y-8636000D03*
D23*
X14010000Y-5436000D03*
X16510000Y-8636000D03*
%TD*%
D26*
%TO.C,J34*%
X28726000Y-9037000D03*
X22946000Y-9037000D03*
D27*
X30156000Y-9567000D03*
D28*
X30156000Y-5387000D03*
D27*
X21516000Y-9567000D03*
D28*
X21516000Y-5387000D03*
%TD*%
D21*
%TO.C,S4*%
X10160000Y-28412000D03*
X3660000Y-28412000D03*
X10160000Y-23912000D03*
X3660000Y-23912000D03*
%TD*%
D17*
%TO.C,H4*%
X3810000Y-146050000D03*
D18*
X3810000Y-146050000D03*
%TD*%
D15*
%TO.C,J30*%
X179324000Y-27178000D03*
D14*
X179324000Y-24638000D03*
X179324000Y-22098000D03*
X179324000Y-19558000D03*
X179324000Y-17018000D03*
X179324000Y-14478000D03*
X179324000Y-11938000D03*
X179324000Y-9398000D03*
X179324000Y-6858000D03*
X179324000Y-4318000D03*
%TD*%
D21*
%TO.C,S9*%
X10160000Y-69052000D03*
X3660000Y-69052000D03*
X10160000Y-64552000D03*
X3660000Y-64552000D03*
%TD*%
D15*
%TO.C,J31*%
X172974000Y-27178000D03*
D14*
X172974000Y-24638000D03*
X172974000Y-22098000D03*
X172974000Y-19558000D03*
X172974000Y-17018000D03*
X172974000Y-14478000D03*
X172974000Y-11938000D03*
X172974000Y-9398000D03*
X172974000Y-6858000D03*
X172974000Y-4318000D03*
%TD*%
D15*
%TO.C,J44*%
X151638000Y-3810000D03*
%TD*%
D12*
%TO.C,U1*%
X240099000Y12570000D03*
D13*
X240399000Y9540000D03*
X245249000Y9540000D03*
D12*
X245549000Y12570000D03*
D14*
X233934000Y12700000D03*
X233934000Y10160000D03*
D15*
X233934000Y7620000D03*
D14*
X233934000Y5080000D03*
X233934000Y2540000D03*
X233934000Y0D03*
X233934000Y-2540000D03*
D15*
X233934000Y-5080000D03*
D14*
X233934000Y-7620000D03*
X233934000Y-10160000D03*
X233934000Y-12700000D03*
X233934000Y-15240000D03*
D15*
X233934000Y-17780000D03*
D14*
X233934000Y-20320000D03*
X233934000Y-22860000D03*
X233934000Y-25400000D03*
X233934000Y-27940000D03*
D15*
X233934000Y-30480000D03*
D14*
X233934000Y-33020000D03*
X233934000Y-35560000D03*
X251714000Y-35560000D03*
X251714000Y-33020000D03*
D15*
X251714000Y-30480000D03*
D14*
X251714000Y-27940000D03*
X251714000Y-25400000D03*
X251714000Y-22860000D03*
X251714000Y-20320000D03*
D15*
X251714000Y-17780000D03*
D14*
X251714000Y-15240000D03*
X251714000Y-12700000D03*
X251714000Y-10160000D03*
X251714000Y-7620000D03*
D15*
X251714000Y-5080000D03*
D14*
X251714000Y-2540000D03*
X251714000Y0D03*
X251714000Y2540000D03*
X251714000Y5080000D03*
D15*
X251714000Y7620000D03*
D14*
X251714000Y10160000D03*
X251714000Y12700000D03*
X240284000Y-35330000D03*
D15*
X242824000Y-35330000D03*
D14*
X245364000Y-35330000D03*
%TD*%
D21*
%TO.C,S8*%
X10160000Y-60924000D03*
X3660000Y-60924000D03*
X10160000Y-56424000D03*
X3660000Y-56424000D03*
%TD*%
D29*
%TO.C,DS2*%
X117602000Y-145288000D03*
D30*
X120142000Y-145288000D03*
X122682000Y-145288000D03*
X125222000Y-145288000D03*
X127762000Y-145288000D03*
X130302000Y-145288000D03*
X130302000Y-130048000D03*
X127762000Y-130048000D03*
X125222000Y-130048000D03*
X122682000Y-130048000D03*
X120142000Y-130048000D03*
X117602000Y-130048000D03*
%TD*%
D15*
%TO.C,J3*%
X98343000Y-111652000D03*
D14*
X98343000Y-114192000D03*
X98343000Y-116732000D03*
X98343000Y-119272000D03*
X98343000Y-121812000D03*
X98343000Y-124352000D03*
%TD*%
D15*
%TO.C,J21*%
X110998000Y-3810000D03*
D14*
X113538000Y-3810000D03*
X110998000Y-6350000D03*
X113538000Y-6350000D03*
X110998000Y-8890000D03*
X113538000Y-8890000D03*
X110998000Y-11430000D03*
X113538000Y-11430000D03*
X110998000Y-13970000D03*
X113538000Y-13970000D03*
X110998000Y-16510000D03*
X113538000Y-16510000D03*
X110998000Y-19050000D03*
X113538000Y-19050000D03*
X110998000Y-21590000D03*
X113538000Y-21590000D03*
X110998000Y-24130000D03*
X113538000Y-24130000D03*
X110998000Y-26670000D03*
X113538000Y-26670000D03*
X110998000Y-29210000D03*
X113538000Y-29210000D03*
X110998000Y-31750000D03*
X113538000Y-31750000D03*
X110998000Y-34290000D03*
X113538000Y-34290000D03*
X110998000Y-36830000D03*
X113538000Y-36830000D03*
X110998000Y-39370000D03*
X113538000Y-39370000D03*
X110998000Y-41910000D03*
X113538000Y-41910000D03*
X110998000Y-44450000D03*
X113538000Y-44450000D03*
X110998000Y-46990000D03*
X113538000Y-46990000D03*
X110998000Y-49530000D03*
X113538000Y-49530000D03*
X110998000Y-52070000D03*
X113538000Y-52070000D03*
%TD*%
D15*
%TO.C,J25*%
X108082000Y-112268000D03*
D14*
X110622000Y-112268000D03*
X113162000Y-112268000D03*
X115702000Y-112268000D03*
%TD*%
D15*
%TO.C,J22*%
X146558000Y-3810000D03*
D14*
X149098000Y-3810000D03*
X146558000Y-6350000D03*
X149098000Y-6350000D03*
X146558000Y-8890000D03*
X149098000Y-8890000D03*
X146558000Y-11430000D03*
X149098000Y-11430000D03*
X146558000Y-13970000D03*
X149098000Y-13970000D03*
X146558000Y-16510000D03*
X149098000Y-16510000D03*
X146558000Y-19050000D03*
X149098000Y-19050000D03*
X146558000Y-21590000D03*
X149098000Y-21590000D03*
X146558000Y-24130000D03*
X149098000Y-24130000D03*
X146558000Y-26670000D03*
X149098000Y-26670000D03*
X146558000Y-29210000D03*
X149098000Y-29210000D03*
X146558000Y-31750000D03*
X149098000Y-31750000D03*
X146558000Y-34290000D03*
X149098000Y-34290000D03*
X146558000Y-36830000D03*
X149098000Y-36830000D03*
X146558000Y-39370000D03*
X149098000Y-39370000D03*
X146558000Y-41910000D03*
X149098000Y-41910000D03*
X146558000Y-44450000D03*
X149098000Y-44450000D03*
X146558000Y-46990000D03*
X149098000Y-46990000D03*
X146558000Y-49530000D03*
X149098000Y-49530000D03*
X146558000Y-52070000D03*
X149098000Y-52070000D03*
%TD*%
D15*
%TO.C,J37*%
X72644000Y-52578000D03*
D14*
X72644000Y-50038000D03*
X72644000Y-47498000D03*
X72644000Y-44958000D03*
X72644000Y-42418000D03*
X72644000Y-39878000D03*
X72644000Y-37338000D03*
X72644000Y-34798000D03*
X72644000Y-32258000D03*
X72644000Y-29718000D03*
X72644000Y-27178000D03*
X72644000Y-24638000D03*
X72644000Y-22098000D03*
X72644000Y-19558000D03*
X72644000Y-17018000D03*
X72644000Y-14478000D03*
X72644000Y-11938000D03*
X72644000Y-9398000D03*
X72644000Y-6858000D03*
X72644000Y-4318000D03*
%TD*%
D21*
%TO.C,S5*%
X10160000Y-36540000D03*
X3660000Y-36540000D03*
X10160000Y-32040000D03*
X3660000Y-32040000D03*
%TD*%
D15*
%TO.C,J29*%
X66040000Y-63030000D03*
D14*
X63500000Y-63030000D03*
X60960000Y-63030000D03*
X58420000Y-63030000D03*
X55880000Y-63030000D03*
X53340000Y-63030000D03*
X50800000Y-63030000D03*
X48260000Y-63030000D03*
%TD*%
D31*
%TO.C,RV1*%
X63754000Y-84836000D03*
D25*
X61254000Y-87336000D03*
X66254000Y-84836000D03*
D32*
X61254000Y-82336000D03*
%TD*%
D15*
%TO.C,J13*%
X28448000Y-77153000D03*
D14*
X25908000Y-77153000D03*
X23368000Y-77153000D03*
%TD*%
D21*
%TO.C,S10*%
X10160000Y-77180000D03*
X3660000Y-77180000D03*
X10160000Y-72680000D03*
X3660000Y-72680000D03*
%TD*%
D24*
%TO.C,J12*%
X207010000Y-6858000D03*
X199010000Y-6858000D03*
%TD*%
D15*
%TO.C,J11*%
X39370000Y-12954000D03*
D14*
X36830000Y-12954000D03*
X34290000Y-12954000D03*
%TD*%
D15*
%TO.C,J43*%
X87376000Y-9398000D03*
%TD*%
D21*
%TO.C,S7*%
X10160000Y-52796000D03*
X3660000Y-52796000D03*
X10160000Y-48296000D03*
X3660000Y-48296000D03*
%TD*%
D33*
%TO.C,DS1*%
X2824000Y-94269000D03*
X2824000Y-140719000D03*
X68424000Y-94269000D03*
X68424000Y-140719000D03*
%TD*%
D31*
%TO.C,VR2*%
X26924000Y-64556000D03*
D25*
X24424000Y-62056000D03*
X26924000Y-67056000D03*
D32*
X29424000Y-62056000D03*
%TD*%
D15*
%TO.C,J26*%
X55626000Y-4318000D03*
D14*
X55626000Y-6858000D03*
X55626000Y-9398000D03*
X55626000Y-11938000D03*
X55626000Y-14478000D03*
X55626000Y-17018000D03*
X55626000Y-19558000D03*
X55626000Y-22098000D03*
X55626000Y-24638000D03*
X55626000Y-27178000D03*
X55626000Y-29718000D03*
X55626000Y-32258000D03*
X55626000Y-34798000D03*
X55626000Y-37338000D03*
X55626000Y-39878000D03*
X55626000Y-42418000D03*
X55626000Y-44958000D03*
X55626000Y-47498000D03*
X55626000Y-50038000D03*
X55626000Y-52578000D03*
%TD*%
D15*
%TO.C,J33*%
X103124000Y-33274000D03*
D14*
X103124000Y-30734000D03*
%TD*%
D15*
%TO.C,J19*%
X40132000Y-86360000D03*
D14*
X40132000Y-83820000D03*
X42672000Y-86360000D03*
X42672000Y-83820000D03*
X45212000Y-86360000D03*
X45212000Y-83820000D03*
X47752000Y-86360000D03*
X47752000Y-83820000D03*
X50292000Y-86360000D03*
X50292000Y-83820000D03*
X52832000Y-86360000D03*
X52832000Y-83820000D03*
X55372000Y-86360000D03*
X55372000Y-83820000D03*
%TD*%
D15*
%TO.C,J9*%
X95504000Y-56901000D03*
D14*
X95504000Y-54361000D03*
%TD*%
D15*
%TO.C,J10*%
X100584000Y-43180000D03*
D14*
X103124000Y-43180000D03*
X100584000Y-45720000D03*
X103124000Y-45720000D03*
%TD*%
D15*
%TO.C,J20*%
X82296000Y-4318000D03*
D14*
X84836000Y-4318000D03*
X82296000Y-6858000D03*
X84836000Y-6858000D03*
X82296000Y-9398000D03*
X84836000Y-9398000D03*
X82296000Y-11938000D03*
X84836000Y-11938000D03*
X82296000Y-14478000D03*
X84836000Y-14478000D03*
X82296000Y-17018000D03*
X84836000Y-17018000D03*
X82296000Y-19558000D03*
X84836000Y-19558000D03*
X82296000Y-22098000D03*
X84836000Y-22098000D03*
X82296000Y-24638000D03*
X84836000Y-24638000D03*
X82296000Y-27178000D03*
X84836000Y-27178000D03*
X82296000Y-29718000D03*
X84836000Y-29718000D03*
X82296000Y-32258000D03*
X84836000Y-32258000D03*
X82296000Y-34798000D03*
X84836000Y-34798000D03*
X82296000Y-37338000D03*
X84836000Y-37338000D03*
X82296000Y-39878000D03*
X84836000Y-39878000D03*
X82296000Y-42418000D03*
X84836000Y-42418000D03*
X82296000Y-44958000D03*
X84836000Y-44958000D03*
X82296000Y-47498000D03*
X84836000Y-47498000D03*
X82296000Y-50038000D03*
X84836000Y-50038000D03*
X82296000Y-52578000D03*
X84836000Y-52578000D03*
%TD*%
D21*
%TO.C,S1*%
X98878000Y-12700000D03*
X98878000Y-6200000D03*
X103378000Y-12700000D03*
X103378000Y-6200000D03*
%TD*%
D15*
%TO.C,J23*%
X171282000Y-35306000D03*
D14*
X171282000Y-37846000D03*
X171282000Y-40386000D03*
X171282000Y-42926000D03*
%TD*%
D31*
%TO.C,VR1*%
X18368000Y-64603000D03*
D25*
X15868000Y-62103000D03*
X18368000Y-67103000D03*
D32*
X20868000Y-62103000D03*
%TD*%
D17*
%TO.C,H1*%
X216000000Y-4000000D03*
D18*
X216000000Y-4000000D03*
%TD*%
M02*
