%TF.GenerationSoftware,KiCad,Pcbnew,9.0.0*%
%TF.CreationDate,2025-05-15T12:50:59+02:00*%
%TF.ProjectId,board,626f6172-642e-46b6-9963-61645f706362,rev?*%
%TF.SameCoordinates,Original*%
%TF.FileFunction,Copper,L1,Top*%
%TF.FilePolarity,Positive*%
%FSLAX46Y46*%
G04 Gerber Fmt 4.6, Leading zero omitted, Abs format (unit mm)*
G04 Created by KiCad (PCBNEW 9.0.0) date 2025-05-15 12:50:59*
%MOMM*%
%LPD*%
G01*
G04 APERTURE LIST*
G04 Aperture macros list*
%AMRoundRect*
0 Rectangle with rounded corners*
0 $1 Rounding radius*
0 $2 $3 $4 $5 $6 $7 $8 $9 X,Y pos of 4 corners*
0 Add a 4 corners polygon primitive as box body*
4,1,4,$2,$3,$4,$5,$6,$7,$8,$9,$2,$3,0*
0 Add four circle primitives for the rounded corners*
1,1,$1+$1,$2,$3*
1,1,$1+$1,$4,$5*
1,1,$1+$1,$6,$7*
1,1,$1+$1,$8,$9*
0 Add four rect primitives between the rounded corners*
20,1,$1+$1,$2,$3,$4,$5,0*
20,1,$1+$1,$4,$5,$6,$7,0*
20,1,$1+$1,$6,$7,$8,$9,0*
20,1,$1+$1,$8,$9,$2,$3,0*%
G04 Aperture macros list end*
%TA.AperFunction,ComponentPad*%
%ADD10R,1.500000X1.500000*%
%TD*%
%TA.AperFunction,ComponentPad*%
%ADD11C,1.500000*%
%TD*%
%TA.AperFunction,SMDPad,CuDef*%
%ADD12RoundRect,0.200000X0.275000X-0.200000X0.275000X0.200000X-0.275000X0.200000X-0.275000X-0.200000X0*%
%TD*%
%TA.AperFunction,ComponentPad*%
%ADD13O,1.700000X1.700000*%
%TD*%
%TA.AperFunction,SMDPad,CuDef*%
%ADD14R,3.500000X1.700000*%
%TD*%
%TA.AperFunction,ComponentPad*%
%ADD15R,1.700000X1.700000*%
%TD*%
%TA.AperFunction,SMDPad,CuDef*%
%ADD16R,1.700000X3.500000*%
%TD*%
%TA.AperFunction,SMDPad,CuDef*%
%ADD17RoundRect,0.200000X0.200000X0.275000X-0.200000X0.275000X-0.200000X-0.275000X0.200000X-0.275000X0*%
%TD*%
%TA.AperFunction,ComponentPad*%
%ADD18C,5.000000*%
%TD*%
%TA.AperFunction,SMDPad,CuDef*%
%ADD19RoundRect,0.250000X0.650000X-1.000000X0.650000X1.000000X-0.650000X1.000000X-0.650000X-1.000000X0*%
%TD*%
%TA.AperFunction,SMDPad,CuDef*%
%ADD20RoundRect,0.150000X-0.587500X-0.150000X0.587500X-0.150000X0.587500X0.150000X-0.587500X0.150000X0*%
%TD*%
%TA.AperFunction,SMDPad,CuDef*%
%ADD21R,1.000000X0.950000*%
%TD*%
%TA.AperFunction,ComponentPad*%
%ADD22C,3.600000*%
%TD*%
%TA.AperFunction,ConnectorPad*%
%ADD23C,5.600000*%
%TD*%
%TA.AperFunction,ComponentPad*%
%ADD24R,1.159000X1.159000*%
%TD*%
%TA.AperFunction,ComponentPad*%
%ADD25C,1.159000*%
%TD*%
%TA.AperFunction,SMDPad,CuDef*%
%ADD26R,0.950000X1.000000*%
%TD*%
%TA.AperFunction,SMDPad,CuDef*%
%ADD27R,0.950000X0.900000*%
%TD*%
%TA.AperFunction,SMDPad,CuDef*%
%ADD28R,1.600000X0.500000*%
%TD*%
%TA.AperFunction,ComponentPad*%
%ADD29C,2.000000*%
%TD*%
%TA.AperFunction,SMDPad,CuDef*%
%ADD30RoundRect,0.225000X-0.225000X-0.250000X0.225000X-0.250000X0.225000X0.250000X-0.225000X0.250000X0*%
%TD*%
%TA.AperFunction,ComponentPad*%
%ADD31R,1.300000X1.300000*%
%TD*%
%TA.AperFunction,ComponentPad*%
%ADD32C,1.300000*%
%TD*%
%TA.AperFunction,SMDPad,CuDef*%
%ADD33R,1.400000X0.450000*%
%TD*%
%TA.AperFunction,ComponentPad*%
%ADD34C,1.000000*%
%TD*%
%TA.AperFunction,SMDPad,CuDef*%
%ADD35RoundRect,0.150000X-0.150000X0.587500X-0.150000X-0.587500X0.150000X-0.587500X0.150000X0.587500X0*%
%TD*%
%TA.AperFunction,ComponentPad*%
%ADD36C,1.400000*%
%TD*%
%TA.AperFunction,SMDPad,CuDef*%
%ADD37R,0.600000X1.450000*%
%TD*%
%TA.AperFunction,SMDPad,CuDef*%
%ADD38R,0.300000X1.450000*%
%TD*%
%TA.AperFunction,HeatsinkPad*%
%ADD39O,1.000000X2.100000*%
%TD*%
%TA.AperFunction,HeatsinkPad*%
%ADD40O,1.000000X1.600000*%
%TD*%
%TA.AperFunction,SMDPad,CuDef*%
%ADD41R,1.525000X0.650000*%
%TD*%
%TA.AperFunction,SMDPad,CuDef*%
%ADD42RoundRect,0.200000X-0.275000X0.200000X-0.275000X-0.200000X0.275000X-0.200000X0.275000X0.200000X0*%
%TD*%
%TA.AperFunction,SMDPad,CuDef*%
%ADD43RoundRect,0.200000X-0.200000X-0.275000X0.200000X-0.275000X0.200000X0.275000X-0.200000X0.275000X0*%
%TD*%
%TA.AperFunction,ComponentPad*%
%ADD44R,1.425000X1.425000*%
%TD*%
%TA.AperFunction,ComponentPad*%
%ADD45C,1.425000*%
%TD*%
%TA.AperFunction,SMDPad,CuDef*%
%ADD46RoundRect,0.225000X0.225000X0.250000X-0.225000X0.250000X-0.225000X-0.250000X0.225000X-0.250000X0*%
%TD*%
%TA.AperFunction,SMDPad,CuDef*%
%ADD47RoundRect,0.225000X0.250000X-0.225000X0.250000X0.225000X-0.250000X0.225000X-0.250000X-0.225000X0*%
%TD*%
%TA.AperFunction,SMDPad,CuDef*%
%ADD48RoundRect,0.150000X0.150000X-0.587500X0.150000X0.587500X-0.150000X0.587500X-0.150000X-0.587500X0*%
%TD*%
%TA.AperFunction,ComponentPad*%
%ADD49R,1.400000X1.400000*%
%TD*%
%TA.AperFunction,SMDPad,CuDef*%
%ADD50R,0.700000X1.600000*%
%TD*%
%TA.AperFunction,SMDPad,CuDef*%
%ADD51R,1.200000X1.400000*%
%TD*%
%TA.AperFunction,SMDPad,CuDef*%
%ADD52R,1.600000X1.400000*%
%TD*%
%TA.AperFunction,SMDPad,CuDef*%
%ADD53R,1.200000X2.200000*%
%TD*%
%TA.AperFunction,SMDPad,CuDef*%
%ADD54R,1.725000X0.450000*%
%TD*%
%TA.AperFunction,WasherPad*%
%ADD55C,1.200000*%
%TD*%
%TA.AperFunction,SMDPad,CuDef*%
%ADD56R,6.000000X0.400000*%
%TD*%
%TA.AperFunction,SMDPad,CuDef*%
%ADD57RoundRect,0.225000X-0.250000X0.225000X-0.250000X-0.225000X0.250000X-0.225000X0.250000X0.225000X0*%
%TD*%
%TA.AperFunction,ViaPad*%
%ADD58C,0.600000*%
%TD*%
%TA.AperFunction,Conductor*%
%ADD59C,0.508000*%
%TD*%
%TA.AperFunction,Conductor*%
%ADD60C,0.304800*%
%TD*%
%TA.AperFunction,Conductor*%
%ADD61C,0.203200*%
%TD*%
%TA.AperFunction,Conductor*%
%ADD62C,0.254000*%
%TD*%
G04 APERTURE END LIST*
D10*
%TO.P,IC3,1,GND*%
%TO.N,GND*%
X36830000Y-8255000D03*
D11*
%TO.P,IC3,2,DQ*%
%TO.N,Net-(IC3-DQ)*%
X39370000Y-8255000D03*
%TO.P,IC3,3,VDD*%
%TO.N,+3.3V*%
X41910000Y-8255000D03*
%TD*%
D12*
%TO.P,R38,1*%
%TO.N,+3.3V*%
X54864000Y-74637000D03*
%TO.P,R38,2*%
%TO.N,Net-(LED7-A)*%
X54864000Y-72987000D03*
%TD*%
%TO.P,R14,1*%
%TO.N,Net-(J13-Pin_2)*%
X30988000Y-71691000D03*
%TO.P,R14,2*%
%TO.N,Net-(R14-Pad2)*%
X30988000Y-70041000D03*
%TD*%
D13*
%TO.P,U4,1,GPIO0*%
%TO.N,unconnected-(U4-GPIO0-Pad1)_1*%
X267208000Y12954000D03*
D14*
%TO.N,unconnected-(U4-GPIO0-Pad1)*%
X266308000Y12954000D03*
D13*
%TO.P,U4,2,GPIO1*%
%TO.N,unconnected-(U4-GPIO1-Pad2)_1*%
X267208000Y10414000D03*
D14*
%TO.N,unconnected-(U4-GPIO1-Pad2)*%
X266308000Y10414000D03*
D15*
%TO.P,U4,3,GND*%
%TO.N,unconnected-(U4-GND-Pad3)_1*%
X267208000Y7874000D03*
D14*
%TO.N,unconnected-(U4-GND-Pad3)*%
X266308000Y7874000D03*
D13*
%TO.P,U4,4,GPIO2*%
%TO.N,unconnected-(U4-GPIO2-Pad4)_1*%
X267208000Y5334000D03*
D14*
%TO.N,unconnected-(U4-GPIO2-Pad4)*%
X266308000Y5334000D03*
D13*
%TO.P,U4,5,GPIO3*%
%TO.N,unconnected-(U4-GPIO3-Pad5)*%
X267208000Y2794000D03*
D14*
%TO.N,unconnected-(U4-GPIO3-Pad5)_1*%
X266308000Y2794000D03*
D13*
%TO.P,U4,6,GPIO4*%
%TO.N,unconnected-(U4-GPIO4-Pad6)_1*%
X267208000Y254000D03*
D14*
%TO.N,unconnected-(U4-GPIO4-Pad6)*%
X266308000Y254000D03*
D13*
%TO.P,U4,7,GPIO5*%
%TO.N,unconnected-(U4-GPIO5-Pad7)_1*%
X267208000Y-2286000D03*
D14*
%TO.N,unconnected-(U4-GPIO5-Pad7)*%
X266308000Y-2286000D03*
D15*
%TO.P,U4,8,GND*%
%TO.N,unconnected-(U4-GND-Pad8)_1*%
X267208000Y-4826000D03*
D14*
%TO.N,unconnected-(U4-GND-Pad8)*%
X266308000Y-4826000D03*
D13*
%TO.P,U4,9,GPIO6*%
%TO.N,unconnected-(U4-GPIO6-Pad9)*%
X267208000Y-7366000D03*
D14*
%TO.N,unconnected-(U4-GPIO6-Pad9)_1*%
X266308000Y-7366000D03*
D13*
%TO.P,U4,10,GPIO7*%
%TO.N,unconnected-(U4-GPIO7-Pad10)*%
X267208000Y-9906000D03*
D14*
%TO.N,unconnected-(U4-GPIO7-Pad10)_1*%
X266308000Y-9906000D03*
D13*
%TO.P,U4,11,GPIO8*%
%TO.N,unconnected-(U4-GPIO8-Pad11)_1*%
X267208000Y-12446000D03*
D14*
%TO.N,unconnected-(U4-GPIO8-Pad11)*%
X266308000Y-12446000D03*
D13*
%TO.P,U4,12,GPIO9*%
%TO.N,unconnected-(U4-GPIO9-Pad12)_1*%
X267208000Y-14986000D03*
D14*
%TO.N,unconnected-(U4-GPIO9-Pad12)*%
X266308000Y-14986000D03*
D15*
%TO.P,U4,13,GND*%
%TO.N,unconnected-(U4-GND-Pad13)*%
X267208000Y-17526000D03*
D14*
%TO.N,unconnected-(U4-GND-Pad13)_1*%
X266308000Y-17526000D03*
D13*
%TO.P,U4,14,GPIO10*%
%TO.N,unconnected-(U4-GPIO10-Pad14)*%
X267208000Y-20066000D03*
D14*
%TO.N,unconnected-(U4-GPIO10-Pad14)_1*%
X266308000Y-20066000D03*
D13*
%TO.P,U4,15,GPIO11*%
%TO.N,unconnected-(U4-GPIO11-Pad15)_1*%
X267208000Y-22606000D03*
D14*
%TO.N,unconnected-(U4-GPIO11-Pad15)*%
X266308000Y-22606000D03*
D13*
%TO.P,U4,16,GPIO12*%
%TO.N,unconnected-(U4-GPIO12-Pad16)*%
X267208000Y-25146000D03*
D14*
%TO.N,unconnected-(U4-GPIO12-Pad16)_1*%
X266308000Y-25146000D03*
D13*
%TO.P,U4,17,GPIO13*%
%TO.N,unconnected-(U4-GPIO13-Pad17)*%
X267208000Y-27686000D03*
D14*
%TO.N,unconnected-(U4-GPIO13-Pad17)_1*%
X266308000Y-27686000D03*
D15*
%TO.P,U4,18,GND*%
%TO.N,unconnected-(U4-GND-Pad18)*%
X267208000Y-30226000D03*
D14*
%TO.N,unconnected-(U4-GND-Pad18)_1*%
X266308000Y-30226000D03*
D13*
%TO.P,U4,19,GPIO14*%
%TO.N,unconnected-(U4-GPIO14-Pad19)*%
X267208000Y-32766000D03*
D14*
%TO.N,unconnected-(U4-GPIO14-Pad19)_1*%
X266308000Y-32766000D03*
D13*
%TO.P,U4,20,GPIO15*%
%TO.N,unconnected-(U4-GPIO15-Pad20)_1*%
X267208000Y-35306000D03*
D14*
%TO.N,unconnected-(U4-GPIO15-Pad20)*%
X266308000Y-35306000D03*
D13*
%TO.P,U4,21,GPIO16*%
%TO.N,unconnected-(U4-GPIO16-Pad21)_1*%
X284988000Y-35306000D03*
D14*
%TO.N,unconnected-(U4-GPIO16-Pad21)*%
X285888000Y-35306000D03*
D13*
%TO.P,U4,22,GPIO17*%
%TO.N,unconnected-(U4-GPIO17-Pad22)_1*%
X284988000Y-32766000D03*
D14*
%TO.N,unconnected-(U4-GPIO17-Pad22)*%
X285888000Y-32766000D03*
D15*
%TO.P,U4,23,GND*%
%TO.N,unconnected-(U4-GND-Pad23)*%
X284988000Y-30226000D03*
D14*
%TO.N,unconnected-(U4-GND-Pad23)_1*%
X285888000Y-30226000D03*
D13*
%TO.P,U4,24,GPIO18*%
%TO.N,unconnected-(U4-GPIO18-Pad24)*%
X284988000Y-27686000D03*
D14*
%TO.N,unconnected-(U4-GPIO18-Pad24)_1*%
X285888000Y-27686000D03*
D13*
%TO.P,U4,25,GPIO19*%
%TO.N,unconnected-(U4-GPIO19-Pad25)*%
X284988000Y-25146000D03*
D14*
%TO.N,unconnected-(U4-GPIO19-Pad25)_1*%
X285888000Y-25146000D03*
D13*
%TO.P,U4,26,GPIO20*%
%TO.N,unconnected-(U4-GPIO20-Pad26)*%
X284988000Y-22606000D03*
D14*
%TO.N,unconnected-(U4-GPIO20-Pad26)_1*%
X285888000Y-22606000D03*
D13*
%TO.P,U4,27,GPIO21*%
%TO.N,unconnected-(U4-GPIO21-Pad27)*%
X284988000Y-20066000D03*
D14*
%TO.N,unconnected-(U4-GPIO21-Pad27)_1*%
X285888000Y-20066000D03*
D15*
%TO.P,U4,28,GND*%
%TO.N,unconnected-(U4-GND-Pad28)_1*%
X284988000Y-17526000D03*
D14*
%TO.N,unconnected-(U4-GND-Pad28)*%
X285888000Y-17526000D03*
D13*
%TO.P,U4,29,GPIO22*%
%TO.N,unconnected-(U4-GPIO22-Pad29)_1*%
X284988000Y-14986000D03*
D14*
%TO.N,unconnected-(U4-GPIO22-Pad29)*%
X285888000Y-14986000D03*
D13*
%TO.P,U4,30,RUN*%
%TO.N,unconnected-(U4-RUN-Pad30)_1*%
X284988000Y-12446000D03*
D14*
%TO.N,unconnected-(U4-RUN-Pad30)*%
X285888000Y-12446000D03*
D13*
%TO.P,U4,31,GPIO26_ADC0*%
%TO.N,unconnected-(U4-GPIO26_ADC0-Pad31)_1*%
X284988000Y-9906000D03*
D14*
%TO.N,unconnected-(U4-GPIO26_ADC0-Pad31)*%
X285888000Y-9906000D03*
D13*
%TO.P,U4,32,GPIO27_ADC1*%
%TO.N,unconnected-(U4-GPIO27_ADC1-Pad32)_1*%
X284988000Y-7366000D03*
D14*
%TO.N,unconnected-(U4-GPIO27_ADC1-Pad32)*%
X285888000Y-7366000D03*
D15*
%TO.P,U4,33,AGND*%
%TO.N,unconnected-(U4-AGND-Pad33)*%
X284988000Y-4826000D03*
D14*
%TO.N,unconnected-(U4-AGND-Pad33)_1*%
X285888000Y-4826000D03*
D13*
%TO.P,U4,34,GPIO28_ADC2*%
%TO.N,unconnected-(U4-GPIO28_ADC2-Pad34)*%
X284988000Y-2286000D03*
D14*
%TO.N,unconnected-(U4-GPIO28_ADC2-Pad34)_1*%
X285888000Y-2286000D03*
D13*
%TO.P,U4,35,ADC_VREF*%
%TO.N,unconnected-(U4-ADC_VREF-Pad35)_1*%
X284988000Y254000D03*
D14*
%TO.N,unconnected-(U4-ADC_VREF-Pad35)*%
X285888000Y254000D03*
D13*
%TO.P,U4,36,3V3*%
%TO.N,unconnected-(U4-3V3-Pad36)_1*%
X284988000Y2794000D03*
D14*
%TO.N,unconnected-(U4-3V3-Pad36)*%
X285888000Y2794000D03*
D13*
%TO.P,U4,37,3V3_EN*%
%TO.N,unconnected-(U4-3V3_EN-Pad37)_1*%
X284988000Y5334000D03*
D14*
%TO.N,unconnected-(U4-3V3_EN-Pad37)*%
X285888000Y5334000D03*
D15*
%TO.P,U4,38,GND*%
%TO.N,unconnected-(U4-GND-Pad38)*%
X284988000Y7874000D03*
D14*
%TO.N,unconnected-(U4-GND-Pad38)_1*%
X285888000Y7874000D03*
D13*
%TO.P,U4,39,VSYS*%
%TO.N,unconnected-(U4-VSYS-Pad39)_1*%
X284988000Y10414000D03*
D14*
%TO.N,unconnected-(U4-VSYS-Pad39)*%
X285888000Y10414000D03*
D13*
%TO.P,U4,40,VBUS*%
%TO.N,unconnected-(U4-VBUS-Pad40)_1*%
X284988000Y12954000D03*
D14*
%TO.N,unconnected-(U4-VBUS-Pad40)*%
X285888000Y12954000D03*
D13*
%TO.P,U4,41,SWCLK*%
%TO.N,unconnected-(U4-SWCLK-Pad41)*%
X273558000Y-35076000D03*
D16*
%TO.N,unconnected-(U4-SWCLK-Pad41)_1*%
X273558000Y-35976000D03*
D15*
%TO.P,U4,42,GND*%
%TO.N,unconnected-(U4-GND-Pad42)_1*%
X276098000Y-35076000D03*
D16*
%TO.N,unconnected-(U4-GND-Pad42)*%
X276098000Y-35976000D03*
D13*
%TO.P,U4,43,SWDIO*%
%TO.N,unconnected-(U4-SWDIO-Pad43)*%
X278638000Y-35076000D03*
D16*
%TO.N,unconnected-(U4-SWDIO-Pad43)_1*%
X278638000Y-35976000D03*
%TD*%
D12*
%TO.P,R27,1*%
%TO.N,/Wy\u015Bwietlacz segmentowy/e*%
X130302000Y-118110000D03*
%TO.P,R27,2*%
%TO.N,Net-(J24-Pin_5)*%
X130302000Y-116460000D03*
%TD*%
D15*
%TO.P,J24,1,Pin_1*%
%TO.N,Net-(J24-Pin_1)*%
X141986000Y-112268000D03*
D13*
%TO.P,J24,2,Pin_2*%
%TO.N,Net-(J24-Pin_2)*%
X139446000Y-112268000D03*
%TO.P,J24,3,Pin_3*%
%TO.N,Net-(J24-Pin_3)*%
X136906000Y-112268000D03*
%TO.P,J24,4,Pin_4*%
%TO.N,Net-(J24-Pin_4)*%
X134366000Y-112268000D03*
%TO.P,J24,5,Pin_5*%
%TO.N,Net-(J24-Pin_5)*%
X131826000Y-112268000D03*
%TO.P,J24,6,Pin_6*%
%TO.N,Net-(J24-Pin_6)*%
X129286000Y-112268000D03*
%TO.P,J24,7,Pin_7*%
%TO.N,Net-(J24-Pin_7)*%
X126746000Y-112268000D03*
%TO.P,J24,8,Pin_8*%
%TO.N,Net-(J24-Pin_8)*%
X124206000Y-112268000D03*
%TD*%
D17*
%TO.P,R20,1*%
%TO.N,Net-(Q1-B)*%
X36893000Y-70866000D03*
%TO.P,R20,2*%
%TO.N,Net-(J13-Pin_1)*%
X35243000Y-70866000D03*
%TD*%
D12*
%TO.P,R29,1*%
%TO.N,/Wy\u015Bwietlacz segmentowy/g*%
X127254000Y-118110000D03*
%TO.P,R29,2*%
%TO.N,Net-(J24-Pin_7)*%
X127254000Y-116460000D03*
%TD*%
%TO.P,R13,1*%
%TO.N,/Wy\u015Bwietlacz segmentowy/a*%
X140462000Y-117982000D03*
%TO.P,R13,2*%
%TO.N,Net-(J24-Pin_1)*%
X140462000Y-116332000D03*
%TD*%
D10*
%TO.P,DS4,1,VSS*%
%TO.N,unconnected-(DS4-VSS-Pad1)*%
X238340000Y-47246000D03*
D11*
%TO.P,DS4,2,VDD*%
%TO.N,unconnected-(DS4-VDD-Pad2)*%
X240880000Y-47246000D03*
%TO.P,DS4,3,VO*%
%TO.N,unconnected-(DS4-VO-Pad3)*%
X243420000Y-47246000D03*
%TO.P,DS4,4,RS*%
%TO.N,unconnected-(DS4-RS-Pad4)*%
X245960000Y-47246000D03*
%TO.P,DS4,5,R/~{W}*%
%TO.N,unconnected-(DS4-R{slash}~{W}-Pad5)*%
X248500000Y-47246000D03*
%TO.P,DS4,6,E*%
%TO.N,unconnected-(DS4-E-Pad6)*%
X251040000Y-47246000D03*
%TO.P,DS4,7,DB0*%
%TO.N,unconnected-(DS4-DB0-Pad7)*%
X253580000Y-47246000D03*
%TO.P,DS4,8,DB1*%
%TO.N,unconnected-(DS4-DB1-Pad8)*%
X256120000Y-47246000D03*
%TO.P,DS4,9,DB2*%
%TO.N,unconnected-(DS4-DB2-Pad9)*%
X258660000Y-47246000D03*
%TO.P,DS4,10,DB3*%
%TO.N,unconnected-(DS4-DB3-Pad10)*%
X261200000Y-47246000D03*
%TO.P,DS4,11,DB4*%
%TO.N,unconnected-(DS4-DB4-Pad11)*%
X263740000Y-47246000D03*
%TO.P,DS4,12,DB5*%
%TO.N,unconnected-(DS4-DB5-Pad12)*%
X266280000Y-47246000D03*
%TO.P,DS4,13,DB6*%
%TO.N,unconnected-(DS4-DB6-Pad13)*%
X268820000Y-47246000D03*
%TO.P,DS4,14,DB7*%
%TO.N,unconnected-(DS4-DB7-Pad14)*%
X271360000Y-47246000D03*
%TO.P,DS4,15,A_1*%
%TO.N,unconnected-(DS4-A_1-Pad15)*%
X273900000Y-47246000D03*
%TO.P,DS4,16,K_1*%
%TO.N,unconnected-(DS4-K_1-Pad16)*%
X276440000Y-47246000D03*
%TO.P,DS4,A1,A_2*%
%TO.N,unconnected-(DS4-A_2-PadA1)*%
X233340000Y-65786000D03*
%TO.P,DS4,A2,A_3*%
%TO.N,unconnected-(DS4-A_3-PadA2)*%
X307340000Y-60706000D03*
%TO.P,DS4,K1,K_2*%
%TO.N,unconnected-(DS4-K_2-PadK1)*%
X233340000Y-60706000D03*
%TO.P,DS4,K2,K_3*%
%TO.N,unconnected-(DS4-K_3-PadK2)*%
X307340000Y-65786000D03*
D18*
%TO.P,DS4,MH1,MH1*%
%TO.N,unconnected-(DS4-PadMH1)*%
X232840000Y-47746000D03*
%TO.P,DS4,MH2,MH2*%
%TO.N,unconnected-(DS4-PadMH2)*%
X307840000Y-47746000D03*
%TO.P,DS4,MH3,MH3*%
%TO.N,unconnected-(DS4-PadMH3)*%
X307840000Y-78746000D03*
%TO.P,DS4,MH4,MH4*%
%TO.N,unconnected-(DS4-PadMH4)*%
X232840000Y-78746000D03*
%TD*%
D15*
%TO.P,J16,1,Pin_1*%
%TO.N,+3.3V*%
X25400000Y-43643000D03*
D13*
%TO.P,J16,2,Pin_2*%
X27940000Y-43643000D03*
%TO.P,J16,3,Pin_3*%
X30480000Y-43643000D03*
%TO.P,J16,4,Pin_4*%
X33020000Y-43643000D03*
%TO.P,J16,5,Pin_5*%
X35560000Y-43643000D03*
%TD*%
D19*
%TO.P,D4,1,K*%
%TO.N,+3.3V*%
X102870000Y-25622000D03*
%TO.P,D4,2,A*%
%TO.N,Net-(D4-A)*%
X102870000Y-21622000D03*
%TD*%
D20*
%TO.P,Q1,1,C*%
%TO.N,Net-(LS1--)*%
X38686500Y-70615000D03*
%TO.P,Q1,2,B*%
%TO.N,Net-(Q1-B)*%
X38686500Y-72515000D03*
%TO.P,Q1,3,E*%
%TO.N,GND*%
X40561500Y-71565000D03*
%TD*%
D15*
%TO.P,J27,1,Pin_1*%
%TO.N,/c1*%
X121158000Y-3810000D03*
D13*
%TO.P,J27,2,Pin_2*%
%TO.N,/c2*%
X121158000Y-6350000D03*
%TO.P,J27,3,Pin_3*%
%TO.N,/c3*%
X121158000Y-8890000D03*
%TO.P,J27,4,Pin_4*%
%TO.N,/c4*%
X121158000Y-11430000D03*
%TO.P,J27,5,Pin_5*%
%TO.N,/c5*%
X121158000Y-13970000D03*
%TO.P,J27,6,Pin_6*%
%TO.N,/c6*%
X121158000Y-16510000D03*
%TO.P,J27,7,Pin_7*%
%TO.N,/c7*%
X121158000Y-19050000D03*
%TO.P,J27,8,Pin_8*%
%TO.N,/c8*%
X121158000Y-21590000D03*
%TO.P,J27,9,Pin_9*%
%TO.N,/c9*%
X121158000Y-24130000D03*
%TO.P,J27,10,Pin_10*%
%TO.N,/c10*%
X121158000Y-26670000D03*
%TO.P,J27,11,Pin_11*%
%TO.N,/c11*%
X121158000Y-29210000D03*
%TO.P,J27,12,Pin_12*%
%TO.N,/c12*%
X121158000Y-31750000D03*
%TO.P,J27,13,Pin_13*%
%TO.N,/c13*%
X121158000Y-34290000D03*
%TO.P,J27,14,Pin_14*%
%TO.N,/c14*%
X121158000Y-36830000D03*
%TO.P,J27,15,Pin_15*%
%TO.N,/c15*%
X121158000Y-39370000D03*
%TO.P,J27,16,Pin_16*%
%TO.N,/c16*%
X121158000Y-41910000D03*
%TO.P,J27,17,Pin_17*%
%TO.N,/c17*%
X121158000Y-44450000D03*
%TO.P,J27,18,Pin_18*%
%TO.N,/c18*%
X121158000Y-46990000D03*
%TO.P,J27,19,Pin_19*%
%TO.N,/c19*%
X121158000Y-49530000D03*
%TO.P,J27,20,Pin_20*%
%TO.N,/c20*%
X121158000Y-52070000D03*
%TD*%
D12*
%TO.P,R2,1*%
%TO.N,Net-(J13-Pin_3)*%
X19812000Y-71565000D03*
%TO.P,R2,2*%
%TO.N,Net-(R2-Pad2)*%
X19812000Y-69915000D03*
%TD*%
D21*
%TO.P,LED6,1,K*%
%TO.N,Net-(J29-Pin_7)*%
X50800000Y-67437000D03*
%TO.P,LED6,2,A*%
%TO.N,Net-(LED6-A)*%
X50800000Y-69037000D03*
%TD*%
D22*
%TO.P,H2,1,1*%
%TO.N,GND*%
X4572000Y-4572000D03*
D23*
X4572000Y-4572000D03*
%TD*%
D12*
%TO.P,R37,1*%
%TO.N,+3.3V*%
X53340000Y-74637000D03*
%TO.P,R37,2*%
%TO.N,Net-(LED3-A)*%
X53340000Y-72987000D03*
%TD*%
D15*
%TO.P,J15,1,Pin_3*%
%TO.N,Net-(J15-Pin_3)*%
X23573000Y-83450000D03*
D13*
%TO.P,J15,2,Pin_2*%
%TO.N,Net-(J15-Pin_2)*%
X23573000Y-85990000D03*
%TO.P,J15,3,Pin_1*%
%TO.N,Net-(J15-Pin_1)*%
X23573000Y-88530000D03*
%TD*%
D17*
%TO.P,R21,1*%
%TO.N,+3.3V*%
X33859000Y-84529000D03*
%TO.P,R21,2*%
%TO.N,Net-(LED1-A_BLUE)*%
X32209000Y-84529000D03*
%TD*%
D15*
%TO.P,J2,1,Pin_1*%
%TO.N,GND*%
X185928000Y-27178000D03*
D13*
%TO.P,J2,2,Pin_2*%
X185928000Y-24638000D03*
%TO.P,J2,3,Pin_3*%
X185928000Y-22098000D03*
%TO.P,J2,4,Pin_4*%
X185928000Y-19558000D03*
%TO.P,J2,5,Pin_5*%
X185928000Y-17018000D03*
%TO.P,J2,6,Pin_6*%
X185928000Y-14478000D03*
%TO.P,J2,7,Pin_7*%
X185928000Y-11938000D03*
%TO.P,J2,8,Pin_8*%
X185928000Y-9398000D03*
%TO.P,J2,9,Pin_9*%
X185928000Y-6858000D03*
%TO.P,J2,10,Pin_10*%
X185928000Y-4318000D03*
%TD*%
D15*
%TO.P,J1,1,Pin_1*%
%TO.N,GND*%
X25400000Y-50038000D03*
D13*
%TO.P,J1,2,Pin_2*%
X27940000Y-50038000D03*
%TO.P,J1,3,Pin_3*%
X30480000Y-50038000D03*
%TO.P,J1,4,Pin_4*%
X33020000Y-50038000D03*
%TO.P,J1,5,Pin_5*%
X35560000Y-50038000D03*
%TD*%
D22*
%TO.P,H3,1,1*%
%TO.N,GND*%
X215900000Y-146050000D03*
D23*
X215900000Y-146050000D03*
%TD*%
D15*
%TO.P,J36,1,Pin_1*%
%TO.N,/d20*%
X138684000Y-52070000D03*
D13*
%TO.P,J36,2,Pin_2*%
%TO.N,/d19*%
X138684000Y-49530000D03*
%TO.P,J36,3,Pin_3*%
%TO.N,/d18*%
X138684000Y-46990000D03*
%TO.P,J36,4,Pin_4*%
%TO.N,/d17*%
X138684000Y-44450000D03*
%TO.P,J36,5,Pin_5*%
%TO.N,/d16*%
X138684000Y-41910000D03*
%TO.P,J36,6,Pin_6*%
%TO.N,/d15*%
X138684000Y-39370000D03*
%TO.P,J36,7,Pin_7*%
%TO.N,/d14*%
X138684000Y-36830000D03*
%TO.P,J36,8,Pin_8*%
%TO.N,/d13*%
X138684000Y-34290000D03*
%TO.P,J36,9,Pin_9*%
%TO.N,/d12*%
X138684000Y-31750000D03*
%TO.P,J36,10,Pin_10*%
%TO.N,/d11*%
X138684000Y-29210000D03*
%TO.P,J36,11,Pin_11*%
%TO.N,/d10*%
X138684000Y-26670000D03*
%TO.P,J36,12,Pin_12*%
%TO.N,/d9*%
X138684000Y-24130000D03*
%TO.P,J36,13,Pin_13*%
%TO.N,/d8*%
X138684000Y-21590000D03*
%TO.P,J36,14,Pin_14*%
%TO.N,/d7*%
X138684000Y-19050000D03*
%TO.P,J36,15,Pin_15*%
%TO.N,/d6*%
X138684000Y-16510000D03*
%TO.P,J36,16,Pin_16*%
%TO.N,/d5*%
X138684000Y-13970000D03*
%TO.P,J36,17,Pin_17*%
%TO.N,/d4*%
X138684000Y-11430000D03*
%TO.P,J36,18,Pin_18*%
%TO.N,/d3*%
X138684000Y-8890000D03*
%TO.P,J36,19,Pin_19*%
%TO.N,VSYS*%
X138684000Y-6350000D03*
%TO.P,J36,20,Pin_20*%
%TO.N,/d1*%
X138684000Y-3810000D03*
%TD*%
D12*
%TO.P,R3,1*%
%TO.N,+5V*%
X29210000Y-18212000D03*
%TO.P,R3,2*%
%TO.N,Net-(LED11-A)*%
X29210000Y-16562000D03*
%TD*%
D24*
%TO.P,IC6,1,VDD*%
%TO.N,Net-(IC6-VDD)*%
X193104000Y-35306000D03*
D25*
%TO.P,IC6,2,~{CS}*%
%TO.N,Net-(IC6-~{CS})*%
X193104000Y-37846000D03*
%TO.P,IC6,3,SCK*%
%TO.N,Net-(IC6-SCK)*%
X193104000Y-40386000D03*
%TO.P,IC6,4,SDI*%
%TO.N,Net-(IC6-SDI)*%
X193104000Y-42926000D03*
%TO.P,IC6,5,~{LDAC}*%
%TO.N,Net-(IC6-~{LDAC})*%
X200914000Y-42926000D03*
%TO.P,IC6,6,VREF*%
%TO.N,Net-(IC6-VREF)*%
X200914000Y-40386000D03*
%TO.P,IC6,7,VSS*%
%TO.N,Net-(IC6-VSS)*%
X200914000Y-37846000D03*
%TO.P,IC6,8,VOUT*%
%TO.N,Net-(IC6-VOUT)*%
X200914000Y-35306000D03*
%TD*%
D15*
%TO.P,J42,1,Pin_1*%
%TO.N,+5V*%
X87376000Y-4318000D03*
%TD*%
D12*
%TO.P,R5,1*%
%TO.N,+5V*%
X25146000Y-18212000D03*
%TO.P,R5,2*%
%TO.N,Net-(LED10-A)*%
X25146000Y-16562000D03*
%TD*%
D15*
%TO.P,J18,1,Pin_1*%
%TO.N,/a1*%
X45466000Y-4318000D03*
D13*
%TO.P,J18,2,Pin_2*%
X48006000Y-4318000D03*
%TO.P,J18,3,Pin_3*%
%TO.N,/a2*%
X45466000Y-6858000D03*
%TO.P,J18,4,Pin_4*%
X48006000Y-6858000D03*
%TO.P,J18,5,Pin_5*%
%TO.N,/a3*%
X45466000Y-9398000D03*
%TO.P,J18,6,Pin_6*%
X48006000Y-9398000D03*
%TO.P,J18,7,Pin_7*%
%TO.N,/a4*%
X45466000Y-11938000D03*
%TO.P,J18,8,Pin_8*%
X48006000Y-11938000D03*
%TO.P,J18,9,Pin_9*%
%TO.N,/a5*%
X45466000Y-14478000D03*
%TO.P,J18,10,Pin_10*%
X48006000Y-14478000D03*
%TO.P,J18,11,Pin_11*%
%TO.N,/a6*%
X45466000Y-17018000D03*
%TO.P,J18,12,Pin_12*%
X48006000Y-17018000D03*
%TO.P,J18,13,Pin_13*%
%TO.N,/a7*%
X45466000Y-19558000D03*
%TO.P,J18,14,Pin_14*%
X48006000Y-19558000D03*
%TO.P,J18,15,Pin_15*%
%TO.N,/a8*%
X45466000Y-22098000D03*
%TO.P,J18,16,Pin_16*%
X48006000Y-22098000D03*
%TO.P,J18,17,Pin_17*%
%TO.N,/a9*%
X45466000Y-24638000D03*
%TO.P,J18,18,Pin_18*%
X48006000Y-24638000D03*
%TO.P,J18,19,Pin_19*%
%TO.N,/a10*%
X45466000Y-27178000D03*
%TO.P,J18,20,Pin_20*%
X48006000Y-27178000D03*
%TO.P,J18,21,Pin_21*%
%TO.N,/a11*%
X45466000Y-29718000D03*
%TO.P,J18,22,Pin_22*%
X48006000Y-29718000D03*
%TO.P,J18,23,Pin_23*%
%TO.N,/a12*%
X45466000Y-32258000D03*
%TO.P,J18,24,Pin_24*%
X48006000Y-32258000D03*
%TO.P,J18,25,Pin_25*%
%TO.N,/a13*%
X45466000Y-34798000D03*
%TO.P,J18,26,Pin_26*%
X48006000Y-34798000D03*
%TO.P,J18,27,Pin_27*%
%TO.N,/a14*%
X45466000Y-37338000D03*
%TO.P,J18,28,Pin_28*%
X48006000Y-37338000D03*
%TO.P,J18,29,Pin_29*%
%TO.N,/a15*%
X45466000Y-39878000D03*
%TO.P,J18,30,Pin_30*%
X48006000Y-39878000D03*
%TO.P,J18,31,Pin_31*%
%TO.N,/a16*%
X45466000Y-42418000D03*
%TO.P,J18,32,Pin_32*%
X48006000Y-42418000D03*
%TO.P,J18,33,Pin_33*%
%TO.N,/a17*%
X45466000Y-44958000D03*
%TO.P,J18,34,Pin_34*%
X48006000Y-44958000D03*
%TO.P,J18,35,Pin_35*%
%TO.N,/a18*%
X45466000Y-47498000D03*
%TO.P,J18,36,Pin_36*%
X48006000Y-47498000D03*
%TO.P,J18,37,Pin_37*%
%TO.N,/a19*%
X45466000Y-50038000D03*
%TO.P,J18,38,Pin_38*%
X48006000Y-50038000D03*
%TO.P,J18,39,Pin_39*%
%TO.N,/a20*%
X45466000Y-52578000D03*
%TO.P,J18,40,Pin_40*%
X48006000Y-52578000D03*
%TD*%
D26*
%TO.P,LED17,1,K*%
%TO.N,GND*%
X176568000Y-30480000D03*
%TO.P,LED17,2,A*%
%TO.N,Net-(LED17-A)*%
X174968000Y-30480000D03*
%TD*%
D27*
%TO.P,LED4,1,K*%
%TO.N,Net-(J29-Pin_4)*%
X58420000Y-67437000D03*
%TO.P,LED4,2,A*%
%TO.N,Net-(LED4-A)*%
X58420000Y-69037000D03*
%TD*%
D21*
%TO.P,LED8,1,K*%
%TO.N,Net-(J29-Pin_3)*%
X60960000Y-67272000D03*
%TO.P,LED8,2,A*%
%TO.N,Net-(LED8-A)*%
X60960000Y-68872000D03*
%TD*%
D15*
%TO.P,J6,1,Pin_1*%
%TO.N,Net-(IC2-SDA)*%
X103124000Y-40640000D03*
D13*
%TO.P,J6,2,Pin_2*%
%TO.N,Net-(IC2-SCL)*%
X100584000Y-40640000D03*
%TD*%
D15*
%TO.P,J5,1,Pin_1*%
%TO.N,Net-(J5-Pin_1)*%
X16510000Y-35560000D03*
D13*
%TO.P,J5,2,Pin_2*%
%TO.N,Net-(J5-Pin_2)*%
X16510000Y-38100000D03*
%TO.P,J5,3,Pin_3*%
%TO.N,Net-(J5-Pin_3)*%
X16510000Y-40640000D03*
%TO.P,J5,4,Pin_4*%
%TO.N,Net-(J5-Pin_4)*%
X16510000Y-43180000D03*
%TO.P,J5,5,Pin_5*%
%TO.N,Net-(J5-Pin_5)*%
X16510000Y-45720000D03*
%TO.P,J5,6,Pin_6*%
%TO.N,Net-(J5-Pin_6)*%
X16510000Y-48260000D03*
%TO.P,J5,7,Pin_7*%
%TO.N,Net-(J5-Pin_7)*%
X16510000Y-50800000D03*
%TO.P,J5,8,Pin_8*%
%TO.N,Net-(J5-Pin_8)*%
X16510000Y-53340000D03*
%TD*%
D12*
%TO.P,R39,1*%
%TO.N,+3.3V*%
X59690000Y-74637000D03*
%TO.P,R39,2*%
%TO.N,Net-(LED4-A)*%
X59690000Y-72987000D03*
%TD*%
D15*
%TO.P,J17,1,Pin_1*%
%TO.N,VSYS*%
X25407000Y-36785000D03*
D13*
%TO.P,J17,2,Pin_2*%
X27947000Y-36785000D03*
%TO.P,J17,3,Pin_3*%
X30487000Y-36785000D03*
%TO.P,J17,4,Pin_4*%
X33027000Y-36785000D03*
%TO.P,J17,5,Pin_5*%
X35567000Y-36785000D03*
%TD*%
D28*
%TO.P,LED1,1,K_BLUE*%
%TO.N,Net-(J15-Pin_3)*%
X27178000Y-85090000D03*
%TO.P,LED1,2,K_GREEN*%
%TO.N,Net-(J15-Pin_2)*%
X27178000Y-85990000D03*
%TO.P,LED1,3,K_RED*%
%TO.N,Net-(J15-Pin_1)*%
X27178000Y-86890000D03*
%TO.P,LED1,4,A_RED*%
%TO.N,Net-(LED1-A_RED)*%
X30128000Y-86890000D03*
%TO.P,LED1,5,A_GREEN*%
%TO.N,Net-(LED1-A_GREEN)*%
X30128000Y-85990000D03*
%TO.P,LED1,6,A_BLUE*%
%TO.N,Net-(LED1-A_BLUE)*%
X30128000Y-85090000D03*
%TD*%
D15*
%TO.P,J8,1,Pin_1*%
%TO.N,Net-(IC6-VOUT)*%
X203962000Y-35306000D03*
D13*
%TO.P,J8,2,Pin_2*%
%TO.N,Net-(IC6-VSS)*%
X203962000Y-37846000D03*
%TO.P,J8,3,Pin_3*%
%TO.N,Net-(IC6-VREF)*%
X203962000Y-40386000D03*
%TO.P,J8,4,Pin_4*%
%TO.N,Net-(IC6-~{LDAC})*%
X203962000Y-42926000D03*
%TD*%
D15*
%TO.P,J28,1,Pin_1*%
%TO.N,Net-(IC6-SDI)*%
X190087000Y-42926000D03*
D13*
%TO.P,J28,2,Pin_2*%
%TO.N,Net-(IC6-SCK)*%
X190087000Y-40386000D03*
%TO.P,J28,3,Pin_3*%
%TO.N,Net-(IC6-~{CS})*%
X190087000Y-37846000D03*
%TO.P,J28,4,Pin_4*%
%TO.N,Net-(IC6-VDD)*%
X190087000Y-35306000D03*
%TD*%
D29*
%TO.P,S3,1,1*%
%TO.N,Net-(J5-Pin_1)*%
X10160000Y-20356000D03*
X3660000Y-20356000D03*
%TO.P,S3,2,2*%
%TO.N,GND*%
X10160000Y-15856000D03*
X3660000Y-15856000D03*
%TD*%
D30*
%TO.P,C4,1*%
%TO.N,Net-(IC5-VDD{slash}VREF)*%
X162547000Y-42926000D03*
%TO.P,C4,2*%
%TO.N,GND*%
X164097000Y-42926000D03*
%TD*%
D15*
%TO.P,J7,1,Pin_1*%
%TO.N,GND*%
X79340000Y-68828000D03*
D13*
%TO.P,J7,2,Pin_2*%
%TO.N,+3.3V*%
X81880000Y-68828000D03*
%TO.P,J7,3,Pin_3*%
%TO.N,Net-(J7-Pin_3)*%
X84420000Y-68828000D03*
%TO.P,J7,4,Pin_4*%
%TO.N,/Wy\u015Bwietlacz LCD/RS*%
X86960000Y-68828000D03*
%TO.P,J7,5,Pin_5*%
%TO.N,/Wy\u015Bwietlacz LCD/R{slash}W*%
X89500000Y-68828000D03*
%TO.P,J7,6,Pin_6*%
%TO.N,/Wy\u015Bwietlacz LCD/E*%
X92040000Y-68828000D03*
%TO.P,J7,7,Pin_7*%
%TO.N,/Wy\u015Bwietlacz LCD/D0*%
X94580000Y-68828000D03*
%TO.P,J7,8,Pin_8*%
%TO.N,/Wy\u015Bwietlacz LCD/D1*%
X97120000Y-68828000D03*
%TO.P,J7,9,Pin_9*%
%TO.N,/Wy\u015Bwietlacz LCD/D2*%
X99660000Y-68828000D03*
%TO.P,J7,10,Pin_10*%
%TO.N,/Wy\u015Bwietlacz LCD/D3*%
X102200000Y-68828000D03*
%TO.P,J7,11,Pin_11*%
%TO.N,/Wy\u015Bwietlacz LCD/D4*%
X104740000Y-68828000D03*
%TO.P,J7,12,Pin_12*%
%TO.N,/Wy\u015Bwietlacz LCD/D5*%
X107280000Y-68828000D03*
%TO.P,J7,13,Pin_13*%
%TO.N,/Wy\u015Bwietlacz LCD/D6*%
X109820000Y-68828000D03*
%TO.P,J7,14,Pin_14*%
%TO.N,/Wy\u015Bwietlacz LCD/D7*%
X112360000Y-68828000D03*
%TO.P,J7,15,Pin_15*%
%TO.N,Net-(J7-Pin_15)*%
X114900000Y-68828000D03*
%TO.P,J7,16,Pin_16*%
%TO.N,+3.3V*%
X117440000Y-68828000D03*
%TD*%
D19*
%TO.P,D2,1,K*%
%TO.N,VSYS*%
X15748000Y-17494000D03*
%TO.P,D2,2,A*%
%TO.N,Net-(D2-A)*%
X15748000Y-13494000D03*
%TD*%
D15*
%TO.P,J4,1,Pin_1*%
%TO.N,Net-(IC5-VDD{slash}VREF)*%
X158836000Y-42926000D03*
D13*
%TO.P,J4,2,Pin_2*%
%TO.N,Net-(IC5-CLK)*%
X158836000Y-40386000D03*
%TO.P,J4,3,Pin_3*%
%TO.N,Net-(IC5-DOUT)*%
X158836000Y-37846000D03*
%TO.P,J4,4,Pin_4*%
%TO.N,Net-(IC5-DIN)*%
X158836000Y-35306000D03*
%TD*%
D15*
%TO.P,J41,1,Pin_1*%
%TO.N,Net-(D5-A)*%
X151638000Y-13946000D03*
%TD*%
D31*
%TO.P,S11,1,A*%
%TO.N,unconnected-(S11-A-Pad1)*%
X94702000Y-21846000D03*
D32*
%TO.P,S11,2,B*%
%TO.N,/b4*%
X92202000Y-25046000D03*
%TO.P,S11,3,C*%
%TO.N,GND*%
X89702000Y-21846000D03*
%TD*%
D15*
%TO.P,J46,1,Pin_1*%
%TO.N,GND*%
X151638000Y-8890000D03*
%TD*%
D31*
%TO.P,S14,1,A*%
%TO.N,unconnected-(S14-A-Pad1)*%
X158964000Y-21336000D03*
D32*
%TO.P,S14,2,B*%
%TO.N,/d4*%
X156464000Y-24536000D03*
%TO.P,S14,3,C*%
%TO.N,GND*%
X153964000Y-21336000D03*
%TD*%
D33*
%TO.P,IC1,1,OSCI*%
%TO.N,Net-(IC1-OSCI)*%
X99822000Y-53676000D03*
%TO.P,IC1,2,OSCO*%
%TO.N,Net-(IC1-OSCO)*%
X99822000Y-54326000D03*
%TO.P,IC1,3,~{INT}*%
%TO.N,/Zegar czasu rzeczywistego RTC/INT*%
X99822000Y-54976000D03*
%TO.P,IC1,4,VSS*%
%TO.N,GND*%
X99822000Y-55626000D03*
%TO.P,IC1,5,SDA*%
%TO.N,Net-(IC1-SDA)*%
X104222000Y-55626000D03*
%TO.P,IC1,6,SCL*%
%TO.N,Net-(IC1-SCL)*%
X104222000Y-54976000D03*
%TO.P,IC1,7,CLKOUT*%
%TO.N,/Zegar czasu rzeczywistego RTC/CLKOUT*%
X104222000Y-54326000D03*
%TO.P,IC1,8,VDD*%
%TO.N,+3.3V*%
X104222000Y-53676000D03*
%TD*%
D15*
%TO.P,J32,1,Pin_1*%
%TO.N,/Port USB/C3*%
X35560000Y-19812000D03*
D13*
%TO.P,J32,2,Pin_2*%
%TO.N,/Port USB/C4*%
X38100000Y-19812000D03*
%TO.P,J32,3,Pin_3*%
%TO.N,/Port USB/CTS*%
X35560000Y-22352000D03*
%TO.P,J32,4,Pin_4*%
%TO.N,/Port USB/DCD*%
X38100000Y-22352000D03*
%TO.P,J32,5,Pin_5*%
%TO.N,/Port USB/DSR*%
X35560000Y-24892000D03*
%TO.P,J32,6,Pin_6*%
%TO.N,/Port USB/RI*%
X38100000Y-24892000D03*
%TO.P,J32,7,Pin_7*%
%TO.N,/Port USB/RXD*%
X35560000Y-27432000D03*
%TO.P,J32,8,Pin_8*%
%TO.N,/Port USB/RTS*%
X38100000Y-27432000D03*
%TO.P,J32,9,Pin_9*%
%TO.N,/Port USB/DTR*%
X35560000Y-29972000D03*
%TO.P,J32,10,Pin_10*%
%TO.N,/Port USB/TXD*%
X38100000Y-29972000D03*
%TD*%
D15*
%TO.P,J14,1,Pin_1*%
%TO.N,/Gniazdo kart micro SD/m1*%
X194818000Y-23622000D03*
D13*
%TO.P,J14,2,Pin_2*%
%TO.N,/Gniazdo kart micro SD/m2*%
X197358000Y-23622000D03*
%TO.P,J14,3,Pin_3*%
%TO.N,/Gniazdo kart micro SD/m3*%
X199898000Y-23622000D03*
%TO.P,J14,4,Pin_4*%
%TO.N,/Gniazdo kart micro SD/m4*%
X202438000Y-23622000D03*
%TO.P,J14,5,Pin_5*%
%TO.N,/Gniazdo kart micro SD/m5*%
X204978000Y-23622000D03*
%TO.P,J14,6,Pin_6*%
%TO.N,/Gniazdo kart micro SD/m6*%
X207518000Y-23622000D03*
%TO.P,J14,7,Pin_7*%
%TO.N,/Gniazdo kart micro SD/m7*%
X210058000Y-23622000D03*
%TD*%
D29*
%TO.P,S12,1,1*%
%TO.N,/d11*%
X161834000Y-12648000D03*
X161834000Y-6148000D03*
%TO.P,S12,2,2*%
%TO.N,GND*%
X166334000Y-12648000D03*
X166334000Y-6148000D03*
%TD*%
D12*
%TO.P,R30,1*%
%TO.N,/Wy\u015Bwietlacz segmentowy/DP*%
X125730000Y-118110000D03*
%TO.P,R30,2*%
%TO.N,Net-(J24-Pin_8)*%
X125730000Y-116460000D03*
%TD*%
D30*
%TO.P,C6,1*%
%TO.N,GND*%
X157669000Y-3758000D03*
%TO.P,C6,2*%
%TO.N,+3.3V*%
X159219000Y-3758000D03*
%TD*%
D17*
%TO.P,R16,1*%
%TO.N,Net-(IC2-SDA)*%
X89217000Y-30988000D03*
%TO.P,R16,2*%
%TO.N,+3.3V*%
X87567000Y-30988000D03*
%TD*%
D12*
%TO.P,R42,1*%
%TO.N,+3.3V*%
X64262000Y-74588500D03*
%TO.P,R42,2*%
%TO.N,Net-(LED9-A)*%
X64262000Y-72938500D03*
%TD*%
D30*
%TO.P,C5,1*%
%TO.N,GND*%
X93954000Y-4318000D03*
%TO.P,C5,2*%
%TO.N,+3.3V*%
X95504000Y-4318000D03*
%TD*%
D34*
%TO.P,Y2,1,1*%
%TO.N,Net-(IC1-OSCI)*%
X93756000Y-49930000D03*
%TO.P,Y2,2,2*%
%TO.N,Net-(IC1-OSCO)*%
X91216000Y-49930000D03*
%TD*%
D35*
%TO.P,Q5,1,B*%
%TO.N,Net-(Q5-B)*%
X107594400Y-119126000D03*
%TO.P,Q5,2,E*%
%TO.N,+3.3V*%
X105694400Y-119126000D03*
%TO.P,Q5,3,C*%
%TO.N,/Wy\u015Bwietlacz segmentowy/DIG4*%
X106644400Y-121001000D03*
%TD*%
D15*
%TO.P,J40,1,Pin_1*%
%TO.N,Net-(D4-A)*%
X87376000Y-14478000D03*
%TD*%
D29*
%TO.P,S6,1,1*%
%TO.N,Net-(J5-Pin_4)*%
X10160000Y-44668000D03*
X3660000Y-44668000D03*
%TO.P,S6,2,2*%
%TO.N,GND*%
X10160000Y-40168000D03*
X3660000Y-40168000D03*
%TD*%
D26*
%TO.P,LED15,1,K*%
%TO.N,GND*%
X161658400Y-16713200D03*
%TO.P,LED15,2,A*%
%TO.N,Net-(LED15-A)*%
X163258400Y-16713200D03*
%TD*%
D10*
%TO.P,LS1,1,+*%
%TO.N,+3.3V*%
X39116000Y-60745000D03*
D36*
%TO.P,LS1,2,-*%
%TO.N,Net-(LS1--)*%
X39116000Y-65745000D03*
%TD*%
D31*
%TO.P,S13,1,A*%
%TO.N,unconnected-(S13-A-Pad1)*%
X11510000Y-8636000D03*
D32*
%TO.P,S13,2,B*%
%TO.N,Net-(S13-B)*%
X14010000Y-5436000D03*
%TO.P,S13,3,C*%
%TO.N,Net-(D2-A)*%
X16510000Y-8636000D03*
%TD*%
D37*
%TO.P,J34,A1,GND*%
%TO.N,GND*%
X29086000Y-10482000D03*
%TO.P,J34,A4,VBUS*%
%TO.N,Net-(S13-B)*%
X28286000Y-10482000D03*
D38*
%TO.P,J34,A5,CC1*%
%TO.N,Net-(J34-CC1)*%
X27086000Y-10482000D03*
%TO.P,J34,A6,D+*%
%TO.N,Net-(IC4-USBDP)*%
X26086000Y-10482000D03*
%TO.P,J34,A7,D-*%
%TO.N,Net-(IC4-USBDM)*%
X25586000Y-10482000D03*
%TO.P,J34,A8,SBU1*%
%TO.N,unconnected-(J34-SBU1-PadA8)*%
X24586000Y-10482000D03*
D37*
%TO.P,J34,A9,VBUS*%
%TO.N,Net-(S13-B)*%
X23386000Y-10482000D03*
%TO.P,J34,A12,GND*%
%TO.N,GND*%
X22586000Y-10482000D03*
%TO.P,J34,B1,GND*%
X22586000Y-10482000D03*
%TO.P,J34,B4,VBUS*%
%TO.N,Net-(S13-B)*%
X23386000Y-10482000D03*
D38*
%TO.P,J34,B5,CC2*%
%TO.N,Net-(J34-CC2)*%
X24086000Y-10482000D03*
%TO.P,J34,B6,D+*%
%TO.N,Net-(IC4-USBDP)*%
X25086000Y-10482000D03*
%TO.P,J34,B7,D-*%
%TO.N,Net-(IC4-USBDM)*%
X26586000Y-10482000D03*
%TO.P,J34,B8,SBU2*%
%TO.N,unconnected-(J34-SBU2-PadB8)*%
X27586000Y-10482000D03*
D37*
%TO.P,J34,B9,VBUS*%
%TO.N,Net-(S13-B)*%
X28286000Y-10482000D03*
%TO.P,J34,B12,GND*%
%TO.N,GND*%
X29086000Y-10482000D03*
D39*
%TO.P,J34,S1,SHIELD*%
X30156000Y-9567000D03*
D40*
X30156000Y-5387000D03*
D39*
X21516000Y-9567000D03*
D40*
X21516000Y-5387000D03*
%TD*%
D41*
%TO.P,IC2,1,E0*%
%TO.N,Net-(IC2-E0)*%
X96946000Y-33909000D03*
%TO.P,IC2,2,E1*%
%TO.N,GND*%
X96946000Y-32639000D03*
%TO.P,IC2,3,E2*%
X96946000Y-31369000D03*
%TO.P,IC2,4,VSS*%
X96946000Y-30099000D03*
%TO.P,IC2,5,SDA*%
%TO.N,Net-(IC2-SDA)*%
X91522000Y-30099000D03*
%TO.P,IC2,6,SCL*%
%TO.N,Net-(IC2-SCL)*%
X91522000Y-31369000D03*
%TO.P,IC2,7,~{WC}*%
%TO.N,GND*%
X91522000Y-32639000D03*
%TO.P,IC2,8,VCC*%
%TO.N,+3.3V*%
X91522000Y-33909000D03*
%TD*%
D42*
%TO.P,R19,1*%
%TO.N,Net-(IC3-DQ)*%
X41656000Y-6541000D03*
%TO.P,R19,2*%
%TO.N,+3.3V*%
X41656000Y-8191000D03*
%TD*%
D30*
%TO.P,C8,1*%
%TO.N,Net-(IC6-VREF)*%
X205473000Y-31496000D03*
%TO.P,C8,2*%
%TO.N,GND*%
X207023000Y-31496000D03*
%TD*%
D29*
%TO.P,S4,1,1*%
%TO.N,Net-(J5-Pin_2)*%
X10160000Y-28412000D03*
X3660000Y-28412000D03*
%TO.P,S4,2,2*%
%TO.N,GND*%
X10160000Y-23912000D03*
X3660000Y-23912000D03*
%TD*%
D22*
%TO.P,H4,1,1*%
%TO.N,GND*%
X3810000Y-146050000D03*
D23*
X3810000Y-146050000D03*
%TD*%
D15*
%TO.P,J30,1,Pin_1*%
%TO.N,+3.3V*%
X179324000Y-27178000D03*
D13*
%TO.P,J30,2,Pin_2*%
X179324000Y-24638000D03*
%TO.P,J30,3,Pin_3*%
X179324000Y-22098000D03*
%TO.P,J30,4,Pin_4*%
X179324000Y-19558000D03*
%TO.P,J30,5,Pin_5*%
X179324000Y-17018000D03*
%TO.P,J30,6,Pin_6*%
X179324000Y-14478000D03*
%TO.P,J30,7,Pin_7*%
X179324000Y-11938000D03*
%TO.P,J30,8,Pin_8*%
X179324000Y-9398000D03*
%TO.P,J30,9,Pin_9*%
X179324000Y-6858000D03*
%TO.P,J30,10,Pin_10*%
X179324000Y-4318000D03*
%TD*%
D29*
%TO.P,S9,1,1*%
%TO.N,Net-(J5-Pin_7)*%
X10160000Y-69052000D03*
X3660000Y-69052000D03*
%TO.P,S9,2,2*%
%TO.N,GND*%
X10160000Y-64552000D03*
X3660000Y-64552000D03*
%TD*%
D15*
%TO.P,J31,1,Pin_1*%
%TO.N,VSYS*%
X172974000Y-27178000D03*
D13*
%TO.P,J31,2,Pin_2*%
X172974000Y-24638000D03*
%TO.P,J31,3,Pin_3*%
X172974000Y-22098000D03*
%TO.P,J31,4,Pin_4*%
X172974000Y-19558000D03*
%TO.P,J31,5,Pin_5*%
X172974000Y-17018000D03*
%TO.P,J31,6,Pin_6*%
X172974000Y-14478000D03*
%TO.P,J31,7,Pin_7*%
X172974000Y-11938000D03*
%TO.P,J31,8,Pin_8*%
X172974000Y-9398000D03*
%TO.P,J31,9,Pin_9*%
X172974000Y-6858000D03*
%TO.P,J31,10,Pin_10*%
X172974000Y-4318000D03*
%TD*%
D15*
%TO.P,J44,1,Pin_1*%
%TO.N,+5V*%
X151638000Y-3810000D03*
%TD*%
D13*
%TO.P,U1,1,GPIO0*%
%TO.N,unconnected-(U1-GPIO0-Pad1)*%
X233934000Y12700000D03*
D14*
%TO.N,unconnected-(U1-GPIO0-Pad1)_1*%
X233034000Y12700000D03*
D13*
%TO.P,U1,2,GPIO1*%
%TO.N,unconnected-(U1-GPIO1-Pad2)_1*%
X233934000Y10160000D03*
D14*
%TO.N,unconnected-(U1-GPIO1-Pad2)*%
X233034000Y10160000D03*
D15*
%TO.P,U1,3,GND*%
%TO.N,unconnected-(U1-GND-Pad3)_1*%
X233934000Y7620000D03*
D14*
%TO.N,unconnected-(U1-GND-Pad3)*%
X233034000Y7620000D03*
D13*
%TO.P,U1,4,GPIO2*%
%TO.N,unconnected-(U1-GPIO2-Pad4)*%
X233934000Y5080000D03*
D14*
%TO.N,unconnected-(U1-GPIO2-Pad4)_1*%
X233034000Y5080000D03*
D13*
%TO.P,U1,5,GPIO3*%
%TO.N,unconnected-(U1-GPIO3-Pad5)*%
X233934000Y2540000D03*
D14*
%TO.N,unconnected-(U1-GPIO3-Pad5)_1*%
X233034000Y2540000D03*
D13*
%TO.P,U1,6,GPIO4*%
%TO.N,unconnected-(U1-GPIO4-Pad6)*%
X233934000Y0D03*
D14*
%TO.N,unconnected-(U1-GPIO4-Pad6)_1*%
X233034000Y0D03*
D13*
%TO.P,U1,7,GPIO5*%
%TO.N,unconnected-(U1-GPIO5-Pad7)*%
X233934000Y-2540000D03*
D14*
%TO.N,unconnected-(U1-GPIO5-Pad7)_1*%
X233034000Y-2540000D03*
D15*
%TO.P,U1,8,GND*%
%TO.N,unconnected-(U1-GND-Pad8)*%
X233934000Y-5080000D03*
D14*
%TO.N,unconnected-(U1-GND-Pad8)_1*%
X233034000Y-5080000D03*
D13*
%TO.P,U1,9,GPIO6*%
%TO.N,unconnected-(U1-GPIO6-Pad9)_1*%
X233934000Y-7620000D03*
D14*
%TO.N,unconnected-(U1-GPIO6-Pad9)*%
X233034000Y-7620000D03*
D13*
%TO.P,U1,10,GPIO7*%
%TO.N,unconnected-(U1-GPIO7-Pad10)*%
X233934000Y-10160000D03*
D14*
%TO.N,unconnected-(U1-GPIO7-Pad10)_1*%
X233034000Y-10160000D03*
D13*
%TO.P,U1,11,GPIO8*%
%TO.N,unconnected-(U1-GPIO8-Pad11)*%
X233934000Y-12700000D03*
D14*
%TO.N,unconnected-(U1-GPIO8-Pad11)_1*%
X233034000Y-12700000D03*
D13*
%TO.P,U1,12,GPIO9*%
%TO.N,unconnected-(U1-GPIO9-Pad12)_1*%
X233934000Y-15240000D03*
D14*
%TO.N,unconnected-(U1-GPIO9-Pad12)*%
X233034000Y-15240000D03*
D15*
%TO.P,U1,13,GND*%
%TO.N,unconnected-(U1-GND-Pad13)*%
X233934000Y-17780000D03*
D14*
%TO.N,unconnected-(U1-GND-Pad13)_1*%
X233034000Y-17780000D03*
D13*
%TO.P,U1,14,GPIO10*%
%TO.N,unconnected-(U1-GPIO10-Pad14)_1*%
X233934000Y-20320000D03*
D14*
%TO.N,unconnected-(U1-GPIO10-Pad14)*%
X233034000Y-20320000D03*
D13*
%TO.P,U1,15,GPIO11*%
%TO.N,unconnected-(U1-GPIO11-Pad15)*%
X233934000Y-22860000D03*
D14*
%TO.N,unconnected-(U1-GPIO11-Pad15)_1*%
X233034000Y-22860000D03*
D13*
%TO.P,U1,16,GPIO12*%
%TO.N,unconnected-(U1-GPIO12-Pad16)_1*%
X233934000Y-25400000D03*
D14*
%TO.N,unconnected-(U1-GPIO12-Pad16)*%
X233034000Y-25400000D03*
D13*
%TO.P,U1,17,GPIO13*%
%TO.N,unconnected-(U1-GPIO13-Pad17)*%
X233934000Y-27940000D03*
D14*
%TO.N,unconnected-(U1-GPIO13-Pad17)_1*%
X233034000Y-27940000D03*
D15*
%TO.P,U1,18,GND*%
%TO.N,unconnected-(U1-GND-Pad18)*%
X233934000Y-30480000D03*
D14*
%TO.N,unconnected-(U1-GND-Pad18)_1*%
X233034000Y-30480000D03*
D13*
%TO.P,U1,19,GPIO14*%
%TO.N,unconnected-(U1-GPIO14-Pad19)_1*%
X233934000Y-33020000D03*
D14*
%TO.N,unconnected-(U1-GPIO14-Pad19)*%
X233034000Y-33020000D03*
D13*
%TO.P,U1,20,GPIO15*%
%TO.N,unconnected-(U1-GPIO15-Pad20)_1*%
X233934000Y-35560000D03*
D14*
%TO.N,unconnected-(U1-GPIO15-Pad20)*%
X233034000Y-35560000D03*
D13*
%TO.P,U1,21,GPIO16*%
%TO.N,unconnected-(U1-GPIO16-Pad21)_1*%
X251714000Y-35560000D03*
D14*
%TO.N,unconnected-(U1-GPIO16-Pad21)*%
X252614000Y-35560000D03*
D13*
%TO.P,U1,22,GPIO17*%
%TO.N,unconnected-(U1-GPIO17-Pad22)_1*%
X251714000Y-33020000D03*
D14*
%TO.N,unconnected-(U1-GPIO17-Pad22)*%
X252614000Y-33020000D03*
D15*
%TO.P,U1,23,GND*%
%TO.N,unconnected-(U1-GND-Pad23)_1*%
X251714000Y-30480000D03*
D14*
%TO.N,unconnected-(U1-GND-Pad23)*%
X252614000Y-30480000D03*
D13*
%TO.P,U1,24,GPIO18*%
%TO.N,unconnected-(U1-GPIO18-Pad24)_1*%
X251714000Y-27940000D03*
D14*
%TO.N,unconnected-(U1-GPIO18-Pad24)*%
X252614000Y-27940000D03*
D13*
%TO.P,U1,25,GPIO19*%
%TO.N,unconnected-(U1-GPIO19-Pad25)_1*%
X251714000Y-25400000D03*
D14*
%TO.N,unconnected-(U1-GPIO19-Pad25)*%
X252614000Y-25400000D03*
D13*
%TO.P,U1,26,GPIO20*%
%TO.N,unconnected-(U1-GPIO20-Pad26)*%
X251714000Y-22860000D03*
D14*
%TO.N,unconnected-(U1-GPIO20-Pad26)_1*%
X252614000Y-22860000D03*
D13*
%TO.P,U1,27,GPIO21*%
%TO.N,unconnected-(U1-GPIO21-Pad27)_1*%
X251714000Y-20320000D03*
D14*
%TO.N,unconnected-(U1-GPIO21-Pad27)*%
X252614000Y-20320000D03*
D15*
%TO.P,U1,28,GND*%
%TO.N,unconnected-(U1-GND-Pad28)*%
X251714000Y-17780000D03*
D14*
%TO.N,unconnected-(U1-GND-Pad28)_1*%
X252614000Y-17780000D03*
D13*
%TO.P,U1,29,GPIO22*%
%TO.N,unconnected-(U1-GPIO22-Pad29)_1*%
X251714000Y-15240000D03*
D14*
%TO.N,unconnected-(U1-GPIO22-Pad29)*%
X252614000Y-15240000D03*
D13*
%TO.P,U1,30,RUN*%
%TO.N,unconnected-(U1-RUN-Pad30)_1*%
X251714000Y-12700000D03*
D14*
%TO.N,unconnected-(U1-RUN-Pad30)*%
X252614000Y-12700000D03*
D13*
%TO.P,U1,31,GPIO26_ADC0*%
%TO.N,unconnected-(U1-GPIO26_ADC0-Pad31)*%
X251714000Y-10160000D03*
D14*
%TO.N,unconnected-(U1-GPIO26_ADC0-Pad31)_1*%
X252614000Y-10160000D03*
D13*
%TO.P,U1,32,GPIO27_ADC1*%
%TO.N,unconnected-(U1-GPIO27_ADC1-Pad32)*%
X251714000Y-7620000D03*
D14*
%TO.N,unconnected-(U1-GPIO27_ADC1-Pad32)_1*%
X252614000Y-7620000D03*
D15*
%TO.P,U1,33,AGND*%
%TO.N,unconnected-(U1-AGND-Pad33)_1*%
X251714000Y-5080000D03*
D14*
%TO.N,unconnected-(U1-AGND-Pad33)*%
X252614000Y-5080000D03*
D13*
%TO.P,U1,34,GPIO28_ADC2*%
%TO.N,unconnected-(U1-GPIO28_ADC2-Pad34)_1*%
X251714000Y-2540000D03*
D14*
%TO.N,unconnected-(U1-GPIO28_ADC2-Pad34)*%
X252614000Y-2540000D03*
D13*
%TO.P,U1,35,ADC_VREF*%
%TO.N,unconnected-(U1-ADC_VREF-Pad35)*%
X251714000Y0D03*
D14*
%TO.N,unconnected-(U1-ADC_VREF-Pad35)_1*%
X252614000Y0D03*
D13*
%TO.P,U1,36,3V3*%
%TO.N,unconnected-(U1-3V3-Pad36)*%
X251714000Y2540000D03*
D14*
%TO.N,unconnected-(U1-3V3-Pad36)_1*%
X252614000Y2540000D03*
D13*
%TO.P,U1,37,3V3_EN*%
%TO.N,unconnected-(U1-3V3_EN-Pad37)*%
X251714000Y5080000D03*
D14*
%TO.N,unconnected-(U1-3V3_EN-Pad37)_1*%
X252614000Y5080000D03*
D15*
%TO.P,U1,38,GND*%
%TO.N,unconnected-(U1-GND-Pad38)*%
X251714000Y7620000D03*
D14*
%TO.N,unconnected-(U1-GND-Pad38)_1*%
X252614000Y7620000D03*
D13*
%TO.P,U1,39,VSYS*%
%TO.N,unconnected-(U1-VSYS-Pad39)_1*%
X251714000Y10160000D03*
D14*
%TO.N,unconnected-(U1-VSYS-Pad39)*%
X252614000Y10160000D03*
D13*
%TO.P,U1,40,VBUS*%
%TO.N,unconnected-(U1-VBUS-Pad40)*%
X251714000Y12700000D03*
D14*
%TO.N,unconnected-(U1-VBUS-Pad40)_1*%
X252614000Y12700000D03*
D13*
%TO.P,U1,41,SWCLK*%
%TO.N,unconnected-(U1-SWCLK-Pad41)*%
X240284000Y-35330000D03*
D16*
%TO.N,unconnected-(U1-SWCLK-Pad41)_1*%
X240284000Y-36230000D03*
D15*
%TO.P,U1,42,GND*%
%TO.N,unconnected-(U1-GND-Pad42)*%
X242824000Y-35330000D03*
D16*
%TO.N,unconnected-(U1-GND-Pad42)_1*%
X242824000Y-36230000D03*
D13*
%TO.P,U1,43,SWDIO*%
%TO.N,unconnected-(U1-SWDIO-Pad43)*%
X245364000Y-35330000D03*
D16*
%TO.N,unconnected-(U1-SWDIO-Pad43)_1*%
X245364000Y-36230000D03*
%TD*%
D29*
%TO.P,S8,1,1*%
%TO.N,Net-(J5-Pin_6)*%
X10160000Y-60924000D03*
X3660000Y-60924000D03*
%TO.P,S8,2,2*%
%TO.N,GND*%
X10160000Y-56424000D03*
X3660000Y-56424000D03*
%TD*%
D43*
%TO.P,R9,1*%
%TO.N,VSYS*%
X171387000Y-30480000D03*
%TO.P,R9,2*%
%TO.N,Net-(LED17-A)*%
X173037000Y-30480000D03*
%TD*%
D44*
%TO.P,DS2,1,1*%
%TO.N,/Wy\u015Bwietlacz segmentowy/e*%
X117602000Y-145288000D03*
D45*
%TO.P,DS2,2,2*%
%TO.N,/Wy\u015Bwietlacz segmentowy/d*%
X120142000Y-145288000D03*
%TO.P,DS2,3,3*%
%TO.N,/Wy\u015Bwietlacz segmentowy/DP*%
X122682000Y-145288000D03*
%TO.P,DS2,4,4*%
%TO.N,/Wy\u015Bwietlacz segmentowy/c*%
X125222000Y-145288000D03*
%TO.P,DS2,5,5*%
%TO.N,/Wy\u015Bwietlacz segmentowy/g*%
X127762000Y-145288000D03*
%TO.P,DS2,6,6*%
%TO.N,/Wy\u015Bwietlacz segmentowy/DIG4*%
X130302000Y-145288000D03*
%TO.P,DS2,7,7*%
%TO.N,/Wy\u015Bwietlacz segmentowy/b*%
X130302000Y-130048000D03*
%TO.P,DS2,8,8*%
%TO.N,/Wy\u015Bwietlacz segmentowy/DIG3*%
X127762000Y-130048000D03*
%TO.P,DS2,9,9*%
%TO.N,/Wy\u015Bwietlacz segmentowy/DIG2*%
X125222000Y-130048000D03*
%TO.P,DS2,10,10*%
%TO.N,/Wy\u015Bwietlacz segmentowy/f*%
X122682000Y-130048000D03*
%TO.P,DS2,11,11*%
%TO.N,/Wy\u015Bwietlacz segmentowy/a*%
X120142000Y-130048000D03*
%TO.P,DS2,12,12*%
%TO.N,/Wy\u015Bwietlacz segmentowy/DIG1*%
X117602000Y-130048000D03*
%TD*%
D15*
%TO.P,J3,1,Pin_1*%
%TO.N,Net-(DS1-SDO)*%
X98343000Y-111652000D03*
D13*
%TO.P,J3,2,Pin_2*%
%TO.N,Net-(DS1-SDA)*%
X98343000Y-114192000D03*
%TO.P,J3,3,Pin_3*%
%TO.N,Net-(DS1-~{CSX})*%
X98343000Y-116732000D03*
%TO.P,J3,4,Pin_4*%
%TO.N,Net-(DS1-D{slash}C)*%
X98343000Y-119272000D03*
%TO.P,J3,5,Pin_5*%
%TO.N,Net-(DS1-SCL)*%
X98343000Y-121812000D03*
%TO.P,J3,6,Pin_6*%
%TO.N,Net-(DS1-~{RESET})*%
X98343000Y-124352000D03*
%TD*%
D42*
%TO.P,R33,1*%
%TO.N,Net-(J25-Pin_2)*%
X111130000Y-115253000D03*
%TO.P,R33,2*%
%TO.N,Net-(Q4-B)*%
X111130000Y-116903000D03*
%TD*%
D46*
%TO.P,C7,1*%
%TO.N,Net-(IC6-VDD)*%
X203975000Y-31496000D03*
%TO.P,C7,2*%
%TO.N,GND*%
X202425000Y-31496000D03*
%TD*%
D15*
%TO.P,J21,1,Pin_1*%
%TO.N,/c1*%
X110998000Y-3810000D03*
D13*
%TO.P,J21,2,Pin_2*%
X113538000Y-3810000D03*
%TO.P,J21,3,Pin_3*%
%TO.N,/c2*%
X110998000Y-6350000D03*
%TO.P,J21,4,Pin_4*%
X113538000Y-6350000D03*
%TO.P,J21,5,Pin_5*%
%TO.N,/c3*%
X110998000Y-8890000D03*
%TO.P,J21,6,Pin_6*%
X113538000Y-8890000D03*
%TO.P,J21,7,Pin_7*%
%TO.N,/c4*%
X110998000Y-11430000D03*
%TO.P,J21,8,Pin_8*%
X113538000Y-11430000D03*
%TO.P,J21,9,Pin_9*%
%TO.N,/c5*%
X110998000Y-13970000D03*
%TO.P,J21,10,Pin_10*%
X113538000Y-13970000D03*
%TO.P,J21,11,Pin_11*%
%TO.N,/c6*%
X110998000Y-16510000D03*
%TO.P,J21,12,Pin_12*%
X113538000Y-16510000D03*
%TO.P,J21,13,Pin_13*%
%TO.N,/c7*%
X110998000Y-19050000D03*
%TO.P,J21,14,Pin_14*%
X113538000Y-19050000D03*
%TO.P,J21,15,Pin_15*%
%TO.N,/c8*%
X110998000Y-21590000D03*
%TO.P,J21,16,Pin_16*%
X113538000Y-21590000D03*
%TO.P,J21,17,Pin_17*%
%TO.N,/c9*%
X110998000Y-24130000D03*
%TO.P,J21,18,Pin_18*%
X113538000Y-24130000D03*
%TO.P,J21,19,Pin_19*%
%TO.N,/c10*%
X110998000Y-26670000D03*
%TO.P,J21,20,Pin_20*%
X113538000Y-26670000D03*
%TO.P,J21,21,Pin_21*%
%TO.N,/c11*%
X110998000Y-29210000D03*
%TO.P,J21,22,Pin_22*%
X113538000Y-29210000D03*
%TO.P,J21,23,Pin_23*%
%TO.N,/c12*%
X110998000Y-31750000D03*
%TO.P,J21,24,Pin_24*%
X113538000Y-31750000D03*
%TO.P,J21,25,Pin_25*%
%TO.N,/c13*%
X110998000Y-34290000D03*
%TO.P,J21,26,Pin_26*%
X113538000Y-34290000D03*
%TO.P,J21,27,Pin_27*%
%TO.N,/c14*%
X110998000Y-36830000D03*
%TO.P,J21,28,Pin_28*%
X113538000Y-36830000D03*
%TO.P,J21,29,Pin_29*%
%TO.N,/c15*%
X110998000Y-39370000D03*
%TO.P,J21,30,Pin_30*%
X113538000Y-39370000D03*
%TO.P,J21,31,Pin_31*%
%TO.N,/c16*%
X110998000Y-41910000D03*
%TO.P,J21,32,Pin_32*%
X113538000Y-41910000D03*
%TO.P,J21,33,Pin_33*%
%TO.N,/c17*%
X110998000Y-44450000D03*
%TO.P,J21,34,Pin_34*%
X113538000Y-44450000D03*
%TO.P,J21,35,Pin_35*%
%TO.N,/c18*%
X110998000Y-46990000D03*
%TO.P,J21,36,Pin_36*%
X113538000Y-46990000D03*
%TO.P,J21,37,Pin_37*%
%TO.N,/c19*%
X110998000Y-49530000D03*
%TO.P,J21,38,Pin_38*%
X113538000Y-49530000D03*
%TO.P,J21,39,Pin_39*%
%TO.N,/c20*%
X110998000Y-52070000D03*
%TO.P,J21,40,Pin_40*%
X113538000Y-52070000D03*
%TD*%
D35*
%TO.P,Q4,1,B*%
%TO.N,Net-(Q4-B)*%
X110998000Y-119126000D03*
%TO.P,Q4,2,E*%
%TO.N,+3.3V*%
X109098000Y-119126000D03*
%TO.P,Q4,3,C*%
%TO.N,/Wy\u015Bwietlacz segmentowy/DIG3*%
X110048000Y-121001000D03*
%TD*%
D12*
%TO.P,R6,1*%
%TO.N,Net-(D4-A)*%
X102870000Y-18097000D03*
%TO.P,R6,2*%
%TO.N,Net-(LED14-A)*%
X102870000Y-16447000D03*
%TD*%
D35*
%TO.P,Q2,1,B*%
%TO.N,Net-(Q2-B)*%
X117856000Y-119098300D03*
%TO.P,Q2,2,E*%
%TO.N,+3.3V*%
X115956000Y-119098300D03*
%TO.P,Q2,3,C*%
%TO.N,/Wy\u015Bwietlacz segmentowy/DIG1*%
X116906000Y-120973300D03*
%TD*%
D42*
%TO.P,R4,1*%
%TO.N,Net-(Q7-B)*%
X120396000Y-75629000D03*
%TO.P,R4,2*%
%TO.N,/Wy\u015Bwietlacz LCD/BL*%
X120396000Y-77279000D03*
%TD*%
D15*
%TO.P,J25,1,Pin_1*%
%TO.N,Net-(J25-Pin_1)*%
X108082000Y-112268000D03*
D13*
%TO.P,J25,2,Pin_2*%
%TO.N,Net-(J25-Pin_2)*%
X110622000Y-112268000D03*
%TO.P,J25,3,Pin_3*%
%TO.N,Net-(J25-Pin_3)*%
X113162000Y-112268000D03*
%TO.P,J25,4,Pin_4*%
%TO.N,Net-(J25-Pin_4)*%
X115702000Y-112268000D03*
%TD*%
D17*
%TO.P,R22,1*%
%TO.N,+3.3V*%
X33796000Y-85990000D03*
%TO.P,R22,2*%
%TO.N,Net-(LED1-A_GREEN)*%
X32146000Y-85990000D03*
%TD*%
D12*
%TO.P,R11,1*%
%TO.N,+3.3V*%
X50292000Y-74637000D03*
%TO.P,R11,2*%
%TO.N,Net-(LED2-A)*%
X50292000Y-72987000D03*
%TD*%
D26*
%TO.P,LED16,1,K*%
%TO.N,GND*%
X183896000Y-30480000D03*
%TO.P,LED16,2,A*%
%TO.N,Net-(LED16-A)*%
X182296000Y-30480000D03*
%TD*%
D12*
%TO.P,R41,1*%
%TO.N,+3.3V*%
X62738000Y-74588500D03*
%TO.P,R41,2*%
%TO.N,Net-(LED5-A)*%
X62738000Y-72938500D03*
%TD*%
D26*
%TO.P,LED18,1,K*%
%TO.N,GND*%
X4597000Y-10668000D03*
%TO.P,LED18,2,A*%
%TO.N,Net-(LED18-A)*%
X6197000Y-10668000D03*
%TD*%
D42*
%TO.P,R32,1*%
%TO.N,Net-(J25-Pin_3)*%
X112718000Y-115253000D03*
%TO.P,R32,2*%
%TO.N,Net-(Q3-B)*%
X112718000Y-116903000D03*
%TD*%
D17*
%TO.P,R43,1*%
%TO.N,Net-(IC1-SCL)*%
X99885000Y-48514000D03*
%TO.P,R43,2*%
%TO.N,+3.3V*%
X98235000Y-48514000D03*
%TD*%
D15*
%TO.P,J22,1,Pin_1*%
%TO.N,/d1*%
X146558000Y-3810000D03*
D13*
%TO.P,J22,2,Pin_2*%
X149098000Y-3810000D03*
%TO.P,J22,3,Pin_3*%
%TO.N,VSYS*%
X146558000Y-6350000D03*
%TO.P,J22,4,Pin_4*%
X149098000Y-6350000D03*
%TO.P,J22,5,Pin_5*%
%TO.N,/d3*%
X146558000Y-8890000D03*
%TO.P,J22,6,Pin_6*%
X149098000Y-8890000D03*
%TO.P,J22,7,Pin_7*%
%TO.N,/d4*%
X146558000Y-11430000D03*
%TO.P,J22,8,Pin_8*%
X149098000Y-11430000D03*
%TO.P,J22,9,Pin_9*%
%TO.N,/d5*%
X146558000Y-13970000D03*
%TO.P,J22,10,Pin_10*%
X149098000Y-13970000D03*
%TO.P,J22,11,Pin_11*%
%TO.N,/d6*%
X146558000Y-16510000D03*
%TO.P,J22,12,Pin_12*%
X149098000Y-16510000D03*
%TO.P,J22,13,Pin_13*%
%TO.N,/d7*%
X146558000Y-19050000D03*
%TO.P,J22,14,Pin_14*%
X149098000Y-19050000D03*
%TO.P,J22,15,Pin_15*%
%TO.N,/d8*%
X146558000Y-21590000D03*
%TO.P,J22,16,Pin_16*%
X149098000Y-21590000D03*
%TO.P,J22,17,Pin_17*%
%TO.N,/d9*%
X146558000Y-24130000D03*
%TO.P,J22,18,Pin_18*%
X149098000Y-24130000D03*
%TO.P,J22,19,Pin_19*%
%TO.N,/d10*%
X146558000Y-26670000D03*
%TO.P,J22,20,Pin_20*%
X149098000Y-26670000D03*
%TO.P,J22,21,Pin_21*%
%TO.N,/d11*%
X146558000Y-29210000D03*
%TO.P,J22,22,Pin_22*%
X149098000Y-29210000D03*
%TO.P,J22,23,Pin_23*%
%TO.N,/d12*%
X146558000Y-31750000D03*
%TO.P,J22,24,Pin_24*%
X149098000Y-31750000D03*
%TO.P,J22,25,Pin_25*%
%TO.N,/d13*%
X146558000Y-34290000D03*
%TO.P,J22,26,Pin_26*%
X149098000Y-34290000D03*
%TO.P,J22,27,Pin_27*%
%TO.N,/d14*%
X146558000Y-36830000D03*
%TO.P,J22,28,Pin_28*%
X149098000Y-36830000D03*
%TO.P,J22,29,Pin_29*%
%TO.N,/d15*%
X146558000Y-39370000D03*
%TO.P,J22,30,Pin_30*%
X149098000Y-39370000D03*
%TO.P,J22,31,Pin_31*%
%TO.N,/d16*%
X146558000Y-41910000D03*
%TO.P,J22,32,Pin_32*%
X149098000Y-41910000D03*
%TO.P,J22,33,Pin_33*%
%TO.N,/d17*%
X146558000Y-44450000D03*
%TO.P,J22,34,Pin_34*%
X149098000Y-44450000D03*
%TO.P,J22,35,Pin_35*%
%TO.N,/d18*%
X146558000Y-46990000D03*
%TO.P,J22,36,Pin_36*%
X149098000Y-46990000D03*
%TO.P,J22,37,Pin_37*%
%TO.N,/d19*%
X146558000Y-49530000D03*
%TO.P,J22,38,Pin_38*%
X149098000Y-49530000D03*
%TO.P,J22,39,Pin_39*%
%TO.N,/d20*%
X146558000Y-52070000D03*
%TO.P,J22,40,Pin_40*%
X149098000Y-52070000D03*
%TD*%
D47*
%TO.P,C2,1*%
%TO.N,Net-(IC4-3V3OUT)*%
X16510000Y-24397000D03*
%TO.P,C2,2*%
%TO.N,GND*%
X16510000Y-22847000D03*
%TD*%
D43*
%TO.P,R44,1*%
%TO.N,Net-(IC1-SDA)*%
X103823000Y-48514000D03*
%TO.P,R44,2*%
%TO.N,+3.3V*%
X105473000Y-48514000D03*
%TD*%
D19*
%TO.P,D5,1,K*%
%TO.N,+3.3V*%
X166370000Y-25114000D03*
%TO.P,D5,2,A*%
%TO.N,Net-(D5-A)*%
X166370000Y-21114000D03*
%TD*%
D15*
%TO.P,J37,1,Pin_1*%
%TO.N,/b20*%
X72644000Y-52578000D03*
D13*
%TO.P,J37,2,Pin_2*%
%TO.N,/b19*%
X72644000Y-50038000D03*
%TO.P,J37,3,Pin_3*%
%TO.N,/b18*%
X72644000Y-47498000D03*
%TO.P,J37,4,Pin_4*%
%TO.N,/b17*%
X72644000Y-44958000D03*
%TO.P,J37,5,Pin_5*%
%TO.N,/b16*%
X72644000Y-42418000D03*
%TO.P,J37,6,Pin_6*%
%TO.N,/b15*%
X72644000Y-39878000D03*
%TO.P,J37,7,Pin_7*%
%TO.N,/b14*%
X72644000Y-37338000D03*
%TO.P,J37,8,Pin_8*%
%TO.N,/b13*%
X72644000Y-34798000D03*
%TO.P,J37,9,Pin_9*%
%TO.N,/b12*%
X72644000Y-32258000D03*
%TO.P,J37,10,Pin_10*%
%TO.N,/b11*%
X72644000Y-29718000D03*
%TO.P,J37,11,Pin_11*%
%TO.N,/b10*%
X72644000Y-27178000D03*
%TO.P,J37,12,Pin_12*%
%TO.N,/b9*%
X72644000Y-24638000D03*
%TO.P,J37,13,Pin_13*%
%TO.N,/b8*%
X72644000Y-22098000D03*
%TO.P,J37,14,Pin_14*%
%TO.N,/b7*%
X72644000Y-19558000D03*
%TO.P,J37,15,Pin_15*%
%TO.N,/b6*%
X72644000Y-17018000D03*
%TO.P,J37,16,Pin_16*%
%TO.N,/b5*%
X72644000Y-14478000D03*
%TO.P,J37,17,Pin_17*%
%TO.N,/b4*%
X72644000Y-11938000D03*
%TO.P,J37,18,Pin_18*%
%TO.N,/b3*%
X72644000Y-9398000D03*
%TO.P,J37,19,Pin_19*%
%TO.N,VSYS*%
X72644000Y-6858000D03*
%TO.P,J37,20,Pin_20*%
%TO.N,/b1*%
X72644000Y-4318000D03*
%TD*%
D26*
%TO.P,LED14,1,K*%
%TO.N,GND*%
X98260000Y-16510000D03*
%TO.P,LED14,2,A*%
%TO.N,Net-(LED14-A)*%
X99860000Y-16510000D03*
%TD*%
D29*
%TO.P,S5,1,1*%
%TO.N,Net-(J5-Pin_3)*%
X10160000Y-36540000D03*
X3660000Y-36540000D03*
%TO.P,S5,2,2*%
%TO.N,GND*%
X10160000Y-32040000D03*
X3660000Y-32040000D03*
%TD*%
D43*
%TO.P,R8,1*%
%TO.N,+3.3V*%
X178499000Y-30480000D03*
%TO.P,R8,2*%
%TO.N,Net-(LED16-A)*%
X180149000Y-30480000D03*
%TD*%
%TO.P,R46,1*%
%TO.N,GND*%
X22607000Y-14351000D03*
%TO.P,R46,2*%
%TO.N,Net-(J34-CC2)*%
X24257000Y-14351000D03*
%TD*%
D48*
%TO.P,Q7,1,E*%
%TO.N,GND*%
X116144000Y-75535000D03*
%TO.P,Q7,2,B*%
%TO.N,Net-(Q7-B)*%
X118044000Y-75535000D03*
%TO.P,Q7,3,C*%
%TO.N,Net-(J7-Pin_15)*%
X117094000Y-73660000D03*
%TD*%
D15*
%TO.P,J29,1,Pin_1*%
%TO.N,Net-(J29-Pin_1)*%
X66040000Y-63030000D03*
D13*
%TO.P,J29,2,Pin_2*%
%TO.N,Net-(J29-Pin_2)*%
X63500000Y-63030000D03*
%TO.P,J29,3,Pin_3*%
%TO.N,Net-(J29-Pin_3)*%
X60960000Y-63030000D03*
%TO.P,J29,4,Pin_4*%
%TO.N,Net-(J29-Pin_4)*%
X58420000Y-63030000D03*
%TO.P,J29,5,Pin_5*%
%TO.N,Net-(J29-Pin_5)*%
X55880000Y-63030000D03*
%TO.P,J29,6,Pin_6*%
%TO.N,Net-(J29-Pin_6)*%
X53340000Y-63030000D03*
%TO.P,J29,7,Pin_7*%
%TO.N,Net-(J29-Pin_7)*%
X50800000Y-63030000D03*
%TO.P,J29,8,Pin_8*%
%TO.N,Net-(J29-Pin_8)*%
X48260000Y-63030000D03*
%TD*%
D36*
%TO.P,RV1,1,1*%
%TO.N,+3.3V*%
X61254000Y-87336000D03*
%TO.P,RV1,2,2*%
%TO.N,Net-(J7-Pin_3)*%
X66254000Y-84836000D03*
D49*
%TO.P,RV1,3,3*%
%TO.N,GND*%
X61254000Y-82336000D03*
%TD*%
D27*
%TO.P,LED10,1,K*%
%TO.N,Net-(IC4-CBUS0)*%
X23114000Y-18212000D03*
%TO.P,LED10,2,A*%
%TO.N,Net-(LED10-A)*%
X23114000Y-16612000D03*
%TD*%
%TO.P,LED3,1,K*%
%TO.N,Net-(J29-Pin_6)*%
X53340000Y-67437000D03*
%TO.P,LED3,2,A*%
%TO.N,Net-(LED3-A)*%
X53340000Y-69037000D03*
%TD*%
D35*
%TO.P,Q3,1,B*%
%TO.N,Net-(Q3-B)*%
X114416800Y-119103300D03*
%TO.P,Q3,2,E*%
%TO.N,+3.3V*%
X112516800Y-119103300D03*
%TO.P,Q3,3,C*%
%TO.N,/Wy\u015Bwietlacz segmentowy/DIG2*%
X113466800Y-120978300D03*
%TD*%
D12*
%TO.P,R24,1*%
%TO.N,/Wy\u015Bwietlacz segmentowy/b*%
X138938000Y-117978000D03*
%TO.P,R24,2*%
%TO.N,Net-(J24-Pin_2)*%
X138938000Y-116328000D03*
%TD*%
%TO.P,R26,1*%
%TO.N,/Wy\u015Bwietlacz segmentowy/d*%
X135890000Y-117978000D03*
%TO.P,R26,2*%
%TO.N,Net-(J24-Pin_4)*%
X135890000Y-116328000D03*
%TD*%
D15*
%TO.P,J13,1,Pin_1*%
%TO.N,Net-(J13-Pin_1)*%
X28448000Y-77153000D03*
D13*
%TO.P,J13,2,Pin_2*%
%TO.N,Net-(J13-Pin_2)*%
X25908000Y-77153000D03*
%TO.P,J13,3,Pin_3*%
%TO.N,Net-(J13-Pin_3)*%
X23368000Y-77153000D03*
%TD*%
D29*
%TO.P,S10,1,1*%
%TO.N,Net-(J5-Pin_8)*%
X10160000Y-77180000D03*
X3660000Y-77180000D03*
%TO.P,S10,2,2*%
%TO.N,GND*%
X10160000Y-72680000D03*
X3660000Y-72680000D03*
%TD*%
D42*
%TO.P,R31,1*%
%TO.N,Net-(J25-Pin_4)*%
X114242000Y-115253000D03*
%TO.P,R31,2*%
%TO.N,Net-(Q2-B)*%
X114242000Y-116903000D03*
%TD*%
D50*
%TO.P,J12,1,DAT2*%
%TO.N,/Gniazdo kart micro SD/m1*%
X199810000Y-17358000D03*
%TO.P,J12,2,CD/DAT3*%
%TO.N,/Gniazdo kart micro SD/m2*%
X200910000Y-17358000D03*
%TO.P,J12,3,CMD*%
%TO.N,/Gniazdo kart micro SD/m3*%
X202010000Y-17358000D03*
%TO.P,J12,4,VDD*%
%TO.N,+3.3V*%
X203110000Y-17358000D03*
%TO.P,J12,5,CLK*%
%TO.N,/Gniazdo kart micro SD/m4*%
X204210000Y-17358000D03*
%TO.P,J12,6,VSS*%
%TO.N,+3.3V*%
X205310000Y-17358000D03*
%TO.P,J12,7,DAT0*%
%TO.N,/Gniazdo kart micro SD/m5*%
X206410000Y-17358000D03*
%TO.P,J12,8,DAT1*%
%TO.N,/Gniazdo kart micro SD/m6*%
X207510000Y-17358000D03*
%TO.P,J12,CD1,CARD_DETECTION*%
%TO.N,/Gniazdo kart micro SD/m7*%
X208610000Y-17358000D03*
D51*
%TO.P,J12,G1,GROUND*%
%TO.N,GND*%
X209810000Y-16858000D03*
D52*
%TO.P,J12,MP1,MP1*%
X195210000Y-16858000D03*
D53*
%TO.P,J12,MP2,MP2*%
X194310000Y-7258000D03*
%TO.P,J12,MP3,MP3*%
X209810000Y-7258000D03*
%TD*%
D17*
%TO.P,R45,1*%
%TO.N,GND*%
X29654000Y-14478000D03*
%TO.P,R45,2*%
%TO.N,Net-(J34-CC1)*%
X28004000Y-14478000D03*
%TD*%
D12*
%TO.P,R28,1*%
%TO.N,/Wy\u015Bwietlacz segmentowy/f*%
X128778000Y-118110000D03*
%TO.P,R28,2*%
%TO.N,Net-(J24-Pin_6)*%
X128778000Y-116460000D03*
%TD*%
%TO.P,R12,1*%
%TO.N,+3.3V*%
X51816000Y-74637000D03*
%TO.P,R12,2*%
%TO.N,Net-(LED6-A)*%
X51816000Y-72987000D03*
%TD*%
D54*
%TO.P,IC4,1,TXD*%
%TO.N,/Port USB/TXD*%
X27432000Y-30637000D03*
%TO.P,IC4,2,DTR#*%
%TO.N,/Port USB/DTR*%
X27432000Y-29987000D03*
%TO.P,IC4,3,RTS#*%
%TO.N,/Port USB/RTS*%
X27432000Y-29337000D03*
%TO.P,IC4,4,VCCIO*%
%TO.N,+5V*%
X27432000Y-28687000D03*
%TO.P,IC4,5,RXD*%
%TO.N,/Port USB/RXD*%
X27432000Y-28037000D03*
%TO.P,IC4,6,RI#*%
%TO.N,/Port USB/RI*%
X27432000Y-27387000D03*
%TO.P,IC4,7,GND_1*%
%TO.N,GND*%
X27432000Y-26737000D03*
%TO.P,IC4,8,NC_1*%
%TO.N,unconnected-(IC4-NC_1-Pad8)*%
X27432000Y-26087000D03*
%TO.P,IC4,9,DSR#*%
%TO.N,/Port USB/DSR*%
X27432000Y-25437000D03*
%TO.P,IC4,10,DCD#*%
%TO.N,/Port USB/DCD*%
X27432000Y-24787000D03*
%TO.P,IC4,11,CTS#*%
%TO.N,/Port USB/CTS*%
X27432000Y-24137000D03*
%TO.P,IC4,12,CBUS4*%
%TO.N,/Port USB/C4*%
X27432000Y-23487000D03*
%TO.P,IC4,13,CBUS2*%
%TO.N,unconnected-(IC4-CBUS2-Pad13)*%
X27432000Y-22837000D03*
%TO.P,IC4,14,CBUS3*%
%TO.N,/Port USB/C3*%
X27432000Y-22187000D03*
%TO.P,IC4,15,USBDP*%
%TO.N,Net-(IC4-USBDP)*%
X20408000Y-22187000D03*
%TO.P,IC4,16,USBDM*%
%TO.N,Net-(IC4-USBDM)*%
X20408000Y-22837000D03*
%TO.P,IC4,17,3V3OUT*%
%TO.N,Net-(IC4-3V3OUT)*%
X20408000Y-23487000D03*
%TO.P,IC4,18,GND_2*%
%TO.N,GND*%
X20408000Y-24137000D03*
%TO.P,IC4,19,RESET#*%
%TO.N,unconnected-(IC4-RESET#-Pad19)*%
X20408000Y-24787000D03*
%TO.P,IC4,20,VCC*%
%TO.N,+5V*%
X20408000Y-25437000D03*
%TO.P,IC4,21,GND_3*%
%TO.N,GND*%
X20408000Y-26087000D03*
%TO.P,IC4,22,CBUS1*%
%TO.N,Net-(IC4-CBUS1)*%
X20408000Y-26737000D03*
%TO.P,IC4,23,CBUS0*%
%TO.N,Net-(IC4-CBUS0)*%
X20408000Y-27387000D03*
%TO.P,IC4,24,NC_2*%
%TO.N,unconnected-(IC4-NC_2-Pad24)*%
X20408000Y-28037000D03*
%TO.P,IC4,25,AGND*%
%TO.N,GND*%
X20408000Y-28687000D03*
%TO.P,IC4,26,TEST*%
X20408000Y-29337000D03*
%TO.P,IC4,27,OSCI*%
%TO.N,unconnected-(IC4-OSCI-Pad27)*%
X20408000Y-29987000D03*
%TO.P,IC4,28,OSCO*%
%TO.N,unconnected-(IC4-OSCO-Pad28)*%
X20408000Y-30637000D03*
%TD*%
D15*
%TO.P,J11,1,Pin_1*%
%TO.N,+3.3V*%
X39370000Y-12954000D03*
D13*
%TO.P,J11,2,Pin_2*%
%TO.N,Net-(IC3-DQ)*%
X36830000Y-12954000D03*
%TO.P,J11,3,Pin_3*%
%TO.N,GND*%
X34290000Y-12954000D03*
%TD*%
D17*
%TO.P,R15,1*%
%TO.N,Net-(IC2-SCL)*%
X89217000Y-32512000D03*
%TO.P,R15,2*%
%TO.N,+3.3V*%
X87567000Y-32512000D03*
%TD*%
D15*
%TO.P,J43,1,Pin_1*%
%TO.N,GND*%
X87376000Y-9398000D03*
%TD*%
D12*
%TO.P,R25,1*%
%TO.N,/Wy\u015Bwietlacz segmentowy/c*%
X137414000Y-117982000D03*
%TO.P,R25,2*%
%TO.N,Net-(J24-Pin_3)*%
X137414000Y-116332000D03*
%TD*%
D29*
%TO.P,S7,1,1*%
%TO.N,Net-(J5-Pin_5)*%
X10160000Y-52796000D03*
X3660000Y-52796000D03*
%TO.P,S7,2,2*%
%TO.N,GND*%
X10160000Y-48296000D03*
X3660000Y-48296000D03*
%TD*%
D55*
%TO.P,DS1,*%
%TO.N,*%
X2824000Y-94269000D03*
X2824000Y-140719000D03*
X68424000Y-94269000D03*
X68424000Y-140719000D03*
D56*
%TO.P,DS1,1,GND*%
%TO.N,GND*%
X90424000Y-123634000D03*
%TO.P,DS1,2,~{RESET}*%
%TO.N,Net-(DS1-~{RESET})*%
X90424000Y-122834000D03*
%TO.P,DS1,3,SCL*%
%TO.N,Net-(DS1-SCL)*%
X90424000Y-122034000D03*
%TO.P,DS1,4,D/C*%
%TO.N,Net-(DS1-D{slash}C)*%
X90424000Y-121234000D03*
%TO.P,DS1,5,~{CSX}*%
%TO.N,Net-(DS1-~{CSX})*%
X90424000Y-120434000D03*
%TO.P,DS1,6,SDA*%
%TO.N,Net-(DS1-SDA)*%
X90424000Y-119634000D03*
%TO.P,DS1,7,SDO*%
%TO.N,Net-(DS1-SDO)*%
X90424000Y-118834000D03*
%TO.P,DS1,8,GND*%
%TO.N,GND*%
X90424000Y-118034000D03*
%TO.P,DS1,9,VDD*%
%TO.N,+3.3V*%
X90424000Y-117234000D03*
%TO.P,DS1,10,LED-A*%
%TO.N,Net-(DS1-LED-A)*%
X90424000Y-116434000D03*
%TO.P,DS1,11,LED-K*%
%TO.N,GND*%
X90424000Y-115634000D03*
%TO.P,DS1,12,LED-K*%
X90424000Y-114834000D03*
%TO.P,DS1,13,LED-K*%
X90424000Y-114034000D03*
%TO.P,DS1,14,LED-K*%
X90424000Y-113234000D03*
%TO.P,DS1,15,NC*%
%TO.N,unconnected-(DS1-NC-Pad15)*%
X90424000Y-112434000D03*
%TO.P,DS1,16,NC*%
%TO.N,unconnected-(DS1-NC-Pad16)*%
X90424000Y-111634000D03*
%TO.P,DS1,17,NC*%
%TO.N,unconnected-(DS1-NC-Pad17)*%
X90424000Y-110834000D03*
%TO.P,DS1,18,NC*%
%TO.N,unconnected-(DS1-NC-Pad18)*%
X90424000Y-110034000D03*
%TD*%
D36*
%TO.P,VR2,1,1*%
%TO.N,GND*%
X24424000Y-62056000D03*
%TO.P,VR2,2,2*%
%TO.N,Net-(R14-Pad2)*%
X26924000Y-67056000D03*
D49*
%TO.P,VR2,3,3*%
%TO.N,+3.3V*%
X29424000Y-62056000D03*
%TD*%
D27*
%TO.P,LED2,1,K*%
%TO.N,Net-(J29-Pin_8)*%
X48260000Y-67399000D03*
%TO.P,LED2,2,A*%
%TO.N,Net-(LED2-A)*%
X48260000Y-68999000D03*
%TD*%
D15*
%TO.P,J26,1,Pin_1*%
%TO.N,/a1*%
X55626000Y-4318000D03*
D13*
%TO.P,J26,2,Pin_2*%
%TO.N,/a2*%
X55626000Y-6858000D03*
%TO.P,J26,3,Pin_3*%
%TO.N,/a3*%
X55626000Y-9398000D03*
%TO.P,J26,4,Pin_4*%
%TO.N,/a4*%
X55626000Y-11938000D03*
%TO.P,J26,5,Pin_5*%
%TO.N,/a5*%
X55626000Y-14478000D03*
%TO.P,J26,6,Pin_6*%
%TO.N,/a6*%
X55626000Y-17018000D03*
%TO.P,J26,7,Pin_7*%
%TO.N,/a7*%
X55626000Y-19558000D03*
%TO.P,J26,8,Pin_8*%
%TO.N,/a8*%
X55626000Y-22098000D03*
%TO.P,J26,9,Pin_9*%
%TO.N,/a9*%
X55626000Y-24638000D03*
%TO.P,J26,10,Pin_10*%
%TO.N,/a10*%
X55626000Y-27178000D03*
%TO.P,J26,11,Pin_11*%
%TO.N,/a11*%
X55626000Y-29718000D03*
%TO.P,J26,12,Pin_12*%
%TO.N,/a12*%
X55626000Y-32258000D03*
%TO.P,J26,13,Pin_13*%
%TO.N,/a13*%
X55626000Y-34798000D03*
%TO.P,J26,14,Pin_14*%
%TO.N,/a14*%
X55626000Y-37338000D03*
%TO.P,J26,15,Pin_15*%
%TO.N,/a15*%
X55626000Y-39878000D03*
%TO.P,J26,16,Pin_16*%
%TO.N,/a16*%
X55626000Y-42418000D03*
%TO.P,J26,17,Pin_17*%
%TO.N,/a17*%
X55626000Y-44958000D03*
%TO.P,J26,18,Pin_18*%
%TO.N,/a18*%
X55626000Y-47498000D03*
%TO.P,J26,19,Pin_19*%
%TO.N,/a19*%
X55626000Y-50038000D03*
%TO.P,J26,20,Pin_20*%
%TO.N,/a20*%
X55626000Y-52578000D03*
%TD*%
D15*
%TO.P,J33,1,Pin_1*%
%TO.N,Net-(IC2-E0)*%
X103124000Y-33274000D03*
D13*
%TO.P,J33,2,Pin_2*%
%TO.N,GND*%
X103124000Y-30734000D03*
%TD*%
D21*
%TO.P,LED9,1,K*%
%TO.N,Net-(J29-Pin_1)*%
X66040000Y-67272000D03*
%TO.P,LED9,2,A*%
%TO.N,Net-(LED9-A)*%
X66040000Y-68872000D03*
%TD*%
D15*
%TO.P,J19,1,Pin_1*%
%TO.N,/Wy\u015Bwietlacz LCD/R{slash}W*%
X40132000Y-86360000D03*
D13*
%TO.P,J19,2,Pin_2*%
%TO.N,GND*%
X40132000Y-83820000D03*
%TO.P,J19,3,Pin_3*%
%TO.N,/Wy\u015Bwietlacz LCD/RS*%
X42672000Y-86360000D03*
%TO.P,J19,4,Pin_4*%
%TO.N,+3.3V*%
X42672000Y-83820000D03*
%TO.P,J19,5,Pin_5*%
%TO.N,/Wy\u015Bwietlacz LCD/E*%
X45212000Y-86360000D03*
%TO.P,J19,6,Pin_6*%
%TO.N,/Wy\u015Bwietlacz LCD/BL*%
X45212000Y-83820000D03*
%TO.P,J19,7,Pin_7*%
%TO.N,/Wy\u015Bwietlacz LCD/D4*%
X47752000Y-86360000D03*
%TO.P,J19,8,Pin_8*%
%TO.N,/Wy\u015Bwietlacz LCD/D0*%
X47752000Y-83820000D03*
%TO.P,J19,9,Pin_9*%
%TO.N,/Wy\u015Bwietlacz LCD/D5*%
X50292000Y-86360000D03*
%TO.P,J19,10,Pin_10*%
%TO.N,/Wy\u015Bwietlacz LCD/D1*%
X50292000Y-83820000D03*
%TO.P,J19,11,Pin_11*%
%TO.N,/Wy\u015Bwietlacz LCD/D6*%
X52832000Y-86360000D03*
%TO.P,J19,12,Pin_12*%
%TO.N,/Wy\u015Bwietlacz LCD/D2*%
X52832000Y-83820000D03*
%TO.P,J19,13,Pin_13*%
%TO.N,/Wy\u015Bwietlacz LCD/D7*%
X55372000Y-86360000D03*
%TO.P,J19,14,Pin_14*%
%TO.N,/Wy\u015Bwietlacz LCD/D3*%
X55372000Y-83820000D03*
%TD*%
D15*
%TO.P,J9,1,Pin_1*%
%TO.N,/Zegar czasu rzeczywistego RTC/CLKOUT*%
X95504000Y-56901000D03*
D13*
%TO.P,J9,2,Pin_2*%
%TO.N,/Zegar czasu rzeczywistego RTC/INT*%
X95504000Y-54361000D03*
%TD*%
D15*
%TO.P,J10,1,Pin_1*%
%TO.N,Net-(IC1-SCL)*%
X100584000Y-43180000D03*
D13*
%TO.P,J10,2,Pin_2*%
%TO.N,Net-(IC1-SDA)*%
X103124000Y-43180000D03*
%TO.P,J10,3,Pin_3*%
%TO.N,Net-(IC1-SCL)*%
X100584000Y-45720000D03*
%TO.P,J10,4,Pin_4*%
%TO.N,Net-(IC1-SDA)*%
X103124000Y-45720000D03*
%TD*%
D12*
%TO.P,R7,1*%
%TO.N,Net-(D5-A)*%
X166370000Y-18351000D03*
%TO.P,R7,2*%
%TO.N,Net-(LED15-A)*%
X166370000Y-16701000D03*
%TD*%
%TO.P,R40,1*%
%TO.N,+3.3V*%
X61214000Y-74588500D03*
%TO.P,R40,2*%
%TO.N,Net-(LED8-A)*%
X61214000Y-72938500D03*
%TD*%
D21*
%TO.P,LED11,1,K*%
%TO.N,Net-(IC4-CBUS1)*%
X27178000Y-18288000D03*
%TO.P,LED11,2,A*%
%TO.N,Net-(LED11-A)*%
X27178000Y-16688000D03*
%TD*%
D15*
%TO.P,J20,1,Pin_1*%
%TO.N,/b1*%
X82296000Y-4318000D03*
D13*
%TO.P,J20,2,Pin_2*%
X84836000Y-4318000D03*
%TO.P,J20,3,Pin_3*%
%TO.N,VSYS*%
X82296000Y-6858000D03*
%TO.P,J20,4,Pin_4*%
X84836000Y-6858000D03*
%TO.P,J20,5,Pin_5*%
%TO.N,/b3*%
X82296000Y-9398000D03*
%TO.P,J20,6,Pin_6*%
X84836000Y-9398000D03*
%TO.P,J20,7,Pin_7*%
%TO.N,/b4*%
X82296000Y-11938000D03*
%TO.P,J20,8,Pin_8*%
X84836000Y-11938000D03*
%TO.P,J20,9,Pin_9*%
%TO.N,/b5*%
X82296000Y-14478000D03*
%TO.P,J20,10,Pin_10*%
X84836000Y-14478000D03*
%TO.P,J20,11,Pin_11*%
%TO.N,/b6*%
X82296000Y-17018000D03*
%TO.P,J20,12,Pin_12*%
X84836000Y-17018000D03*
%TO.P,J20,13,Pin_13*%
%TO.N,/b7*%
X82296000Y-19558000D03*
%TO.P,J20,14,Pin_14*%
X84836000Y-19558000D03*
%TO.P,J20,15,Pin_15*%
%TO.N,/b8*%
X82296000Y-22098000D03*
%TO.P,J20,16,Pin_16*%
X84836000Y-22098000D03*
%TO.P,J20,17,Pin_17*%
%TO.N,/b9*%
X82296000Y-24638000D03*
%TO.P,J20,18,Pin_18*%
X84836000Y-24638000D03*
%TO.P,J20,19,Pin_19*%
%TO.N,/b10*%
X82296000Y-27178000D03*
%TO.P,J20,20,Pin_20*%
X84836000Y-27178000D03*
%TO.P,J20,21,Pin_21*%
%TO.N,/b11*%
X82296000Y-29718000D03*
%TO.P,J20,22,Pin_22*%
X84836000Y-29718000D03*
%TO.P,J20,23,Pin_23*%
%TO.N,/b12*%
X82296000Y-32258000D03*
%TO.P,J20,24,Pin_24*%
X84836000Y-32258000D03*
%TO.P,J20,25,Pin_25*%
%TO.N,/b13*%
X82296000Y-34798000D03*
%TO.P,J20,26,Pin_26*%
X84836000Y-34798000D03*
%TO.P,J20,27,Pin_27*%
%TO.N,/b14*%
X82296000Y-37338000D03*
%TO.P,J20,28,Pin_28*%
X84836000Y-37338000D03*
%TO.P,J20,29,Pin_29*%
%TO.N,/b15*%
X82296000Y-39878000D03*
%TO.P,J20,30,Pin_30*%
X84836000Y-39878000D03*
%TO.P,J20,31,Pin_31*%
%TO.N,/b16*%
X82296000Y-42418000D03*
%TO.P,J20,32,Pin_32*%
X84836000Y-42418000D03*
%TO.P,J20,33,Pin_33*%
%TO.N,/b17*%
X82296000Y-44958000D03*
%TO.P,J20,34,Pin_34*%
X84836000Y-44958000D03*
%TO.P,J20,35,Pin_35*%
%TO.N,/b18*%
X82296000Y-47498000D03*
%TO.P,J20,36,Pin_36*%
X84836000Y-47498000D03*
%TO.P,J20,37,Pin_37*%
%TO.N,/b19*%
X82296000Y-50038000D03*
%TO.P,J20,38,Pin_38*%
X84836000Y-50038000D03*
%TO.P,J20,39,Pin_39*%
%TO.N,/b20*%
X82296000Y-52578000D03*
%TO.P,J20,40,Pin_40*%
X84836000Y-52578000D03*
%TD*%
D57*
%TO.P,C1,1*%
%TO.N,GND*%
X96012000Y-48501000D03*
%TO.P,C1,2*%
%TO.N,Net-(IC1-OSCI)*%
X96012000Y-50051000D03*
%TD*%
D29*
%TO.P,S1,1,1*%
%TO.N,/b11*%
X98878000Y-12700000D03*
X98878000Y-6200000D03*
%TO.P,S1,2,2*%
%TO.N,GND*%
X103378000Y-12700000D03*
X103378000Y-6200000D03*
%TD*%
D15*
%TO.P,J23,1,Pin_1*%
%TO.N,Net-(IC5-VSS)*%
X171282000Y-35306000D03*
D13*
%TO.P,J23,2,Pin_2*%
%TO.N,Net-(IC5-CH1)*%
X171282000Y-37846000D03*
%TO.P,J23,3,Pin_3*%
%TO.N,Net-(IC5-CH0)*%
X171282000Y-40386000D03*
%TO.P,J23,4,Pin_4*%
%TO.N,Net-(IC5-~{CS}{slash}SHDN)*%
X171282000Y-42926000D03*
%TD*%
D33*
%TO.P,IC5,1,~{CS}/SHDN*%
%TO.N,Net-(IC5-~{CS}{slash}SHDN)*%
X167300000Y-40050000D03*
%TO.P,IC5,2,CH0*%
%TO.N,Net-(IC5-CH0)*%
X167300000Y-39400000D03*
%TO.P,IC5,3,CH1*%
%TO.N,Net-(IC5-CH1)*%
X167300000Y-38750000D03*
%TO.P,IC5,4,VSS*%
%TO.N,Net-(IC5-VSS)*%
X167300000Y-38100000D03*
%TO.P,IC5,5,DIN*%
%TO.N,Net-(IC5-DIN)*%
X162900000Y-38100000D03*
%TO.P,IC5,6,DOUT*%
%TO.N,Net-(IC5-DOUT)*%
X162900000Y-38750000D03*
%TO.P,IC5,7,CLK*%
%TO.N,Net-(IC5-CLK)*%
X162900000Y-39400000D03*
%TO.P,IC5,8,VDD/VREF*%
%TO.N,Net-(IC5-VDD{slash}VREF)*%
X162900000Y-40050000D03*
%TD*%
D17*
%TO.P,R23,1*%
%TO.N,+3.3V*%
X33796000Y-87577000D03*
%TO.P,R23,2*%
%TO.N,Net-(LED1-A_RED)*%
X32146000Y-87577000D03*
%TD*%
D27*
%TO.P,LED5,1,K*%
%TO.N,Net-(J29-Pin_2)*%
X63500000Y-67272000D03*
%TO.P,LED5,2,A*%
%TO.N,Net-(LED5-A)*%
X63500000Y-68872000D03*
%TD*%
D57*
%TO.P,C3,1*%
%TO.N,GND*%
X213106000Y-17614600D03*
%TO.P,C3,2*%
%TO.N,+3.3V*%
X213106000Y-19164600D03*
%TD*%
D21*
%TO.P,LED7,1,K*%
%TO.N,Net-(J29-Pin_5)*%
X55880000Y-67399000D03*
%TO.P,LED7,2,A*%
%TO.N,Net-(LED7-A)*%
X55880000Y-68999000D03*
%TD*%
D36*
%TO.P,VR1,1,1*%
%TO.N,GND*%
X15868000Y-62103000D03*
%TO.P,VR1,2,2*%
%TO.N,Net-(R2-Pad2)*%
X18368000Y-67103000D03*
D49*
%TO.P,VR1,3,3*%
%TO.N,+3.3V*%
X20868000Y-62103000D03*
%TD*%
D17*
%TO.P,R10,1*%
%TO.N,Net-(D2-A)*%
X6350000Y-12954000D03*
%TO.P,R10,2*%
%TO.N,Net-(LED18-A)*%
X4700000Y-12954000D03*
%TD*%
D42*
%TO.P,R34,1*%
%TO.N,Net-(J25-Pin_1)*%
X109670000Y-115253000D03*
%TO.P,R34,2*%
%TO.N,Net-(Q5-B)*%
X109670000Y-116903000D03*
%TD*%
D17*
%TO.P,R1,1*%
%TO.N,+3.3V*%
X99377000Y-107442000D03*
%TO.P,R1,2*%
%TO.N,Net-(DS1-LED-A)*%
X97727000Y-107442000D03*
%TD*%
D22*
%TO.P,H1,1,1*%
%TO.N,GND*%
X216000000Y-4000000D03*
D23*
X216000000Y-4000000D03*
%TD*%
D58*
%TO.N,+3.3V*%
X115570000Y-122428000D03*
X112014000Y-122682000D03*
X105890400Y-122682000D03*
X108712000Y-122682000D03*
%TO.N,GND*%
X163068000Y-28194000D03*
X71577200Y-82296000D03*
X120396000Y-71120000D03*
X113157000Y-74676000D03*
X21065183Y-15223183D03*
X17513000Y-22847000D03*
X200660000Y-31496000D03*
X17653000Y-25654000D03*
X21082000Y-34417000D03*
X72898000Y-75342500D03*
X16891000Y-21844000D03*
X165862000Y-42926000D03*
X186690000Y-31242000D03*
%TO.N,+3.3V*%
X96012000Y-8636000D03*
X39116000Y-76454000D03*
X21590000Y-59055000D03*
X212344000Y-20828000D03*
X159512000Y-9144000D03*
X185563440Y-31181759D03*
X42164000Y-76454000D03*
X203708000Y-21590000D03*
X97028000Y-38354000D03*
X89662000Y-28448000D03*
X168410000Y-10922000D03*
X82677000Y-88900000D03*
X106680000Y-11684000D03*
X58166000Y-88569994D03*
X98806000Y-27432000D03*
X107950000Y-55118000D03*
X105664000Y-53721000D03*
X93472000Y-35306000D03*
X201168000Y-21590000D03*
%TO.N,/d11*%
X158461067Y-15662748D03*
%TO.N,Net-(IC2-SCL)*%
X93472000Y-31369000D03*
%TO.N,Net-(IC2-SDA)*%
X94996000Y-30480000D03*
%TO.N,/b11*%
X95758000Y-15240000D03*
%TO.N,Net-(D4-A)*%
X97028000Y-14478000D03*
%TO.N,+5V*%
X29210000Y-28684600D03*
X25146000Y-20574000D03*
X18798172Y-25130772D03*
X29718000Y-19939000D03*
%TO.N,Net-(D5-A)*%
X159512000Y-14986000D03*
%TO.N,/Wy\u015Bwietlacz segmentowy/f*%
X128778000Y-120650000D03*
%TO.N,/Wy\u015Bwietlacz segmentowy/c*%
X138684000Y-132588000D03*
%TO.N,/Wy\u015Bwietlacz segmentowy/b*%
X138938000Y-119634000D03*
%TO.N,/Wy\u015Bwietlacz segmentowy/a*%
X132842000Y-126492000D03*
X140462000Y-119634000D03*
%TO.N,/Wy\u015Bwietlacz segmentowy/e*%
X135890000Y-134620000D03*
%TO.N,/Wy\u015Bwietlacz segmentowy/DP*%
X132334000Y-139954000D03*
%TO.N,/Wy\u015Bwietlacz segmentowy/d*%
X137668000Y-134112000D03*
%TO.N,/Wy\u015Bwietlacz segmentowy/g*%
X134366000Y-140462000D03*
%TO.N,/Wy\u015Bwietlacz LCD/D6*%
X77216000Y-90170000D03*
X58166000Y-90170000D03*
%TO.N,/Wy\u015Bwietlacz LCD/D7*%
X58166000Y-89369997D03*
X79883000Y-89535000D03*
%TO.N,/Wy\u015Bwietlacz LCD/D1*%
X88392000Y-78232000D03*
X50292000Y-78740000D03*
%TO.N,/Wy\u015Bwietlacz LCD/D5*%
X49784000Y-90678000D03*
X75184000Y-90932000D03*
%TO.N,/Wy\u015Bwietlacz LCD/D0*%
X88392000Y-76962000D03*
X48006000Y-78486000D03*
%TO.N,/Wy\u015Bwietlacz LCD/E*%
X45212000Y-91186000D03*
X69469000Y-92456000D03*
%TO.N,/Wy\u015Bwietlacz LCD/D2*%
X53340000Y-79756000D03*
X88392000Y-79756000D03*
%TO.N,/Wy\u015Bwietlacz LCD/D3*%
X88392000Y-81026000D03*
X58166000Y-81026000D03*
%TO.N,/Wy\u015Bwietlacz LCD/D4*%
X47498000Y-90932000D03*
X72898000Y-91694000D03*
%TO.N,/Wy\u015Bwietlacz LCD/BL*%
X109220000Y-76200000D03*
X47752000Y-76200000D03*
%TO.N,VSYS*%
X95504000Y-1270000D03*
X169164000Y-9906000D03*
X39624000Y-36830000D03*
%TO.N,Net-(IC4-USBDM)*%
X25908000Y-13589000D03*
X18178400Y-22225000D03*
%TO.N,Net-(IC4-USBDP)*%
X18830800Y-21463000D03*
X26560400Y-14254278D03*
%TO.N,Net-(IC4-CBUS1)*%
X24612841Y-19507159D03*
X26695159Y-19236000D03*
%TO.N,Net-(S13-B)*%
X27790996Y-12296996D03*
X21463000Y-12954000D03*
X23421000Y-12245000D03*
%TD*%
D59*
%TO.N,+3.3V*%
X115956000Y-122042000D02*
X115570000Y-122428000D01*
X115956000Y-119098300D02*
X115956000Y-122042000D01*
X112516800Y-122179200D02*
X112014000Y-122682000D01*
X112516800Y-119103300D02*
X112516800Y-122179200D01*
X105664000Y-119156400D02*
X105694400Y-119126000D01*
X105664000Y-122455600D02*
X105664000Y-119156400D01*
X105890400Y-122682000D02*
X105664000Y-122455600D01*
X109098000Y-122296000D02*
X108712000Y-122682000D01*
X109098000Y-119126000D02*
X109098000Y-122296000D01*
%TO.N,GND*%
X41465000Y-71565000D02*
X40561500Y-71565000D01*
X44450000Y-65278000D02*
X44450000Y-68580000D01*
X41656000Y-62484000D02*
X44450000Y-65278000D01*
X28812000Y-63754000D02*
X33274000Y-63754000D01*
X34544000Y-62484000D02*
X41656000Y-62484000D01*
X44450000Y-68580000D02*
X41465000Y-71565000D01*
X27114000Y-62056000D02*
X28812000Y-63754000D01*
X24424000Y-62056000D02*
X27114000Y-62056000D01*
X33274000Y-63754000D02*
X34544000Y-62484000D01*
X1524000Y-21776000D02*
X3660000Y-23912000D01*
X1524000Y-17526000D02*
X1524000Y-21776000D01*
X3194000Y-15856000D02*
X1524000Y-17526000D01*
X3660000Y-15856000D02*
X3194000Y-15856000D01*
X1524000Y-29904000D02*
X3660000Y-32040000D01*
X3660000Y-23912000D02*
X1524000Y-26048000D01*
X1524000Y-26048000D02*
X1524000Y-29904000D01*
X1524000Y-33528000D02*
X1524000Y-38032000D01*
X3012000Y-32040000D02*
X1524000Y-33528000D01*
X3660000Y-32040000D02*
X3012000Y-32040000D01*
X1524000Y-38032000D02*
X3660000Y-40168000D01*
X1524000Y-54288000D02*
X3660000Y-56424000D01*
X1524000Y-50432000D02*
X1524000Y-54288000D01*
X3660000Y-48296000D02*
X1524000Y-50432000D01*
X1524000Y-42304000D02*
X1524000Y-46160000D01*
X1524000Y-46160000D02*
X3660000Y-48296000D01*
X3660000Y-40168000D02*
X1524000Y-42304000D01*
X1524000Y-62416000D02*
X3660000Y-64552000D01*
X3660000Y-56424000D02*
X1524000Y-58560000D01*
X1524000Y-58560000D02*
X1524000Y-62416000D01*
X1524000Y-66688000D02*
X3660000Y-64552000D01*
X1524000Y-70544000D02*
X1524000Y-66688000D01*
X3660000Y-72680000D02*
X1524000Y-70544000D01*
%TO.N,Net-(J5-Pin_7)*%
X3660000Y-69052000D02*
X10160000Y-69052000D01*
%TO.N,GND*%
X166334000Y-6148000D02*
X166334000Y-12648000D01*
%TO.N,/a1*%
X48006000Y-4318000D02*
X45466000Y-4318000D01*
X55626000Y-4318000D02*
X48006000Y-4318000D01*
%TO.N,/a4*%
X48006000Y-11938000D02*
X45466000Y-11938000D01*
X55626000Y-11938000D02*
X48006000Y-11938000D01*
%TO.N,/a16*%
X48006000Y-42418000D02*
X45466000Y-42418000D01*
X55626000Y-42418000D02*
X48006000Y-42418000D01*
%TO.N,/a5*%
X48006000Y-14478000D02*
X45466000Y-14478000D01*
X55626000Y-14478000D02*
X48006000Y-14478000D01*
%TO.N,/a11*%
X55626000Y-29718000D02*
X48006000Y-29718000D01*
X45466000Y-29718000D02*
X48006000Y-29718000D01*
%TO.N,/a7*%
X48006000Y-19558000D02*
X55626000Y-19558000D01*
X48006000Y-19558000D02*
X45466000Y-19558000D01*
%TO.N,/a14*%
X48006000Y-37338000D02*
X45466000Y-37338000D01*
X55626000Y-37338000D02*
X48006000Y-37338000D01*
%TO.N,/a2*%
X55626000Y-6858000D02*
X48006000Y-6858000D01*
X45466000Y-6858000D02*
X48006000Y-6858000D01*
%TO.N,/a6*%
X48006000Y-17018000D02*
X45466000Y-17018000D01*
X55626000Y-17018000D02*
X48006000Y-17018000D01*
%TO.N,/a10*%
X55626000Y-27178000D02*
X48006000Y-27178000D01*
X48006000Y-27178000D02*
X45466000Y-27178000D01*
%TO.N,/a12*%
X55626000Y-32258000D02*
X48006000Y-32258000D01*
X48006000Y-32258000D02*
X45466000Y-32258000D01*
%TO.N,/a13*%
X55626000Y-34798000D02*
X48006000Y-34798000D01*
X48006000Y-34798000D02*
X45466000Y-34798000D01*
%TO.N,/a15*%
X48006000Y-39878000D02*
X45466000Y-39878000D01*
X55626000Y-39878000D02*
X48006000Y-39878000D01*
%TO.N,/a9*%
X55626000Y-24638000D02*
X48006000Y-24638000D01*
X48006000Y-24638000D02*
X45466000Y-24638000D01*
%TO.N,/c4*%
X113538000Y-11430000D02*
X110998000Y-11430000D01*
X121158000Y-11430000D02*
X113538000Y-11430000D01*
%TO.N,/a8*%
X48006000Y-22098000D02*
X55626000Y-22098000D01*
X45466000Y-22098000D02*
X48006000Y-22098000D01*
%TO.N,/c12*%
X113538000Y-31750000D02*
X110998000Y-31750000D01*
X121158000Y-31750000D02*
X113538000Y-31750000D01*
%TO.N,/c10*%
X113538000Y-26670000D02*
X110998000Y-26670000D01*
X121158000Y-26670000D02*
X113538000Y-26670000D01*
%TO.N,/c16*%
X113538000Y-41910000D02*
X110998000Y-41910000D01*
X121158000Y-41910000D02*
X113538000Y-41910000D01*
%TO.N,/c6*%
X121158000Y-16510000D02*
X113538000Y-16510000D01*
X113538000Y-16510000D02*
X110998000Y-16510000D01*
%TO.N,/c14*%
X113538000Y-36830000D02*
X110998000Y-36830000D01*
X121158000Y-36830000D02*
X113538000Y-36830000D01*
%TO.N,/c13*%
X113538000Y-34290000D02*
X110998000Y-34290000D01*
X121158000Y-34290000D02*
X113538000Y-34290000D01*
%TO.N,/a18*%
X48006000Y-47498000D02*
X45466000Y-47498000D01*
X55626000Y-47498000D02*
X48006000Y-47498000D01*
%TO.N,/c11*%
X113538000Y-29210000D02*
X110998000Y-29210000D01*
X121158000Y-29210000D02*
X113538000Y-29210000D01*
%TO.N,/c2*%
X113538000Y-6350000D02*
X110998000Y-6350000D01*
X121158000Y-6350000D02*
X113538000Y-6350000D01*
%TO.N,/c15*%
X121158000Y-39370000D02*
X113538000Y-39370000D01*
X113538000Y-39370000D02*
X110998000Y-39370000D01*
%TO.N,/c1*%
X113538000Y-3810000D02*
X110998000Y-3810000D01*
X121158000Y-3810000D02*
X113538000Y-3810000D01*
%TO.N,/c7*%
X121158000Y-19050000D02*
X113538000Y-19050000D01*
X113538000Y-19050000D02*
X110998000Y-19050000D01*
%TO.N,/c9*%
X121158000Y-24130000D02*
X113538000Y-24130000D01*
X113538000Y-24130000D02*
X110998000Y-24130000D01*
%TO.N,/c5*%
X121158000Y-13970000D02*
X113538000Y-13970000D01*
X113538000Y-13970000D02*
X110998000Y-13970000D01*
%TO.N,/a3*%
X55626000Y-9398000D02*
X48006000Y-9398000D01*
X48006000Y-9398000D02*
X45466000Y-9398000D01*
%TO.N,GND*%
X103378000Y-12700000D02*
X103378000Y-6200000D01*
X86916000Y-118034000D02*
X85090000Y-119860000D01*
X114935000Y-75565000D02*
X114965000Y-75535000D01*
X157545000Y-15937000D02*
X153964000Y-19518000D01*
X16891000Y-21844000D02*
X16510000Y-22225000D01*
X22607000Y-14351000D02*
X22607000Y-13737000D01*
X154178000Y-8890000D02*
X157669000Y-12381000D01*
X15868000Y-59824000D02*
X18923000Y-56769000D01*
D60*
X20408000Y-28687000D02*
X21552300Y-28687000D01*
D59*
X212698000Y-31496000D02*
X216000000Y-28194000D01*
D60*
X20408000Y-29337000D02*
X20408000Y-28687000D01*
D59*
X215900000Y-146050000D02*
X215900000Y-141351000D01*
X108585000Y-53086000D02*
X120396000Y-64897000D01*
X96946000Y-28112000D02*
X96946000Y-30099000D01*
X21937366Y-14351000D02*
X22607000Y-14351000D01*
X156464000Y-2032000D02*
X105156000Y-2032000D01*
X66942500Y-75297500D02*
X67564000Y-75297500D01*
D61*
X21717000Y-26087000D02*
X20408000Y-26087000D01*
D59*
X87376000Y-9398000D02*
X91148000Y-9398000D01*
X25400000Y-50038000D02*
X35560000Y-50038000D01*
X105664000Y-30734000D02*
X108585000Y-33655000D01*
X96012000Y-48501000D02*
X96012000Y-37846000D01*
X84836000Y-117348000D02*
X84836000Y-116459000D01*
X94996000Y-32639000D02*
X96946000Y-32639000D01*
X91522000Y-32639000D02*
X94996000Y-32639000D01*
X89702000Y-19212000D02*
X89702000Y-21846000D01*
X3660000Y-23912000D02*
X10160000Y-23912000D01*
X185675413Y-30226000D02*
X185928707Y-30479294D01*
X61294000Y-82296000D02*
X71577200Y-82296000D01*
X96012000Y-48501000D02*
X90056000Y-48501000D01*
X93954000Y-14960000D02*
X89702000Y-19212000D01*
X194310000Y-7258000D02*
X186328000Y-7258000D01*
X157669000Y-3237000D02*
X156464000Y-2032000D01*
X85661000Y-115634000D02*
X90424000Y-115634000D01*
X105156000Y-2032000D02*
X103378000Y-3810000D01*
D60*
X22352000Y-27058000D02*
X22673000Y-26737000D01*
D59*
X84836000Y-116459000D02*
X85661000Y-115634000D01*
X34290000Y-11176000D02*
X30734000Y-11176000D01*
X3660000Y-40168000D02*
X10160000Y-40168000D01*
X95504000Y-16510000D02*
X93954000Y-14960000D01*
X202425000Y-30239000D02*
X202425000Y-31496000D01*
X25400000Y-50038000D02*
X25400000Y-55626000D01*
D60*
X19240700Y-29337000D02*
X18415000Y-30162700D01*
D59*
X209810000Y-16858000D02*
X212438000Y-16858000D01*
D60*
X20408000Y-26087000D02*
X18594000Y-26087000D01*
D59*
X154178000Y-8890000D02*
X151638000Y-8890000D01*
X21545000Y-5547000D02*
X21545000Y-9727000D01*
X206756000Y-29972000D02*
X202692000Y-29972000D01*
X29654000Y-12884000D02*
X29654000Y-14478000D01*
X207023000Y-31496000D02*
X212698000Y-31496000D01*
X86916000Y-118034000D02*
X85522000Y-118034000D01*
X4597000Y-11659000D02*
X4232000Y-12024000D01*
D60*
X22352000Y-27887300D02*
X22352000Y-27058000D01*
X18415000Y-31877000D02*
X20955000Y-34417000D01*
D59*
X96946000Y-30099000D02*
X96946000Y-32639000D01*
X99187000Y-30099000D02*
X96946000Y-30099000D01*
X216000000Y-28194000D02*
X216000000Y-23114000D01*
X93954000Y-12204000D02*
X93954000Y-4318000D01*
X185928000Y-6858000D02*
X186436000Y-6858000D01*
X202692000Y-29972000D02*
X202425000Y-30239000D01*
X29086000Y-12316000D02*
X29086000Y-10482000D01*
X40132000Y-83820000D02*
X37973000Y-83820000D01*
X26543000Y-146050000D02*
X59436000Y-113157000D01*
X86868000Y-55118000D02*
X86868000Y-55626000D01*
X24384000Y-59944000D02*
X25400000Y-58928000D01*
D60*
X18086000Y-26087000D02*
X17653000Y-25654000D01*
X21552300Y-28687000D02*
X22352000Y-27887300D01*
D59*
X93954000Y-14960000D02*
X93954000Y-12204000D01*
X3660000Y-56424000D02*
X10160000Y-56424000D01*
X85522000Y-118034000D02*
X84836000Y-117348000D01*
X103378000Y-3810000D02*
X103378000Y-6200000D01*
X114965000Y-75535000D02*
X116144000Y-75535000D01*
X22586000Y-12065000D02*
X22586000Y-13716000D01*
X79340000Y-64678000D02*
X79340000Y-68828000D01*
X157669000Y-15937000D02*
X157669000Y-13397000D01*
X207023000Y-30239000D02*
X206756000Y-29972000D01*
X59436000Y-113157000D02*
X59513000Y-113234000D01*
X90056000Y-48501000D02*
X86868000Y-51689000D01*
X90424000Y-118034000D02*
X86916000Y-118034000D01*
X35560000Y-9906000D02*
X35560000Y-8255000D01*
X163068000Y-28194000D02*
X163068000Y-19050000D01*
X4223148Y-12024000D02*
X3845000Y-12402148D01*
X30185000Y-5547000D02*
X30185000Y-11725000D01*
X59513000Y-113234000D02*
X90424000Y-113234000D01*
X120396000Y-64897000D02*
X120396000Y-71120000D01*
X24424000Y-62056000D02*
X24424000Y-59984000D01*
X113157000Y-74676000D02*
X114046000Y-75565000D01*
X157669000Y-3758000D02*
X157669000Y-3237000D01*
X216000000Y-23114000D02*
X216000000Y-4000000D01*
X185928000Y-30480000D02*
X185928000Y-27178000D01*
X202425000Y-31496000D02*
X200660000Y-31496000D01*
D61*
X22673000Y-26737000D02*
X22023000Y-26087000D01*
D59*
X86868000Y-55118000D02*
X86868000Y-57150000D01*
X24424000Y-59984000D02*
X24384000Y-59944000D01*
X186328000Y-7258000D02*
X185928000Y-6858000D01*
D61*
X27432000Y-26737000D02*
X22673000Y-26737000D01*
D59*
X209810000Y-7258000D02*
X209810000Y-16858000D01*
X103124000Y-30734000D02*
X105664000Y-30734000D01*
X3810000Y-146050000D02*
X26543000Y-146050000D01*
X67564000Y-75297500D02*
X72898000Y-75297500D01*
D61*
X22023000Y-26087000D02*
X21717000Y-26087000D01*
D60*
X18415000Y-30162700D02*
X18415000Y-31877000D01*
D59*
X161658400Y-16713200D02*
X158445200Y-16713200D01*
X213106000Y-17614600D02*
X216000000Y-20508600D01*
X3660000Y-48296000D02*
X10160000Y-48296000D01*
D60*
X20408000Y-24137000D02*
X21575300Y-24137000D01*
D59*
X85090000Y-119860000D02*
X85090000Y-121808000D01*
D60*
X21575300Y-24137000D02*
X22225000Y-24786700D01*
X22225000Y-26289000D02*
X22673000Y-26737000D01*
D59*
X108585000Y-33655000D02*
X108585000Y-53086000D01*
X213106000Y-17526000D02*
X213106000Y-17614600D01*
X36322000Y-85471000D02*
X36322000Y-90043000D01*
X103124000Y-30734000D02*
X99822000Y-30734000D01*
X91148000Y-9398000D02*
X93954000Y-12204000D01*
X30734000Y-11176000D02*
X30185000Y-11725000D01*
X61254000Y-82336000D02*
X61294000Y-82296000D01*
X86916000Y-123634000D02*
X90424000Y-123634000D01*
X3660000Y-64552000D02*
X10160000Y-64552000D01*
X16510000Y-22225000D02*
X16510000Y-22847000D01*
X216000000Y-20508600D02*
X216000000Y-23114000D01*
X37973000Y-83820000D02*
X36322000Y-85471000D01*
X22586000Y-10482000D02*
X22586000Y-12065000D01*
X91950000Y-21846000D02*
X89702000Y-21846000D01*
X3845000Y-12411000D02*
X3660000Y-12596000D01*
X161658400Y-17640400D02*
X161658400Y-16713200D01*
X158445200Y-16713200D02*
X157669000Y-15937000D01*
X212438000Y-16858000D02*
X213106000Y-17526000D01*
X212742000Y-7258000D02*
X216000000Y-4000000D01*
X94234000Y-25400000D02*
X94234000Y-24130000D01*
X98260000Y-16510000D02*
X95504000Y-16510000D01*
X3660000Y-72680000D02*
X10160000Y-72680000D01*
X21516000Y-9567000D02*
X21516000Y-10995000D01*
X29086000Y-12316000D02*
X29654000Y-12884000D01*
X164097000Y-42926000D02*
X165862000Y-42926000D01*
X36322000Y-90043000D02*
X59436000Y-113157000D01*
X209810000Y-7258000D02*
X212742000Y-7258000D01*
X3660000Y-12596000D02*
X3660000Y-15856000D01*
X157669000Y-12381000D02*
X157669000Y-12954000D01*
X94234000Y-24130000D02*
X91950000Y-21846000D01*
X72898000Y-75297500D02*
X72898000Y-75342500D01*
X40132000Y-71994500D02*
X40561500Y-71565000D01*
X185928000Y-4318000D02*
X185928000Y-27178000D01*
X195210000Y-16858000D02*
X186088000Y-16858000D01*
X86868000Y-51689000D02*
X86868000Y-55118000D01*
X3845000Y-12402148D02*
X3845000Y-12411000D01*
X4597000Y-10668000D02*
X4597000Y-11659000D01*
X94234000Y-25400000D02*
X96946000Y-28112000D01*
D60*
X18594000Y-26087000D02*
X18086000Y-26087000D01*
D59*
X153964000Y-19518000D02*
X153964000Y-21336000D01*
X18923000Y-56769000D02*
X24257000Y-56769000D01*
X22607000Y-13737000D02*
X22586000Y-13716000D01*
X61254000Y-80986000D02*
X66942500Y-75297500D01*
X21065183Y-15223183D02*
X21937366Y-14351000D01*
X99822000Y-30734000D02*
X99187000Y-30099000D01*
X85090000Y-121808000D02*
X86916000Y-123634000D01*
D60*
X20408000Y-29337000D02*
X19240700Y-29337000D01*
D59*
X186690000Y-31242000D02*
X185928000Y-30480000D01*
X95728500Y-37562500D02*
X95728500Y-33371500D01*
X186088000Y-16858000D02*
X185928000Y-17018000D01*
X163068000Y-19050000D02*
X161658400Y-17640400D01*
X35560000Y-9906000D02*
X34290000Y-11176000D01*
D60*
X99822000Y-55626000D02*
X86868000Y-55626000D01*
D59*
X17526000Y-22860000D02*
X17513000Y-22847000D01*
X15868000Y-62103000D02*
X15868000Y-59824000D01*
X24257000Y-56769000D02*
X25400000Y-55626000D01*
X4232000Y-12024000D02*
X4223148Y-12024000D01*
X4597000Y-10668000D02*
X4597000Y-4597000D01*
X21516000Y-10995000D02*
X22586000Y-12065000D01*
X157669000Y-12954000D02*
X157669000Y-3758000D01*
X90424000Y-115634000D02*
X90424000Y-113234000D01*
X16510000Y-22847000D02*
X17513000Y-22847000D01*
X25400000Y-58928000D02*
X25400000Y-55626000D01*
X184150000Y-30226000D02*
X185675413Y-30226000D01*
X30185000Y-11725000D02*
X29594000Y-12316000D01*
X157669000Y-15937000D02*
X157545000Y-15937000D01*
X95728500Y-33371500D02*
X94996000Y-32639000D01*
X157669000Y-13397000D02*
X157669000Y-12954000D01*
X34290000Y-11176000D02*
X34290000Y-12954000D01*
X96012000Y-37846000D02*
X95728500Y-37562500D01*
X3660000Y-15856000D02*
X10160000Y-15856000D01*
D60*
X20955000Y-34417000D02*
X21082000Y-34417000D01*
D59*
X86868000Y-57150000D02*
X79340000Y-64678000D01*
X183896000Y-30480000D02*
X184150000Y-30226000D01*
X61254000Y-82336000D02*
X61254000Y-80986000D01*
X215900000Y-141351000D02*
X216000000Y-141251000D01*
X114046000Y-75565000D02*
X114935000Y-75565000D01*
X40132000Y-83820000D02*
X40132000Y-71994500D01*
D60*
X22225000Y-24786700D02*
X22225000Y-26289000D01*
D59*
X3660000Y-32040000D02*
X10160000Y-32040000D01*
X29594000Y-12316000D02*
X29086000Y-12316000D01*
X4597000Y-4597000D02*
X4572000Y-4572000D01*
X207023000Y-31496000D02*
X207023000Y-30239000D01*
X216000000Y-141251000D02*
X216000000Y-28194000D01*
X22586000Y-13716000D02*
X22586000Y-14204000D01*
%TO.N,/b13*%
X73406000Y-34798000D02*
X82296000Y-34798000D01*
X82296000Y-34798000D02*
X84836000Y-34798000D01*
%TO.N,/b7*%
X82296000Y-19558000D02*
X84836000Y-19558000D01*
X73406000Y-19558000D02*
X82296000Y-19558000D01*
%TO.N,/Gniazdo kart micro SD/m1*%
X198504000Y-20268000D02*
X199810000Y-18962000D01*
X194694000Y-21538000D02*
X195964000Y-20268000D01*
X199810000Y-18962000D02*
X199810000Y-17358000D01*
X194694000Y-23498000D02*
X194694000Y-21538000D01*
D62*
X199810000Y-17358000D02*
X199810000Y-17256000D01*
D59*
X194818000Y-23622000D02*
X194694000Y-23498000D01*
X195964000Y-20268000D02*
X198504000Y-20268000D01*
D62*
X199810000Y-17256000D02*
X199774000Y-17220000D01*
D59*
%TO.N,+3.3V*%
X167926000Y-25114000D02*
X168455000Y-24585000D01*
X105694400Y-110266400D02*
X105664000Y-110236000D01*
X38563000Y-43643000D02*
X35560000Y-43643000D01*
X87630000Y-32575000D02*
X87567000Y-32512000D01*
X38100000Y-9906000D02*
X38100000Y-8255000D01*
X81880000Y-68828000D02*
X81880000Y-72298000D01*
X107696000Y-53467000D02*
X107696000Y-50038000D01*
X95504000Y-4318000D02*
X95504000Y-8128000D01*
X183388000Y-32004000D02*
X182880000Y-32512000D01*
X107061000Y-48895000D02*
X106680000Y-48514000D01*
X45466000Y-75184000D02*
X45466000Y-72390000D01*
X159219000Y-2247000D02*
X159219000Y-3758000D01*
X159512000Y-9144000D02*
X159219000Y-8851000D01*
X166370000Y-25114000D02*
X167926000Y-25114000D01*
X79589500Y-74588500D02*
X64262000Y-74588500D01*
X33859000Y-81711000D02*
X39116000Y-76454000D01*
X178499000Y-30480000D02*
X178499000Y-31433000D01*
X41338000Y-8255000D02*
X41402000Y-8191000D01*
X203708000Y-21590000D02*
X203708000Y-20828000D01*
X95504000Y-3048000D02*
X97282000Y-1270000D01*
X166370000Y-28448000D02*
X166370000Y-25114000D01*
X104394000Y-107442000D02*
X99377000Y-107442000D01*
D60*
X94769600Y-116812400D02*
X94769600Y-109700400D01*
D59*
X98806000Y-27432000D02*
X99060000Y-27432000D01*
X105664000Y-110236000D02*
X105664000Y-108712000D01*
X203708000Y-20828000D02*
X205310000Y-19226000D01*
X57658000Y-83312000D02*
X61214000Y-79756000D01*
X178499000Y-30480000D02*
X178499000Y-29781000D01*
X41910000Y-41529000D02*
X39116000Y-44323000D01*
X170434000Y-32512000D02*
X166370000Y-28448000D01*
X178499000Y-29781000D02*
X179324000Y-28956000D01*
X42672000Y-77978000D02*
X44196000Y-76454000D01*
X59399994Y-87336000D02*
X58166000Y-88569994D01*
X91522000Y-33909000D02*
X88519000Y-33909000D01*
X201168000Y-21590000D02*
X201168000Y-21173322D01*
X92583000Y-33909000D02*
X91522000Y-33909000D01*
X39116000Y-60745000D02*
X33870000Y-60745000D01*
X203110000Y-19231322D02*
X203110000Y-17358000D01*
D60*
X98235000Y-49467000D02*
X98235000Y-48514000D01*
D59*
X39116000Y-44196000D02*
X38563000Y-43643000D01*
X179578000Y-32512000D02*
X170434000Y-32512000D01*
X33796000Y-84592000D02*
X33859000Y-84529000D01*
X58166000Y-88569994D02*
X58089994Y-88569994D01*
X95377000Y-97282000D02*
X91059000Y-97282000D01*
X100838000Y-25654000D02*
X102838000Y-25654000D01*
X99060000Y-27432000D02*
X100838000Y-25654000D01*
X61214000Y-79756000D02*
X61214000Y-74588500D01*
X41949000Y-60745000D02*
X45466000Y-64262000D01*
X213106000Y-20066000D02*
X213106000Y-19164600D01*
X47713000Y-74637000D02*
X45466000Y-72390000D01*
X58089994Y-88569994D02*
X57658000Y-88138000D01*
X212344000Y-20828000D02*
X213106000Y-20066000D01*
X99377000Y-101282000D02*
X95377000Y-97282000D01*
X109410500Y-55181500D02*
X107696000Y-53467000D01*
X50292000Y-74637000D02*
X47713000Y-74637000D01*
X59690000Y-74637000D02*
X54864000Y-74637000D01*
D60*
X100835800Y-52067800D02*
X98235000Y-49467000D01*
D59*
X100076000Y-62992000D02*
X107950000Y-55118000D01*
X107696000Y-50038000D02*
X107061000Y-49403000D01*
X39116000Y-60745000D02*
X41949000Y-60745000D01*
X45466000Y-72390000D02*
X45466000Y-64262000D01*
X105694400Y-119126000D02*
X105694400Y-110266400D01*
X20868000Y-59777000D02*
X21590000Y-59055000D01*
X93472000Y-35306000D02*
X92964000Y-34798000D01*
X87567000Y-30543000D02*
X89662000Y-28448000D01*
X178499000Y-31433000D02*
X179578000Y-32512000D01*
X105664000Y-108712000D02*
X104394000Y-107442000D01*
X184741199Y-32004000D02*
X183388000Y-32004000D01*
X87567000Y-32639000D02*
X87567000Y-32385000D01*
X87567000Y-32957000D02*
X87567000Y-32512000D01*
X159219000Y-8851000D02*
X159219000Y-3758000D01*
X42164000Y-76454000D02*
X44196000Y-76454000D01*
X168455000Y-24585000D02*
X168455000Y-10922000D01*
X57658000Y-88138000D02*
X57658000Y-83312000D01*
X179324000Y-4318000D02*
X179324000Y-27178000D01*
X92964000Y-34798000D02*
X92964000Y-34290000D01*
X59690000Y-74637000D02*
X64213500Y-74637000D01*
X98235000Y-39561000D02*
X97028000Y-38354000D01*
X102870000Y-25622000D02*
X105442000Y-25622000D01*
X87567000Y-30988000D02*
X87567000Y-32512000D01*
X106680000Y-24384000D02*
X106680000Y-11684000D01*
X33796000Y-87577000D02*
X33796000Y-84592000D01*
X117440000Y-68828000D02*
X117440000Y-63211000D01*
D60*
X107950000Y-55118000D02*
X109347000Y-55118000D01*
D59*
X179324000Y-28956000D02*
X179324000Y-27178000D01*
X39370000Y-12954000D02*
X41148000Y-12954000D01*
X42672000Y-83820000D02*
X42672000Y-77978000D01*
X38100000Y-8255000D02*
X41338000Y-8255000D01*
X38100000Y-9906000D02*
X39370000Y-11176000D01*
X102838000Y-25654000D02*
X102870000Y-25622000D01*
X201168000Y-21173322D02*
X203110000Y-19231322D01*
D60*
X94348000Y-117234000D02*
X94769600Y-116812400D01*
D59*
X81880000Y-68828000D02*
X81880000Y-65186000D01*
X61075000Y-74727500D02*
X61214000Y-74588500D01*
X97282000Y-1270000D02*
X158242000Y-1270000D01*
X39116000Y-44323000D02*
X39116000Y-44196000D01*
X91059000Y-97282000D02*
X82677000Y-88900000D01*
D60*
X109347000Y-55118000D02*
X109410500Y-55181500D01*
D59*
X87567000Y-30988000D02*
X87567000Y-30543000D01*
X106680000Y-48514000D02*
X105473000Y-48514000D01*
X185563440Y-31181759D02*
X184741199Y-32004000D01*
X105442000Y-25622000D02*
X106680000Y-24384000D01*
X95504000Y-4318000D02*
X95504000Y-3048000D01*
X117440000Y-63211000D02*
X109410500Y-55181500D01*
X81880000Y-72298000D02*
X79589500Y-74588500D01*
D60*
X99377000Y-108395000D02*
X99377000Y-107442000D01*
D59*
X99377000Y-107442000D02*
X99377000Y-101282000D01*
D60*
X104222000Y-52660000D02*
X103629800Y-52067800D01*
D59*
X20868000Y-62103000D02*
X20868000Y-59777000D01*
X44196000Y-76454000D02*
X45466000Y-75184000D01*
D60*
X90424000Y-117234000D02*
X94348000Y-117234000D01*
D59*
X41402000Y-8191000D02*
X41656000Y-8191000D01*
X64213500Y-74637000D02*
X64262000Y-74588500D01*
D60*
X94769600Y-109700400D02*
X95758000Y-108712000D01*
D59*
X205310000Y-19226000D02*
X205310000Y-17358000D01*
X39116000Y-44323000D02*
X39116000Y-60745000D01*
X87694000Y-30988000D02*
X87567000Y-31115000D01*
D60*
X105619000Y-53676000D02*
X105664000Y-53721000D01*
D59*
X88519000Y-33909000D02*
X87567000Y-32957000D01*
X33870000Y-60745000D02*
X32559000Y-62056000D01*
D60*
X103629800Y-52067800D02*
X100835800Y-52067800D01*
D59*
X41910000Y-13716000D02*
X41910000Y-41529000D01*
D60*
X95758000Y-108712000D02*
X99060000Y-108712000D01*
D59*
X158242000Y-1270000D02*
X159219000Y-2247000D01*
X41148000Y-12954000D02*
X41910000Y-13716000D01*
X168455000Y-10922000D02*
X168410000Y-10922000D01*
X92964000Y-34290000D02*
X92583000Y-33909000D01*
X33859000Y-84529000D02*
X33859000Y-81711000D01*
X182880000Y-32512000D02*
X179578000Y-32512000D01*
X25400000Y-43643000D02*
X35560000Y-43643000D01*
X61254000Y-87336000D02*
X59399994Y-87336000D01*
X84074000Y-62992000D02*
X100076000Y-62992000D01*
X95504000Y-8128000D02*
X96012000Y-8636000D01*
D60*
X99060000Y-108712000D02*
X99377000Y-108395000D01*
D59*
X54864000Y-74637000D02*
X50292000Y-74637000D01*
X81880000Y-65186000D02*
X84074000Y-62992000D01*
X32559000Y-62056000D02*
X29424000Y-62056000D01*
X39370000Y-11176000D02*
X39370000Y-12954000D01*
X107061000Y-49403000D02*
X107061000Y-48895000D01*
X98235000Y-48514000D02*
X98235000Y-39561000D01*
D60*
X104222000Y-53676000D02*
X105619000Y-53676000D01*
X104222000Y-53676000D02*
X104222000Y-52660000D01*
D59*
%TO.N,/b6*%
X82296000Y-17018000D02*
X84836000Y-17018000D01*
X73406000Y-17018000D02*
X82296000Y-17018000D01*
%TO.N,/b4*%
X84836000Y-11938000D02*
X88900000Y-11938000D01*
X89662000Y-17780000D02*
X88392000Y-19050000D01*
X89702000Y-12740000D02*
X89662000Y-12780000D01*
X89662000Y-12780000D02*
X89662000Y-17780000D01*
X88392000Y-23114000D02*
X90324000Y-25046000D01*
X88392000Y-19050000D02*
X88392000Y-23114000D01*
X82296000Y-11938000D02*
X84836000Y-11938000D01*
X88900000Y-11938000D02*
X89702000Y-12740000D01*
X90324000Y-25046000D02*
X92202000Y-25046000D01*
X73406000Y-11938000D02*
X82296000Y-11938000D01*
%TO.N,/Gniazdo kart micro SD/m2*%
X197234000Y-21538000D02*
X197488000Y-21284000D01*
X200910000Y-19132000D02*
X200910000Y-17358000D01*
X197234000Y-23498000D02*
X197234000Y-21538000D01*
X197358000Y-23622000D02*
X197234000Y-23498000D01*
X198758000Y-21284000D02*
X200910000Y-19132000D01*
X197488000Y-21284000D02*
X198758000Y-21284000D01*
%TO.N,/d3*%
X146558000Y-8890000D02*
X149098000Y-8890000D01*
X138938000Y-8890000D02*
X146558000Y-8890000D01*
%TO.N,/Gniazdo kart micro SD/m7*%
X208664000Y-18998000D02*
X208664000Y-17412000D01*
X208664000Y-17412000D02*
X208610000Y-17358000D01*
X210058000Y-23622000D02*
X209934000Y-23498000D01*
X209934000Y-23498000D02*
X209934000Y-20268000D01*
X209934000Y-20268000D02*
X208664000Y-18998000D01*
%TO.N,/b18*%
X84836000Y-47498000D02*
X82296000Y-47498000D01*
X73406000Y-47498000D02*
X82296000Y-47498000D01*
%TO.N,/d1*%
X138938000Y-3810000D02*
X146558000Y-3810000D01*
X146558000Y-3810000D02*
X149098000Y-3810000D01*
%TO.N,/d7*%
X138938000Y-19050000D02*
X146558000Y-19050000D01*
X146558000Y-19050000D02*
X149098000Y-19050000D01*
%TO.N,/Gniazdo kart micro SD/m4*%
X204092000Y-17476000D02*
X204210000Y-17358000D01*
X204092000Y-19252000D02*
X204092000Y-17476000D01*
X202314000Y-21030000D02*
X204092000Y-19252000D01*
X202438000Y-23622000D02*
X202314000Y-23498000D01*
X202314000Y-23498000D02*
X202314000Y-21030000D01*
%TO.N,/d11*%
X160072000Y-12648000D02*
X161834000Y-12648000D01*
X138938000Y-29210000D02*
X146558000Y-29210000D01*
X146558000Y-29210000D02*
X149098000Y-29210000D01*
X158461067Y-14258933D02*
X160072000Y-12648000D01*
X161834000Y-6148000D02*
X161834000Y-12648000D01*
X158461067Y-15662748D02*
X158461067Y-14258933D01*
%TO.N,/b8*%
X73406000Y-22098000D02*
X82296000Y-22098000D01*
X82296000Y-22098000D02*
X84836000Y-22098000D01*
%TO.N,/d10*%
X146558000Y-26670000D02*
X149098000Y-26670000D01*
X138938000Y-26670000D02*
X146558000Y-26670000D01*
%TO.N,/Gniazdo kart micro SD/m5*%
X206410000Y-19220000D02*
X206410000Y-17358000D01*
X204978000Y-23622000D02*
X204854000Y-23498000D01*
X206378000Y-19506000D02*
X206378000Y-19252000D01*
X204854000Y-21030000D02*
X206378000Y-19506000D01*
X204854000Y-23498000D02*
X204854000Y-21030000D01*
X206378000Y-19252000D02*
X206410000Y-19220000D01*
%TO.N,/b5*%
X82296000Y-14478000D02*
X84836000Y-14478000D01*
X73406000Y-14478000D02*
X82296000Y-14478000D01*
%TO.N,/d4*%
X152654000Y-11430000D02*
X149098000Y-11430000D01*
X153964000Y-15708000D02*
X153964000Y-12740000D01*
X152859000Y-16813000D02*
X153964000Y-15708000D01*
X154584000Y-24536000D02*
X152859000Y-22811000D01*
X138938000Y-11430000D02*
X146558000Y-11430000D01*
X153964000Y-12740000D02*
X152654000Y-11430000D01*
X156464000Y-24536000D02*
X154584000Y-24536000D01*
X152859000Y-22811000D02*
X152859000Y-16813000D01*
X146558000Y-11430000D02*
X149098000Y-11430000D01*
%TO.N,/Gniazdo kart micro SD/m3*%
X199898000Y-23622000D02*
X199774000Y-23498000D01*
X201792678Y-19252000D02*
X201806000Y-19252000D01*
X199774000Y-21270678D02*
X201792678Y-19252000D01*
X201806000Y-19252000D02*
X202060000Y-18998000D01*
X199774000Y-23498000D02*
X199774000Y-21270678D01*
X202060000Y-17408000D02*
X202010000Y-17358000D01*
X202060000Y-18998000D02*
X202060000Y-17408000D01*
%TO.N,/d9*%
X138938000Y-24130000D02*
X146558000Y-24130000D01*
X146558000Y-24130000D02*
X149098000Y-24130000D01*
%TO.N,/b3*%
X82296000Y-9398000D02*
X84836000Y-9398000D01*
X73406000Y-9398000D02*
X82296000Y-9398000D01*
%TO.N,Net-(J29-Pin_3)*%
X60960000Y-63030000D02*
X60960000Y-67272000D01*
%TO.N,Net-(J29-Pin_6)*%
X53340000Y-63030000D02*
X53340000Y-67437000D01*
%TO.N,Net-(J29-Pin_1)*%
X66040000Y-63030000D02*
X66040000Y-67272000D01*
%TO.N,Net-(J29-Pin_4)*%
X58420000Y-67437000D02*
X58420000Y-63030000D01*
%TO.N,Net-(J29-Pin_7)*%
X50800000Y-63030000D02*
X50800000Y-67437000D01*
%TO.N,Net-(J29-Pin_8)*%
X48260000Y-63030000D02*
X48260000Y-67399000D01*
%TO.N,Net-(J29-Pin_5)*%
X55880000Y-63030000D02*
X55880000Y-67399000D01*
%TO.N,Net-(J29-Pin_2)*%
X63500000Y-63030000D02*
X63500000Y-67272000D01*
%TO.N,Net-(LED2-A)*%
X50292000Y-72390000D02*
X50292000Y-72987000D01*
X48260000Y-68999000D02*
X48260000Y-70358000D01*
X48260000Y-70358000D02*
X50292000Y-72390000D01*
%TO.N,Net-(LED3-A)*%
X53340000Y-69037000D02*
X53340000Y-72987000D01*
%TO.N,Net-(LED4-A)*%
X59690000Y-71628000D02*
X59690000Y-72987000D01*
X58420000Y-69037000D02*
X58420000Y-70358000D01*
X58420000Y-70358000D02*
X59690000Y-71628000D01*
%TO.N,Net-(LED5-A)*%
X63500000Y-70104000D02*
X62738000Y-70866000D01*
X62738000Y-70866000D02*
X62738000Y-72938500D01*
X63500000Y-68872000D02*
X63500000Y-70104000D01*
%TO.N,Net-(LED6-A)*%
X51816000Y-71120000D02*
X51816000Y-72987000D01*
X50800000Y-70104000D02*
X51816000Y-71120000D01*
X50800000Y-69037000D02*
X50800000Y-70104000D01*
%TO.N,Net-(LED7-A)*%
X55880000Y-70358000D02*
X54864000Y-71374000D01*
X55880000Y-68999000D02*
X55880000Y-70358000D01*
X54864000Y-71374000D02*
X54864000Y-72987000D01*
%TO.N,Net-(LED8-A)*%
X61214000Y-70612000D02*
X61214000Y-72938500D01*
X60960000Y-70358000D02*
X61214000Y-70612000D01*
X60960000Y-68872000D02*
X60960000Y-70358000D01*
%TO.N,Net-(LED9-A)*%
X64262000Y-71374000D02*
X64262000Y-72938500D01*
X66040000Y-69596000D02*
X64262000Y-71374000D01*
X66040000Y-68872000D02*
X66040000Y-69596000D01*
%TO.N,Net-(J5-Pin_1)*%
X16510000Y-35560000D02*
X14732000Y-35560000D01*
X3660000Y-20356000D02*
X10160000Y-20356000D01*
X12446000Y-26670000D02*
X12446000Y-21082000D01*
X11720000Y-20356000D02*
X10160000Y-20356000D01*
X12446000Y-21082000D02*
X11720000Y-20356000D01*
X14224000Y-35052000D02*
X14224000Y-28448000D01*
X14732000Y-35560000D02*
X14224000Y-35052000D01*
X14224000Y-28448000D02*
X12446000Y-26670000D01*
%TO.N,Net-(J5-Pin_2)*%
X13462000Y-29464000D02*
X13462000Y-36576000D01*
X10160000Y-28412000D02*
X12410000Y-28412000D01*
X12410000Y-28412000D02*
X13462000Y-29464000D01*
X13462000Y-36576000D02*
X14986000Y-38100000D01*
X14986000Y-38100000D02*
X16510000Y-38100000D01*
X3660000Y-28412000D02*
X10160000Y-28412000D01*
%TO.N,Net-(J5-Pin_4)*%
X14986000Y-43180000D02*
X16510000Y-43180000D01*
X3660000Y-44668000D02*
X10160000Y-44668000D01*
X10160000Y-44668000D02*
X13498000Y-44668000D01*
X13498000Y-44668000D02*
X14986000Y-43180000D01*
%TO.N,Net-(J5-Pin_3)*%
X14224000Y-40386000D02*
X14224000Y-38608000D01*
X16510000Y-40640000D02*
X14478000Y-40640000D01*
X14478000Y-40640000D02*
X14224000Y-40386000D01*
X12156000Y-36540000D02*
X10160000Y-36540000D01*
X3660000Y-36540000D02*
X10160000Y-36540000D01*
X14224000Y-38608000D02*
X12156000Y-36540000D01*
D60*
%TO.N,Net-(IC1-OSCI)*%
X98841310Y-53676000D02*
X96012000Y-50846690D01*
X96012000Y-50846690D02*
X96012000Y-50051000D01*
X99822000Y-53676000D02*
X98841310Y-53676000D01*
X95891000Y-49930000D02*
X96012000Y-50051000D01*
X93756000Y-49930000D02*
X95891000Y-49930000D01*
D59*
%TO.N,/Gniazdo kart micro SD/m6*%
X207394000Y-23498000D02*
X207394000Y-17474000D01*
X207518000Y-23622000D02*
X207394000Y-23498000D01*
X207394000Y-17474000D02*
X207510000Y-17358000D01*
D62*
%TO.N,Net-(DS1-SDA)*%
X97390000Y-114192000D02*
X95758000Y-115824000D01*
X95250000Y-119634000D02*
X90424000Y-119634000D01*
X95758000Y-119126000D02*
X95250000Y-119634000D01*
X95758000Y-115824000D02*
X95758000Y-119126000D01*
X98343000Y-114192000D02*
X97390000Y-114192000D01*
%TO.N,Net-(DS1-SCL)*%
X90424000Y-122034000D02*
X96412000Y-122034000D01*
X96412000Y-122034000D02*
X96634000Y-121812000D01*
X96634000Y-121812000D02*
X98343000Y-121812000D01*
%TO.N,Net-(DS1-D{slash}C)*%
X97136000Y-119272000D02*
X95174000Y-121234000D01*
X95174000Y-121234000D02*
X90424000Y-121234000D01*
X98343000Y-119272000D02*
X97136000Y-119272000D01*
%TO.N,Net-(DS1-~{RESET})*%
X94957000Y-122834000D02*
X90424000Y-122834000D01*
X98343000Y-124352000D02*
X96475000Y-124352000D01*
X96475000Y-124352000D02*
X94957000Y-122834000D01*
%TO.N,Net-(DS1-~{CSX})*%
X96237000Y-117631000D02*
X96237000Y-119409000D01*
X98343000Y-116732000D02*
X97136000Y-116732000D01*
X96237000Y-119409000D02*
X95212000Y-120434000D01*
X97136000Y-116732000D02*
X96237000Y-117631000D01*
X95212000Y-120434000D02*
X90424000Y-120434000D01*
%TO.N,Net-(DS1-SDO)*%
X94526000Y-118834000D02*
X90424000Y-118834000D01*
X97517000Y-111652000D02*
X95250000Y-113919000D01*
X95250000Y-113919000D02*
X95250000Y-118110000D01*
X98343000Y-111652000D02*
X97517000Y-111652000D01*
X95250000Y-118110000D02*
X94526000Y-118834000D01*
%TO.N,Net-(DS1-LED-A)*%
X93980000Y-116132000D02*
X93980000Y-109093000D01*
X93980000Y-109093000D02*
X95631000Y-107442000D01*
X93678000Y-116434000D02*
X93980000Y-116132000D01*
X95631000Y-107442000D02*
X97727000Y-107442000D01*
X90424000Y-116434000D02*
X93678000Y-116434000D01*
D59*
%TO.N,Net-(IC2-SCL)*%
X89662000Y-32512000D02*
X89217000Y-32512000D01*
X93472000Y-31369000D02*
X91522000Y-31369000D01*
X91522000Y-31369000D02*
X90805000Y-31369000D01*
X89217000Y-32639000D02*
X89344000Y-32512000D01*
X90805000Y-31369000D02*
X89662000Y-32512000D01*
%TO.N,Net-(IC2-SDA)*%
X94615000Y-30099000D02*
X94996000Y-30480000D01*
X90551000Y-30099000D02*
X89662000Y-30988000D01*
X89662000Y-30988000D02*
X89217000Y-30988000D01*
X89217000Y-31115000D02*
X89344000Y-30988000D01*
X91522000Y-30099000D02*
X94615000Y-30099000D01*
X91522000Y-30099000D02*
X90551000Y-30099000D01*
%TO.N,Net-(IC3-DQ)*%
X37401000Y-6541000D02*
X36830000Y-7112000D01*
X36830000Y-7112000D02*
X36830000Y-8255000D01*
X36830000Y-12954000D02*
X36830000Y-8255000D01*
X41656000Y-6541000D02*
X37401000Y-6541000D01*
%TO.N,Net-(IC2-E0)*%
X103124000Y-33274000D02*
X99822000Y-33274000D01*
X99187000Y-33909000D02*
X96946000Y-33909000D01*
X99822000Y-33274000D02*
X99187000Y-33909000D01*
%TO.N,/b14*%
X82296000Y-37338000D02*
X84836000Y-37338000D01*
X73406000Y-37338000D02*
X82296000Y-37338000D01*
%TO.N,/a19*%
X48006000Y-50038000D02*
X45466000Y-50038000D01*
X55626000Y-50038000D02*
X48006000Y-50038000D01*
%TO.N,/b17*%
X73406000Y-44958000D02*
X82296000Y-44958000D01*
X82296000Y-44958000D02*
X84836000Y-44958000D01*
%TO.N,/b12*%
X82296000Y-32258000D02*
X84836000Y-32258000D01*
X73406000Y-32258000D02*
X82296000Y-32258000D01*
%TO.N,/b10*%
X82296000Y-27178000D02*
X84836000Y-27178000D01*
X73406000Y-27178000D02*
X82296000Y-27178000D01*
%TO.N,/b16*%
X73406000Y-42418000D02*
X82296000Y-42418000D01*
X82296000Y-42418000D02*
X84836000Y-42418000D01*
%TO.N,Net-(J15-Pin_2)*%
X27178000Y-85990000D02*
X23573000Y-85990000D01*
%TO.N,Net-(J15-Pin_3)*%
X27178000Y-85090000D02*
X26670000Y-85090000D01*
X26670000Y-85090000D02*
X25030000Y-83450000D01*
X25030000Y-83450000D02*
X23573000Y-83450000D01*
%TO.N,Net-(J15-Pin_1)*%
X25654000Y-87122000D02*
X25886000Y-86890000D01*
X25008000Y-88530000D02*
X25654000Y-87884000D01*
X25654000Y-87884000D02*
X25654000Y-87122000D01*
X23573000Y-88530000D02*
X25008000Y-88530000D01*
X25886000Y-86890000D02*
X27178000Y-86890000D01*
%TO.N,Net-(LED1-A_GREEN)*%
X32146000Y-85990000D02*
X30128000Y-85990000D01*
%TO.N,Net-(LED1-A_RED)*%
X30756000Y-86890000D02*
X30128000Y-86890000D01*
X31443000Y-87577000D02*
X30756000Y-86890000D01*
X32146000Y-87577000D02*
X31443000Y-87577000D01*
%TO.N,Net-(LED1-A_BLUE)*%
X31242000Y-85090000D02*
X30128000Y-85090000D01*
X31803000Y-84529000D02*
X31242000Y-85090000D01*
X32209000Y-84529000D02*
X31803000Y-84529000D01*
%TO.N,/b1*%
X82296000Y-4318000D02*
X84836000Y-4318000D01*
X73406000Y-4318000D02*
X82296000Y-4318000D01*
%TO.N,/c8*%
X121158000Y-21590000D02*
X113538000Y-21590000D01*
X113538000Y-21590000D02*
X110998000Y-21590000D01*
%TO.N,/b15*%
X73406000Y-39878000D02*
X82296000Y-39878000D01*
X82296000Y-39878000D02*
X84836000Y-39878000D01*
%TO.N,/b19*%
X82296000Y-50038000D02*
X84836000Y-50038000D01*
X73406000Y-50038000D02*
X82296000Y-50038000D01*
%TO.N,/a20*%
X55626000Y-52578000D02*
X48006000Y-52578000D01*
X48006000Y-52578000D02*
X45466000Y-52578000D01*
%TO.N,/c3*%
X113538000Y-8890000D02*
X110998000Y-8890000D01*
X121158000Y-8890000D02*
X113538000Y-8890000D01*
%TO.N,/b20*%
X82296000Y-52578000D02*
X84836000Y-52578000D01*
X73406000Y-52578000D02*
X82296000Y-52578000D01*
%TO.N,/c18*%
X121158000Y-46990000D02*
X113538000Y-46990000D01*
X113538000Y-46990000D02*
X110998000Y-46990000D01*
%TO.N,/a17*%
X55626000Y-44958000D02*
X48006000Y-44958000D01*
X48006000Y-44958000D02*
X45466000Y-44958000D01*
%TO.N,/d6*%
X146558000Y-16510000D02*
X149098000Y-16510000D01*
X138938000Y-16510000D02*
X146558000Y-16510000D01*
%TO.N,/d18*%
X146558000Y-46990000D02*
X149098000Y-46990000D01*
X138938000Y-46990000D02*
X146558000Y-46990000D01*
%TO.N,/b9*%
X82296000Y-24638000D02*
X84836000Y-24638000D01*
X73406000Y-24638000D02*
X82296000Y-24638000D01*
%TO.N,/b11*%
X97028000Y-12700000D02*
X98878000Y-12700000D01*
X95758000Y-13970000D02*
X97028000Y-12700000D01*
X82296000Y-29718000D02*
X84836000Y-29718000D01*
X95758000Y-15240000D02*
X95758000Y-13970000D01*
X98878000Y-6200000D02*
X98878000Y-12700000D01*
X73406000Y-29718000D02*
X82296000Y-29718000D01*
%TO.N,/d13*%
X146558000Y-34290000D02*
X149098000Y-34290000D01*
X138938000Y-34290000D02*
X146558000Y-34290000D01*
%TO.N,/d14*%
X146558000Y-36830000D02*
X149098000Y-36830000D01*
X138938000Y-36830000D02*
X146558000Y-36830000D01*
%TO.N,Net-(D4-A)*%
X97028000Y-14478000D02*
X102307852Y-14478000D01*
X102307852Y-14478000D02*
X104140000Y-16310148D01*
X102870000Y-18097000D02*
X103569000Y-18097000D01*
X104140000Y-16310148D02*
X104140000Y-17526000D01*
X103569000Y-18097000D02*
X104140000Y-17526000D01*
X102870000Y-21622000D02*
X102870000Y-18097000D01*
%TO.N,/c17*%
X113538000Y-44450000D02*
X110998000Y-44450000D01*
X121158000Y-44450000D02*
X113538000Y-44450000D01*
%TO.N,/d20*%
X146558000Y-52070000D02*
X149098000Y-52070000D01*
X138938000Y-52070000D02*
X146558000Y-52070000D01*
%TO.N,/d8*%
X138938000Y-21590000D02*
X146558000Y-21590000D01*
X146558000Y-21590000D02*
X149098000Y-21590000D01*
%TO.N,/d17*%
X146558000Y-44450000D02*
X149098000Y-44450000D01*
X138938000Y-44450000D02*
X146558000Y-44450000D01*
%TO.N,/d19*%
X146558000Y-49530000D02*
X149098000Y-49530000D01*
X138938000Y-49530000D02*
X146558000Y-49530000D01*
%TO.N,/d16*%
X146558000Y-41910000D02*
X149098000Y-41910000D01*
X138938000Y-41910000D02*
X146558000Y-41910000D01*
%TO.N,/d15*%
X146558000Y-39370000D02*
X149098000Y-39370000D01*
X138938000Y-39370000D02*
X146558000Y-39370000D01*
%TO.N,/d5*%
X138938000Y-13970000D02*
X146558000Y-13970000D01*
X149098000Y-13970000D02*
X146558000Y-13970000D01*
%TO.N,/c20*%
X113538000Y-52070000D02*
X110998000Y-52070000D01*
X121158000Y-52070000D02*
X113538000Y-52070000D01*
%TO.N,/d12*%
X138938000Y-31750000D02*
X146558000Y-31750000D01*
X146558000Y-31750000D02*
X149098000Y-31750000D01*
%TO.N,/c19*%
X113538000Y-49530000D02*
X110998000Y-49530000D01*
X121158000Y-49530000D02*
X113538000Y-49530000D01*
D60*
%TO.N,Net-(IC1-OSCO)*%
X91216000Y-51084000D02*
X91216000Y-49930000D01*
X91948000Y-51816000D02*
X91216000Y-51084000D01*
X98776000Y-54326000D02*
X96266000Y-51816000D01*
X99822000Y-54326000D02*
X98776000Y-54326000D01*
X96266000Y-51816000D02*
X91948000Y-51816000D01*
%TO.N,Net-(IC5-CLK)*%
X158836000Y-40386000D02*
X160614000Y-40386000D01*
X160614000Y-40386000D02*
X161600000Y-39400000D01*
X161600000Y-39400000D02*
X162900000Y-39400000D01*
%TO.N,Net-(IC5-DOUT)*%
X160188000Y-37846000D02*
X161092000Y-38750000D01*
X161092000Y-38750000D02*
X162900000Y-38750000D01*
X158836000Y-37846000D02*
X160188000Y-37846000D01*
%TO.N,Net-(IC5-~{CS}{slash}SHDN)*%
X169291000Y-42504000D02*
X169291000Y-40679310D01*
X169713000Y-42926000D02*
X169291000Y-42504000D01*
X168570000Y-40050000D02*
X167300000Y-40050000D01*
X169291000Y-40679310D02*
X168615845Y-40004155D01*
X168615845Y-40004155D02*
X168570000Y-40050000D01*
X171282000Y-42926000D02*
X169713000Y-42926000D01*
%TO.N,Net-(IC5-VSS)*%
X169291000Y-36154000D02*
X169291000Y-36789000D01*
X169291000Y-36789000D02*
X167980000Y-38100000D01*
X167980000Y-38100000D02*
X167300000Y-38100000D01*
X171282000Y-35306000D02*
X170139000Y-35306000D01*
X170139000Y-35306000D02*
X169291000Y-36154000D01*
%TO.N,Net-(IC5-DIN)*%
X161712000Y-38100000D02*
X162900000Y-38100000D01*
X161036000Y-37424000D02*
X161712000Y-38100000D01*
X158836000Y-35306000D02*
X160823000Y-35306000D01*
X160823000Y-35306000D02*
X161036000Y-35519000D01*
X161036000Y-35519000D02*
X161036000Y-37424000D01*
%TO.N,Net-(IC5-CH1)*%
X169504000Y-37846000D02*
X168600000Y-38750000D01*
X168600000Y-38750000D02*
X167300000Y-38750000D01*
X171282000Y-37846000D02*
X169504000Y-37846000D01*
%TO.N,Net-(IC5-CH0)*%
X169713000Y-40386000D02*
X168727000Y-39400000D01*
X168727000Y-39400000D02*
X167300000Y-39400000D01*
X171282000Y-40386000D02*
X169713000Y-40386000D01*
%TO.N,Net-(IC5-VDD{slash}VREF)*%
X162900000Y-40050000D02*
X161880000Y-40050000D01*
X161036000Y-40894000D02*
X161036000Y-42418000D01*
X161880000Y-40050000D02*
X161036000Y-40894000D01*
X160528000Y-42926000D02*
X158836000Y-42926000D01*
X161036000Y-42418000D02*
X160528000Y-42926000D01*
X162547000Y-42926000D02*
X160528000Y-42926000D01*
%TO.N,+5V*%
X29207600Y-28687000D02*
X29210000Y-28684600D01*
X18798172Y-25275172D02*
X18960000Y-25437000D01*
X27432000Y-28687000D02*
X29207600Y-28687000D01*
X25146000Y-20574000D02*
X25730000Y-19990000D01*
X25730000Y-19990000D02*
X26162000Y-19990000D01*
D59*
X28194000Y-19990000D02*
X28791000Y-19393000D01*
D60*
X18798172Y-25130772D02*
X18798172Y-25275172D01*
X29718000Y-19939000D02*
X29172000Y-19393000D01*
D59*
X28791000Y-19393000D02*
X29210000Y-18974000D01*
D60*
X18960000Y-25437000D02*
X20408000Y-25437000D01*
D59*
X29210000Y-18974000D02*
X29210000Y-18212000D01*
X25146000Y-18974000D02*
X26162000Y-19990000D01*
X25146000Y-18212000D02*
X25146000Y-18974000D01*
X26162000Y-19990000D02*
X28194000Y-19990000D01*
D60*
X29172000Y-19393000D02*
X28791000Y-19393000D01*
D59*
%TO.N,Net-(Q2-B)*%
X117035000Y-116903000D02*
X117856000Y-117724000D01*
X117856000Y-117724000D02*
X117856000Y-119098300D01*
X114242000Y-116903000D02*
X117035000Y-116903000D01*
%TO.N,Net-(Q3-B)*%
X113416000Y-117856000D02*
X114178000Y-117856000D01*
X112718000Y-116903000D02*
X112718000Y-117158000D01*
X114416800Y-118125200D02*
X114416800Y-119103300D01*
X114178000Y-117856000D02*
X114432000Y-118110000D01*
X112718000Y-117158000D02*
X113416000Y-117856000D01*
X114432000Y-118110000D02*
X114416800Y-118125200D01*
%TO.N,Net-(Q4-B)*%
X111130000Y-117602000D02*
X110998000Y-117734000D01*
X111130000Y-116903000D02*
X111130000Y-117602000D01*
X110998000Y-117734000D02*
X110998000Y-119126000D01*
%TO.N,Net-(Q5-B)*%
X107828000Y-117856000D02*
X107594400Y-118089600D01*
X109098000Y-117856000D02*
X107828000Y-117856000D01*
X109670000Y-116903000D02*
X109670000Y-117284000D01*
X109670000Y-117284000D02*
X109098000Y-117856000D01*
X107594400Y-118089600D02*
X107594400Y-119126000D01*
%TO.N,Net-(J25-Pin_4)*%
X115702000Y-113538000D02*
X114242000Y-114998000D01*
X115702000Y-112268000D02*
X115702000Y-113538000D01*
X114242000Y-114998000D02*
X114242000Y-115253000D01*
%TO.N,Net-(J25-Pin_3)*%
X113162000Y-112268000D02*
X113162000Y-113538000D01*
X112718000Y-113982000D02*
X112718000Y-115253000D01*
X113162000Y-113538000D02*
X112718000Y-113982000D01*
%TO.N,Net-(J25-Pin_2)*%
X111130000Y-114046000D02*
X111130000Y-115253000D01*
X110622000Y-112268000D02*
X110622000Y-113538000D01*
X110622000Y-113538000D02*
X111130000Y-114046000D01*
%TO.N,Net-(J25-Pin_1)*%
X108082000Y-113284000D02*
X108844000Y-114046000D01*
X109352000Y-114046000D02*
X109670000Y-114364000D01*
X109670000Y-114364000D02*
X109670000Y-115253000D01*
X108082000Y-112268000D02*
X108082000Y-113284000D01*
X108844000Y-114046000D02*
X109352000Y-114046000D01*
D60*
%TO.N,Net-(IC1-SDA)*%
X103823000Y-49467000D02*
X106934000Y-52578000D01*
D59*
X103124000Y-47815000D02*
X103823000Y-48514000D01*
D60*
X106934000Y-54864000D02*
X106172000Y-55626000D01*
X103823000Y-48514000D02*
X103823000Y-49467000D01*
D59*
X103124000Y-45720000D02*
X103124000Y-47815000D01*
D60*
X106934000Y-52578000D02*
X106934000Y-54864000D01*
X106172000Y-55626000D02*
X104222000Y-55626000D01*
D59*
X103124000Y-43180000D02*
X103124000Y-45720000D01*
D60*
%TO.N,Net-(IC1-SCL)*%
X106060000Y-54976000D02*
X104222000Y-54976000D01*
X106426000Y-52785310D02*
X106426000Y-54610000D01*
X99885000Y-50101000D02*
X101346000Y-51562000D01*
D59*
X100584000Y-43180000D02*
X100584000Y-45720000D01*
X100584000Y-47815000D02*
X99885000Y-48514000D01*
D60*
X105202690Y-51562000D02*
X106426000Y-52785310D01*
X106426000Y-54610000D02*
X106060000Y-54976000D01*
D59*
X100584000Y-45720000D02*
X100584000Y-47815000D01*
D60*
X101346000Y-51562000D02*
X105202690Y-51562000D01*
X99885000Y-48514000D02*
X99885000Y-50101000D01*
D59*
%TO.N,Net-(J24-Pin_7)*%
X127254000Y-114554000D02*
X127254000Y-116460000D01*
X126746000Y-114046000D02*
X127254000Y-114554000D01*
X126746000Y-112268000D02*
X126746000Y-114046000D01*
%TO.N,Net-(J24-Pin_4)*%
X134366000Y-112268000D02*
X134366000Y-113538000D01*
X135890000Y-115062000D02*
X135890000Y-116328000D01*
X134366000Y-113538000D02*
X135890000Y-115062000D01*
%TO.N,Net-(J24-Pin_2)*%
X138938000Y-114554000D02*
X138938000Y-116328000D01*
X139446000Y-112268000D02*
X139446000Y-114046000D01*
X139446000Y-114046000D02*
X138938000Y-114554000D01*
%TO.N,Net-(J24-Pin_5)*%
X130302000Y-115316000D02*
X130302000Y-116460000D01*
X131826000Y-112268000D02*
X131826000Y-113792000D01*
X131826000Y-113792000D02*
X130302000Y-115316000D01*
%TO.N,Net-(J24-Pin_8)*%
X124206000Y-113538000D02*
X125730000Y-115062000D01*
X125730000Y-115062000D02*
X125730000Y-116460000D01*
X124206000Y-112268000D02*
X124206000Y-113538000D01*
%TO.N,Net-(J24-Pin_3)*%
X137414000Y-114554000D02*
X137414000Y-116332000D01*
X136906000Y-114046000D02*
X137414000Y-114554000D01*
X136906000Y-112268000D02*
X136906000Y-114046000D01*
%TO.N,Net-(J24-Pin_1)*%
X141986000Y-112268000D02*
X141986000Y-113792000D01*
X141986000Y-113792000D02*
X140462000Y-115316000D01*
X140462000Y-115316000D02*
X140462000Y-116332000D01*
%TO.N,Net-(J24-Pin_6)*%
X129286000Y-112268000D02*
X129286000Y-114046000D01*
X129286000Y-114046000D02*
X128778000Y-114554000D01*
X128778000Y-114554000D02*
X128778000Y-116460000D01*
%TO.N,Net-(J13-Pin_3)*%
X20320000Y-73152000D02*
X19812000Y-72644000D01*
X23368000Y-74676000D02*
X21844000Y-73152000D01*
X19812000Y-72644000D02*
X19812000Y-71565000D01*
X21844000Y-73152000D02*
X20320000Y-73152000D01*
X23368000Y-77153000D02*
X23368000Y-74676000D01*
%TO.N,Net-(J13-Pin_2)*%
X25908000Y-77153000D02*
X25908000Y-74422000D01*
X25908000Y-74422000D02*
X26416000Y-73914000D01*
X30988000Y-73152000D02*
X30988000Y-71691000D01*
X26416000Y-73914000D02*
X30226000Y-73914000D01*
X30226000Y-73914000D02*
X30988000Y-73152000D01*
%TO.N,Net-(J13-Pin_1)*%
X30543000Y-77153000D02*
X33020000Y-74676000D01*
X34544000Y-74676000D02*
X35243000Y-73977000D01*
X35243000Y-73977000D02*
X35243000Y-70866000D01*
X28448000Y-77153000D02*
X30543000Y-77153000D01*
X33020000Y-74676000D02*
X34544000Y-74676000D01*
%TO.N,Net-(Q1-B)*%
X38686500Y-72515000D02*
X37844000Y-72515000D01*
X37844000Y-72515000D02*
X36893000Y-71564000D01*
X36893000Y-71564000D02*
X36893000Y-70866000D01*
%TO.N,Net-(D5-A)*%
X159512000Y-14986000D02*
X167132000Y-14986000D01*
X151662000Y-13970000D02*
X151638000Y-13946000D01*
X167640000Y-15494000D02*
X167640000Y-17526000D01*
X167640000Y-17526000D02*
X166815000Y-18351000D01*
X167132000Y-14986000D02*
X167640000Y-15494000D01*
X166370000Y-21114000D02*
X166370000Y-18351000D01*
X166815000Y-18351000D02*
X166370000Y-18351000D01*
%TO.N,/Wy\u015Bwietlacz segmentowy/f*%
X128778000Y-118110000D02*
X128778000Y-120650000D01*
%TO.N,/Wy\u015Bwietlacz segmentowy/c*%
X138684000Y-125222000D02*
X138684000Y-132588000D01*
X137414000Y-123952000D02*
X138684000Y-125222000D01*
X137414000Y-117982000D02*
X137414000Y-123952000D01*
%TO.N,/Wy\u015Bwietlacz segmentowy/b*%
X138938000Y-117978000D02*
X138938000Y-119634000D01*
%TO.N,/Wy\u015Bwietlacz segmentowy/DIG1*%
X116906000Y-125034000D02*
X117602000Y-125730000D01*
X117602000Y-125730000D02*
X117602000Y-130048000D01*
X116906000Y-120973300D02*
X116906000Y-125034000D01*
%TO.N,/Wy\u015Bwietlacz segmentowy/DIG3*%
X127762000Y-130048000D02*
X127762000Y-132334000D01*
X114300000Y-134366000D02*
X109982000Y-130048000D01*
X125730000Y-134366000D02*
X114300000Y-134366000D01*
X109982000Y-121067000D02*
X110048000Y-121001000D01*
X109982000Y-130048000D02*
X109982000Y-121067000D01*
X127762000Y-132334000D02*
X125730000Y-134366000D01*
%TO.N,/Wy\u015Bwietlacz segmentowy/DIG4*%
X130302000Y-139954000D02*
X125984000Y-135636000D01*
X130302000Y-145288000D02*
X130302000Y-139954000D01*
X125984000Y-135636000D02*
X113030000Y-135636000D01*
X113030000Y-135636000D02*
X106644400Y-129250400D01*
X106644400Y-129250400D02*
X106644400Y-121001000D01*
%TO.N,/Wy\u015Bwietlacz segmentowy/a*%
X120142000Y-127508000D02*
X120142000Y-130048000D01*
X121158000Y-126492000D02*
X120142000Y-127508000D01*
X140462000Y-117982000D02*
X140462000Y-119634000D01*
X132842000Y-126492000D02*
X121158000Y-126492000D01*
%TO.N,/Wy\u015Bwietlacz segmentowy/DIG2*%
X124005000Y-133096000D02*
X115570000Y-133096000D01*
X125222000Y-130048000D02*
X125222000Y-131879000D01*
X125222000Y-131879000D02*
X124005000Y-133096000D01*
X115570000Y-133096000D02*
X113466800Y-130992800D01*
X113466800Y-130992800D02*
X113466800Y-120978300D01*
%TO.N,/Wy\u015Bwietlacz segmentowy/e*%
X130302000Y-118110000D02*
X130302000Y-121920000D01*
X134366000Y-123444000D02*
X137160000Y-126238000D01*
X137160000Y-133350000D02*
X135890000Y-134620000D01*
X131826000Y-123444000D02*
X134366000Y-123444000D01*
X130302000Y-121920000D02*
X131826000Y-123444000D01*
X137160000Y-126238000D02*
X137160000Y-133350000D01*
%TO.N,/Wy\u015Bwietlacz segmentowy/DP*%
X125730000Y-118110000D02*
X125730000Y-121412000D01*
X135597591Y-132842000D02*
X132334000Y-136105591D01*
X129794000Y-125476000D02*
X133858000Y-125476000D01*
X125730000Y-121412000D02*
X129794000Y-125476000D01*
X135636000Y-127254000D02*
X135636000Y-132842000D01*
X133858000Y-125476000D02*
X135636000Y-127254000D01*
X135636000Y-132842000D02*
X135597591Y-132842000D01*
X132334000Y-136105591D02*
X132334000Y-139954000D01*
%TO.N,/Wy\u015Bwietlacz segmentowy/d*%
X137922000Y-133858000D02*
X137668000Y-134112000D01*
X137922000Y-125730000D02*
X137922000Y-133858000D01*
X135890000Y-123698000D02*
X137922000Y-125730000D01*
X135890000Y-117978000D02*
X135890000Y-123698000D01*
%TO.N,/Wy\u015Bwietlacz segmentowy/g*%
X134366000Y-135076268D02*
X134366000Y-140462000D01*
X135577268Y-133865000D02*
X134366000Y-135076268D01*
X134112000Y-124460000D02*
X136398000Y-126746000D01*
X127254000Y-118110000D02*
X127254000Y-121666000D01*
X135629000Y-133865000D02*
X135577268Y-133865000D01*
X136398000Y-133096000D02*
X135629000Y-133865000D01*
X127254000Y-121666000D02*
X130048000Y-124460000D01*
X136398000Y-126746000D02*
X136398000Y-133096000D01*
X130048000Y-124460000D02*
X134112000Y-124460000D01*
%TO.N,/Wy\u015Bwietlacz LCD/RS*%
X86960000Y-68828000D02*
X86960000Y-71282000D01*
X43995000Y-92255000D02*
X42672000Y-90932000D01*
X65987000Y-92255000D02*
X43995000Y-92255000D01*
X86960000Y-71282000D02*
X65987000Y-92255000D01*
X42672000Y-90932000D02*
X42672000Y-86360000D01*
%TO.N,/Wy\u015Bwietlacz LCD/D6*%
X83058000Y-84836000D02*
X77724000Y-90170000D01*
X109820000Y-71282000D02*
X96266000Y-84836000D01*
X96266000Y-84836000D02*
X83058000Y-84836000D01*
X52832000Y-89154000D02*
X53848000Y-90170000D01*
X77724000Y-90170000D02*
X77216000Y-90170000D01*
X109820000Y-68828000D02*
X109820000Y-71282000D01*
X53848000Y-90170000D02*
X58166000Y-90170000D01*
X52832000Y-86360000D02*
X52832000Y-89154000D01*
%TO.N,/Wy\u015Bwietlacz LCD/D7*%
X83566000Y-85852000D02*
X97466000Y-85852000D01*
X56349997Y-89369997D02*
X55372000Y-88392000D01*
X112360000Y-70958000D02*
X112360000Y-68828000D01*
X55372000Y-88392000D02*
X55372000Y-86360000D01*
X58166000Y-89369997D02*
X56349997Y-89369997D01*
X97466000Y-85852000D02*
X112360000Y-70958000D01*
X79883000Y-89535000D02*
X83566000Y-85852000D01*
%TO.N,/Wy\u015Bwietlacz LCD/D1*%
X90170000Y-78232000D02*
X88392000Y-78232000D01*
X97120000Y-68828000D02*
X97120000Y-71282000D01*
X50292000Y-78740000D02*
X50292000Y-83820000D01*
X97120000Y-71282000D02*
X90170000Y-78232000D01*
%TO.N,/Wy\u015Bwietlacz LCD/D5*%
X49784000Y-86868000D02*
X50292000Y-86360000D01*
X94742000Y-83566000D02*
X107280000Y-71028000D01*
X82550000Y-83566000D02*
X94742000Y-83566000D01*
X75184000Y-90932000D02*
X82550000Y-83566000D01*
X107280000Y-71028000D02*
X107280000Y-68828000D01*
X49784000Y-90678000D02*
X49784000Y-86868000D01*
%TO.N,/Wy\u015Bwietlacz LCD/D0*%
X94580000Y-71282000D02*
X88900000Y-76962000D01*
X47752000Y-78740000D02*
X47752000Y-83820000D01*
X94580000Y-68828000D02*
X94580000Y-71282000D01*
X48006000Y-78486000D02*
X47752000Y-78740000D01*
X88900000Y-76962000D02*
X88392000Y-76962000D01*
%TO.N,/Wy\u015Bwietlacz LCD/E*%
X92040000Y-71282000D02*
X92040000Y-68828000D01*
X69469000Y-92456000D02*
X70866000Y-92456000D01*
X70866000Y-92456000D02*
X92040000Y-71282000D01*
X45212000Y-91186000D02*
X45212000Y-86360000D01*
%TO.N,/Wy\u015Bwietlacz LCD/D2*%
X90932000Y-79756000D02*
X88392000Y-79756000D01*
X99660000Y-71028000D02*
X90932000Y-79756000D01*
X99660000Y-68828000D02*
X99660000Y-71028000D01*
X53340000Y-79756000D02*
X52832000Y-80264000D01*
X52832000Y-80264000D02*
X52832000Y-83820000D01*
%TO.N,/Wy\u015Bwietlacz LCD/D3*%
X55372000Y-81788000D02*
X55372000Y-83820000D01*
X58166000Y-81026000D02*
X56134000Y-81026000D01*
X102200000Y-68828000D02*
X102200000Y-70901000D01*
X102200000Y-70901000D02*
X92075000Y-81026000D01*
X56134000Y-81026000D02*
X55372000Y-81788000D01*
X92075000Y-81026000D02*
X88392000Y-81026000D01*
%TO.N,/Wy\u015Bwietlacz LCD/R{slash}W*%
X67818000Y-92964000D02*
X89500000Y-71282000D01*
X41402000Y-92964000D02*
X67818000Y-92964000D01*
X40132000Y-91694000D02*
X41402000Y-92964000D01*
X89500000Y-71282000D02*
X89500000Y-68828000D01*
X40132000Y-86360000D02*
X40132000Y-91694000D01*
%TO.N,/Wy\u015Bwietlacz LCD/D4*%
X93345000Y-82296000D02*
X104740000Y-70901000D01*
X47498000Y-86614000D02*
X47752000Y-86360000D01*
X82296000Y-82296000D02*
X93345000Y-82296000D01*
X104740000Y-70901000D02*
X104740000Y-68828000D01*
X72898000Y-91694000D02*
X82296000Y-82296000D01*
X47498000Y-90932000D02*
X47498000Y-86614000D01*
%TO.N,/Wy\u015Bwietlacz LCD/BL*%
X46736000Y-76200000D02*
X45212000Y-77724000D01*
X120396000Y-77279000D02*
X120396000Y-77978000D01*
X47752000Y-76200000D02*
X46736000Y-76200000D01*
X111760000Y-78740000D02*
X109220000Y-76200000D01*
X45212000Y-77724000D02*
X45212000Y-83820000D01*
X119634000Y-78740000D02*
X111760000Y-78740000D01*
X120396000Y-77978000D02*
X119634000Y-78740000D01*
%TO.N,Net-(Q7-B)*%
X118044000Y-75535000D02*
X120302000Y-75535000D01*
X120302000Y-75535000D02*
X120396000Y-75629000D01*
%TO.N,Net-(J7-Pin_3)*%
X84420000Y-71536000D02*
X84420000Y-68828000D01*
X71120000Y-84836000D02*
X84420000Y-71536000D01*
X66254000Y-84836000D02*
X71120000Y-84836000D01*
%TO.N,Net-(J7-Pin_15)*%
X116586000Y-71120000D02*
X117094000Y-71628000D01*
X117094000Y-71628000D02*
X117094000Y-73660000D01*
X114900000Y-68828000D02*
X114900000Y-70704000D01*
X114900000Y-70704000D02*
X115316000Y-71120000D01*
X115316000Y-71120000D02*
X116586000Y-71120000D01*
D60*
%TO.N,/Zegar czasu rzeczywistego RTC/INT*%
X99822000Y-54976000D02*
X97902000Y-54976000D01*
X97282000Y-54356000D02*
X97277000Y-54361000D01*
X95504000Y-54361000D02*
X95829000Y-54686000D01*
X97277000Y-54361000D02*
X95504000Y-54361000D01*
X97902000Y-54976000D02*
X97282000Y-54356000D01*
%TO.N,/Zegar czasu rzeczywistego RTC/CLKOUT*%
X100325000Y-56901000D02*
X95504000Y-56901000D01*
X104222000Y-54326000D02*
X102900000Y-54326000D01*
X102900000Y-54326000D02*
X100325000Y-56901000D01*
D59*
%TO.N,VSYS*%
X172974000Y-28194000D02*
X172974000Y-27178000D01*
X25407000Y-36785000D02*
X35567000Y-36785000D01*
X39579000Y-36785000D02*
X39624000Y-36830000D01*
X171387000Y-30480000D02*
X171387000Y-29781000D01*
X138938000Y-6350000D02*
X146558000Y-6350000D01*
X17526000Y-32639000D02*
X21672000Y-36785000D01*
X15748000Y-17494000D02*
X15748000Y-19939000D01*
X35567000Y-36785000D02*
X39579000Y-36785000D01*
X146558000Y-6350000D02*
X149098000Y-6350000D01*
X14478000Y-21209000D02*
X14478000Y-25781000D01*
X171387000Y-31051000D02*
X170688000Y-31750000D01*
X17526000Y-28829000D02*
X17526000Y-32639000D01*
X169164000Y-30226000D02*
X169164000Y-9906000D01*
X170688000Y-31750000D02*
X169164000Y-30226000D01*
X171387000Y-30480000D02*
X171387000Y-31051000D01*
X89408000Y-6858000D02*
X92202000Y-4064000D01*
X84836000Y-6858000D02*
X89408000Y-6858000D01*
X172974000Y-4318000D02*
X172974000Y-27178000D01*
X92202000Y-4064000D02*
X94996000Y-1270000D01*
X94996000Y-1270000D02*
X95504000Y-1270000D01*
X14478000Y-25781000D02*
X17526000Y-28829000D01*
X171387000Y-29781000D02*
X172974000Y-28194000D01*
X21672000Y-36785000D02*
X25407000Y-36785000D01*
X73406000Y-6858000D02*
X82296000Y-6858000D01*
X15748000Y-19939000D02*
X14478000Y-21209000D01*
%TO.N,Net-(D2-A)*%
X16510000Y-10160000D02*
X13716000Y-12954000D01*
X13970000Y-12954000D02*
X14510000Y-13494000D01*
X16510000Y-8636000D02*
X16510000Y-10160000D01*
X14510000Y-13494000D02*
X15748000Y-13494000D01*
X6350000Y-12954000D02*
X12827000Y-12954000D01*
X12827000Y-12954000D02*
X13970000Y-12954000D01*
D62*
%TO.N,Net-(IC4-USBDM)*%
X25908000Y-11938000D02*
X26314400Y-11938000D01*
X25781000Y-11938000D02*
X25586000Y-11743000D01*
D60*
X25908000Y-13589000D02*
X25908000Y-11938000D01*
D62*
X26314400Y-11938000D02*
X26586000Y-11666400D01*
D60*
X18790400Y-22837000D02*
X20408000Y-22837000D01*
D62*
X26586000Y-11666400D02*
X26586000Y-10482000D01*
X25908000Y-11938000D02*
X25781000Y-11938000D01*
D60*
X18178400Y-22225000D02*
X18790400Y-22837000D01*
D62*
X25586000Y-11743000D02*
X25586000Y-10482000D01*
D60*
%TO.N,Net-(IC4-USBDP)*%
X19139000Y-22187000D02*
X18796000Y-21844000D01*
D62*
X25400000Y-9144000D02*
X25086000Y-9458000D01*
D60*
X18796000Y-21463000D02*
X18830800Y-21463000D01*
D62*
X26086000Y-9500000D02*
X25730000Y-9144000D01*
X26530122Y-14224000D02*
X26560400Y-14254278D01*
X25086000Y-10482000D02*
X25086000Y-13655127D01*
X26086000Y-10482000D02*
X26086000Y-9500000D01*
D60*
X18796000Y-21844000D02*
X18796000Y-21463000D01*
D62*
X25654873Y-14224000D02*
X26530122Y-14224000D01*
X25086000Y-13655127D02*
X25654873Y-14224000D01*
X25086000Y-9458000D02*
X25086000Y-10482000D01*
D60*
X20408000Y-22187000D02*
X19139000Y-22187000D01*
D62*
X25730000Y-9144000D02*
X25400000Y-9144000D01*
D59*
%TO.N,Net-(LED14-A)*%
X99923000Y-16447000D02*
X99860000Y-16510000D01*
X102870000Y-16447000D02*
X99923000Y-16447000D01*
D60*
%TO.N,/Port USB/DTR*%
X35560000Y-29972000D02*
X27447000Y-29972000D01*
X27447000Y-29972000D02*
X27432000Y-29987000D01*
%TO.N,/Port USB/C3*%
X35560000Y-19812000D02*
X31686500Y-19812000D01*
X31686500Y-19812000D02*
X29311500Y-22187000D01*
X29311500Y-22187000D02*
X27432000Y-22187000D01*
%TO.N,Net-(IC4-CBUS0)*%
X23114000Y-19304000D02*
X23114000Y-18212000D01*
X20408000Y-27387000D02*
X17100000Y-27387000D01*
X17100000Y-27387000D02*
X15113000Y-25400000D01*
X15113000Y-21590000D02*
X16764000Y-19939000D01*
X16764000Y-19939000D02*
X22479000Y-19939000D01*
X15113000Y-25400000D02*
X15113000Y-21590000D01*
X22479000Y-19939000D02*
X23114000Y-19304000D01*
%TO.N,/Port USB/C4*%
X38100000Y-19812000D02*
X38100000Y-20828000D01*
X31556400Y-21148600D02*
X29218000Y-23487000D01*
X37779400Y-21148600D02*
X31556400Y-21148600D01*
X29218000Y-23487000D02*
X27432000Y-23487000D01*
X38100000Y-20828000D02*
X37779400Y-21148600D01*
%TO.N,Net-(IC4-CBUS1)*%
X20408000Y-26737000D02*
X17339000Y-26737000D01*
X23926841Y-19507159D02*
X24612841Y-19507159D01*
X17339000Y-26737000D02*
X15621000Y-25019000D01*
X15621000Y-22098000D02*
X17145000Y-20574000D01*
X15621000Y-25019000D02*
X15621000Y-22098000D01*
X17145000Y-20574000D02*
X22860000Y-20574000D01*
X22860000Y-20574000D02*
X23926841Y-19507159D01*
D62*
X26695159Y-18770841D02*
X27178000Y-18288000D01*
X26695159Y-19236000D02*
X26695159Y-18770841D01*
X24638000Y-19482000D02*
X24612841Y-19507159D01*
D60*
%TO.N,/Port USB/TXD*%
X38100000Y-30861000D02*
X37785600Y-31175400D01*
X30667400Y-31175400D02*
X30129000Y-30637000D01*
X38100000Y-29972000D02*
X38100000Y-30861000D01*
X37785600Y-31175400D02*
X30667400Y-31175400D01*
X30129000Y-30637000D02*
X27432000Y-30637000D01*
%TO.N,/Port USB/CTS*%
X31496000Y-22352000D02*
X29711000Y-24137000D01*
X35560000Y-22352000D02*
X31496000Y-22352000D01*
X29711000Y-24137000D02*
X27432000Y-24137000D01*
%TO.N,/Port USB/RXD*%
X35560000Y-27432000D02*
X29718000Y-27432000D01*
X29718000Y-27432000D02*
X29113000Y-28037000D01*
X29113000Y-28037000D02*
X27432000Y-28037000D01*
%TO.N,/Port USB/RI*%
X37779400Y-26228600D02*
X30032400Y-26228600D01*
X38100000Y-24892000D02*
X38100000Y-25908000D01*
X38100000Y-25908000D02*
X37779400Y-26228600D01*
X28874000Y-27387000D02*
X27432000Y-27387000D01*
X30032400Y-26228600D02*
X28874000Y-27387000D01*
%TO.N,Net-(IC4-3V3OUT)*%
X18804000Y-23487000D02*
X17767000Y-24524000D01*
X20408000Y-23487000D02*
X18804000Y-23487000D01*
X16637000Y-24524000D02*
X16510000Y-24397000D01*
X17767000Y-24524000D02*
X16637000Y-24524000D01*
%TO.N,/Port USB/DCD*%
X38100000Y-22352000D02*
X38100000Y-23114000D01*
X29823000Y-24787000D02*
X27432000Y-24787000D01*
X37658600Y-23555400D02*
X31054600Y-23555400D01*
X31054600Y-23555400D02*
X29823000Y-24787000D01*
X38100000Y-23114000D02*
X37658600Y-23555400D01*
%TO.N,/Port USB/RTS*%
X38100000Y-27432000D02*
X38100000Y-28321000D01*
X37785600Y-28635400D02*
X30927600Y-28635400D01*
X30927600Y-28635400D02*
X30226000Y-29337000D01*
X30226000Y-29337000D02*
X27432000Y-29337000D01*
X38100000Y-28321000D02*
X37785600Y-28635400D01*
%TO.N,/Port USB/DSR*%
X30607000Y-24892000D02*
X30062000Y-25437000D01*
X30062000Y-25437000D02*
X27432000Y-25437000D01*
X35560000Y-24892000D02*
X30607000Y-24892000D01*
D59*
%TO.N,Net-(LED10-A)*%
X25146000Y-16562000D02*
X23164000Y-16562000D01*
X23164000Y-16562000D02*
X23114000Y-16612000D01*
%TO.N,Net-(LED11-A)*%
X29210000Y-16562000D02*
X27304000Y-16562000D01*
X27304000Y-16562000D02*
X27178000Y-16688000D01*
%TO.N,Net-(LED15-A)*%
X166357800Y-16713200D02*
X166370000Y-16701000D01*
X163258400Y-16713200D02*
X166357800Y-16713200D01*
D62*
%TO.N,Net-(J34-CC2)*%
X24086000Y-12275000D02*
X24086000Y-10482000D01*
X24257000Y-12446000D02*
X24086000Y-12275000D01*
X24257000Y-14351000D02*
X24257000Y-12446000D01*
D59*
%TO.N,Net-(LS1--)*%
X39116000Y-65745000D02*
X38686500Y-66174500D01*
X38686500Y-66174500D02*
X38686500Y-70615000D01*
%TO.N,Net-(LED16-A)*%
X180149000Y-30480000D02*
X182296000Y-30480000D01*
%TO.N,Net-(LED17-A)*%
X173037000Y-30480000D02*
X174968000Y-30480000D01*
%TO.N,Net-(S13-B)*%
X15178000Y-6604000D02*
X17526000Y-6604000D01*
X23415000Y-10642000D02*
X23368000Y-10689000D01*
X27790996Y-12296996D02*
X27790996Y-12233355D01*
X19812000Y-8890000D02*
X19812000Y-11938000D01*
X19812000Y-11938000D02*
X20828000Y-12954000D01*
X14010000Y-5436000D02*
X15178000Y-6604000D01*
X28315000Y-11709351D02*
X28315000Y-10642000D01*
X20828000Y-12954000D02*
X21463000Y-12954000D01*
X23368000Y-12192000D02*
X23421000Y-12245000D01*
X23368000Y-10689000D02*
X23368000Y-12192000D01*
X14010000Y-5336000D02*
X13970000Y-5376000D01*
X17526000Y-6604000D02*
X19812000Y-8890000D01*
X27790996Y-12233355D02*
X28315000Y-11709351D01*
%TO.N,Net-(IC6-VOUT)*%
X200914000Y-35306000D02*
X203962000Y-35306000D01*
%TO.N,Net-(IC6-~{CS})*%
X190087000Y-37846000D02*
X193104000Y-37846000D01*
%TO.N,Net-(IC6-VREF)*%
X203962000Y-40386000D02*
X205232000Y-40386000D01*
X206502000Y-39116000D02*
X206502000Y-32525000D01*
X205232000Y-40386000D02*
X206502000Y-39116000D01*
X200914000Y-40386000D02*
X203962000Y-40386000D01*
X206502000Y-32525000D02*
X205473000Y-31496000D01*
%TO.N,Net-(IC6-SDI)*%
X190087000Y-42926000D02*
X193104000Y-42926000D01*
%TO.N,Net-(IC6-VDD)*%
X202705000Y-32766000D02*
X197358000Y-32766000D01*
X197358000Y-32766000D02*
X194818000Y-35306000D01*
X194818000Y-35306000D02*
X193104000Y-35306000D01*
X203975000Y-31496000D02*
X202705000Y-32766000D01*
X190087000Y-35306000D02*
X193104000Y-35306000D01*
%TO.N,Net-(IC6-~{LDAC})*%
X200914000Y-42926000D02*
X203962000Y-42926000D01*
%TO.N,Net-(IC6-SCK)*%
X190087000Y-40386000D02*
X193104000Y-40386000D01*
%TO.N,Net-(IC6-VSS)*%
X200914000Y-37846000D02*
X203962000Y-37846000D01*
%TO.N,Net-(LED18-A)*%
X6197000Y-11329000D02*
X4700000Y-12826000D01*
X6197000Y-10668000D02*
X6197000Y-11329000D01*
X4700000Y-12826000D02*
X4700000Y-12954000D01*
X6159000Y-10706000D02*
X6197000Y-10668000D01*
D62*
%TO.N,Net-(J34-CC1)*%
X28004000Y-13653000D02*
X28004000Y-14478000D01*
X27086000Y-12735000D02*
X28004000Y-13653000D01*
X27086000Y-12735000D02*
X27086000Y-10482000D01*
D59*
%TO.N,Net-(R2-Pad2)*%
X18368000Y-67103000D02*
X18368000Y-69422000D01*
X18368000Y-69422000D02*
X18861000Y-69915000D01*
X18861000Y-69915000D02*
X19812000Y-69915000D01*
%TO.N,Net-(R14-Pad2)*%
X30988000Y-70041000D02*
X27877000Y-70041000D01*
X27877000Y-70041000D02*
X26924000Y-69088000D01*
X26924000Y-69088000D02*
X26924000Y-67056000D01*
%TO.N,Net-(J5-Pin_7)*%
X14478000Y-50800000D02*
X16510000Y-50800000D01*
X10160000Y-69052000D02*
X11466000Y-69052000D01*
X13663000Y-53139000D02*
X13663000Y-51615000D01*
X12954000Y-60960000D02*
X12954000Y-53848000D01*
X11466000Y-69052000D02*
X12192000Y-68326000D01*
X12192000Y-68326000D02*
X12192000Y-61722000D01*
X13663000Y-51615000D02*
X14478000Y-50800000D01*
X12954000Y-53848000D02*
X13663000Y-53139000D01*
X12192000Y-61722000D02*
X12954000Y-60960000D01*
%TO.N,Net-(J5-Pin_6)*%
X12192000Y-53594000D02*
X12192000Y-60452000D01*
X13462000Y-48260000D02*
X12954000Y-48768000D01*
X3660000Y-60924000D02*
X10160000Y-60924000D01*
X12192000Y-60452000D02*
X11720000Y-60924000D01*
X11720000Y-60924000D02*
X10160000Y-60924000D01*
X16510000Y-48260000D02*
X13462000Y-48260000D01*
X12954000Y-48768000D02*
X12954000Y-52832000D01*
X12954000Y-52832000D02*
X12192000Y-53594000D01*
%TO.N,Net-(J5-Pin_8)*%
X13716000Y-61468000D02*
X13716000Y-54610000D01*
X14986000Y-53340000D02*
X16510000Y-53340000D01*
X10160000Y-77180000D02*
X11974000Y-77180000D01*
X11974000Y-77180000D02*
X13208000Y-75946000D01*
X13208000Y-75946000D02*
X13208000Y-61976000D01*
X13716000Y-54610000D02*
X14986000Y-53340000D01*
X13208000Y-61976000D02*
X13716000Y-61468000D01*
X3660000Y-77180000D02*
X10160000Y-77180000D01*
%TO.N,Net-(J5-Pin_5)*%
X12192000Y-48006000D02*
X14478000Y-45720000D01*
X14478000Y-45720000D02*
X16510000Y-45720000D01*
X11720000Y-52796000D02*
X12192000Y-52324000D01*
X12192000Y-52324000D02*
X12192000Y-48006000D01*
X10160000Y-52796000D02*
X11720000Y-52796000D01*
X3660000Y-52796000D02*
X10160000Y-52796000D01*
%TO.N,VSYS*%
X82296000Y-6858000D02*
X84836000Y-6858000D01*
%TD*%
M02*
